<svg width="1440" height="759" viewBox="0 0 1440 759" fill="none" xmlns="http://www.w3.org/2000/svg">
<g filter="url(#filter0_i_103_668)">
<path d="M0 758.287H1440V0.286621H0V758.287Z" fill="url(#paint0_linear_103_668)"/>
<mask id="mask0_103_668" style="mask-type:luminance" maskUnits="userSpaceOnUse" x="0" y="2" width="1440" height="754">
<path d="M1408.17 2.28664H31.8275C14.2495 2.28664 0 14.4647 0 29.4854V728.632C0 743.653 14.2495 755.831 31.8275 755.831H1408.17C1425.75 755.831 1440 743.653 1440 728.632V29.4854C1440 14.4647 1425.75 2.28664 1408.17 2.28664Z" fill="white"/>
</mask>
<g mask="url(#mask0_103_668)">
<path d="M1408.17 2.28664H31.8275C14.2495 2.28664 0 14.4647 0 29.4854V728.632C0 743.653 14.2495 755.831 31.8275 755.831H1408.17C1425.75 755.831 1440 743.653 1440 728.632V29.4854C1440 14.4647 1425.75 2.28664 1408.17 2.28664Z" fill="url(#paint1_linear_103_668)"/>
</g>
</g>
<defs>
<filter id="filter0_i_103_668" x="0" y="-13.7134" width="1440" height="772" filterUnits="userSpaceOnUse" color-interpolation-filters="sRGB">
<feFlood flood-opacity="0" result="BackgroundImageFix"/>
<feBlend mode="normal" in="SourceGraphic" in2="BackgroundImageFix" result="shape"/>
<feColorMatrix in="SourceAlpha" type="matrix" values="0 0 0 0 0 0 0 0 0 0 0 0 0 0 0 0 0 0 127 0" result="hardAlpha"/>
<feOffset dy="-17"/>
<feGaussianBlur stdDeviation="7"/>
<feComposite in2="hardAlpha" operator="arithmetic" k2="-1" k3="1"/>
<feColorMatrix type="matrix" values="0 0 0 0 0.0901961 0 0 0 0 0.027451 0 0 0 0 0.168627 0 0 0 1 0"/>
<feBlend mode="normal" in2="shape" result="effect1_innerShadow_103_668"/>
</filter>
<linearGradient id="paint0_linear_103_668" x1="1405.64" y1="862.257" x2="491.466" y2="-218.128" gradientUnits="userSpaceOnUse">
<stop stop-color="#352058"/>
<stop offset="1" stop-color="#1B1D46"/>
</linearGradient>
<linearGradient id="paint1_linear_103_668" x1="1445.94" y1="945.792" x2="-544.634" y2="-967.506" gradientUnits="userSpaceOnUse">
<stop stop-color="#402A85"/>
<stop offset="0.020202" stop-color="#402A85"/>
<stop offset="0.292929" stop-color="#352058"/>
<stop offset="1" stop-color="#201E4C"/>
</linearGradient>
</defs>
</svg>
