<svg width="75" height="98" viewBox="0 0 75 98" fill="none" xmlns="http://www.w3.org/2000/svg">
<path d="M61.9115 63.0597L11.9402 13.0888L13.0888 11.9401L63.0598 61.9115L61.9115 63.0597Z" fill="#8C15E9"/>
<path d="M13.0888 63.0597L11.9402 61.9115L61.9115 11.9401L63.0598 13.0888L13.0888 63.0597Z" fill="#8C15E9"/>
<path d="M64.0163 14.0454C64.862 13.2001 64.862 11.8287 64.0163 10.9835C63.171 10.1378 61.7996 10.1378 60.9543 10.9835C60.1086 11.8287 60.1086 13.2001 60.9543 14.0454C61.7996 14.8911 63.171 14.8911 64.0163 14.0454Z" fill="#8C15E9"/>
<path d="M14.0456 64.0164C14.8913 63.1711 14.8913 61.7997 14.0456 60.9544C13.2003 60.1087 11.8289 60.1087 10.9836 60.9544C10.1379 61.7997 10.1379 63.1711 10.9836 64.0164C11.8289 64.8621 13.2003 64.8621 14.0456 64.0164Z" fill="#8C15E9"/>
<path d="M60.9543 64.0164C61.7996 64.8621 63.171 64.8621 64.0163 64.0164C64.862 63.1711 64.862 61.7997 64.0163 60.9544C63.171 60.1087 61.7996 60.1087 60.9543 60.9544C60.1086 61.7997 60.1086 63.1711 60.9543 64.0164Z" fill="#8C15E9"/>
<path d="M10.9836 14.0454C11.8289 14.8911 13.2003 14.8911 14.0456 14.0454C14.8913 13.2001 14.8913 11.8287 14.0456 10.9835C13.2003 10.1378 11.8289 10.1378 10.9836 10.9835C10.1379 11.8287 10.1379 13.2001 10.9836 14.0454Z" fill="#8C15E9"/>
<path d="M72.8344 38.312H2.16504V36.688H72.8344V38.312Z" fill="#8C15E9"/>
<path d="M38.312 72.8344H36.688V2.16497H38.312V72.8344Z" fill="#8C15E9"/>
<path d="M39.6654 2.16498C39.6654 0.969381 38.696 -6.59061e-05 37.4999 -6.59061e-05C36.3039 -6.59061e-05 35.3345 0.969381 35.3345 2.16498C35.3345 3.361 36.3039 4.33044 37.4999 4.33044C38.696 4.33044 39.6654 3.361 39.6654 2.16498Z" fill="#8C15E9"/>
<path d="M39.6654 72.8348C39.6654 71.6388 38.696 70.6694 37.4999 70.6694C36.3039 70.6694 35.3345 71.6388 35.3345 72.8348C35.3345 74.0304 36.3039 74.9999 37.4999 74.9999C38.696 74.9999 39.6654 74.0304 39.6654 72.8348Z" fill="#8C15E9"/>
<path d="M72.8349 39.6655C74.0305 39.6655 74.9999 38.6961 74.9999 37.5001C74.9999 36.304 74.0305 35.3346 72.8349 35.3346C71.6389 35.3346 70.6694 36.304 70.6694 37.5001C70.6694 38.6961 71.6389 39.6655 72.8349 39.6655Z" fill="#8C15E9"/>
<path d="M2.16504 39.6655C3.36106 39.6655 4.33051 38.6961 4.33051 37.5001C4.33051 36.304 3.36106 35.3346 2.16504 35.3346C0.969447 35.3346 0 36.304 0 37.5001C0 38.6961 0.969447 39.6655 2.16504 39.6655Z" fill="#8C15E9"/>
<path d="M37.5025 61.5898C65.852 47.3246 61.0999 20.8824 61.0999 20.8824L37.5003 13.4106V13.4102L37.4999 13.4106L37.4995 13.4102V13.4106L13.8999 20.8824C13.8999 20.8824 9.14782 47.3246 37.4973 61.5898" fill="#2E73EA"/>
<path d="M59.0015 37.5947C59.6765 37.5367 60.3583 37.5004 61.0487 37.5004H58.1152C46.4955 36.0556 37.5 26.1563 37.5 14.1505V13.9619C37.5 26.9619 26.9572 37.5004 13.9512 37.5004C26.9572 37.5004 37.5 48.0389 37.5 61.0381C37.5 49.0326 46.4955 39.1329 58.1152 37.6886H61.0487C60.3583 37.6886 59.6765 37.6527 59.0015 37.5947Z" fill="#22DDD2"/>
<path d="M6.24326 94.4397C5.55442 94.4397 4.91235 94.3291 4.31706 94.108C3.73027 93.8784 3.22002 93.5553 2.78631 93.1386C2.35259 92.7219 2.01242 92.2329 1.7658 91.6716C1.52769 91.1103 1.40863 90.4938 1.40863 89.8219C1.40863 89.1501 1.52769 88.5335 1.7658 87.9723C2.01242 87.411 2.35259 86.922 2.78631 86.5053C3.22852 86.0886 3.74303 85.7697 4.32982 85.5486C4.9166 85.319 5.55867 85.2042 6.25601 85.2042C7.02989 85.2042 7.72724 85.3402 8.34804 85.6124C8.97735 85.876 9.50461 86.2672 9.92982 86.7859L8.60317 88.0105C8.29702 87.6619 7.95685 87.4025 7.58267 87.2324C7.20848 87.0538 6.80028 86.9645 6.35806 86.9645C5.94136 86.9645 5.55867 87.0326 5.21 87.1686C4.86133 87.3047 4.55943 87.5003 4.3043 87.7554C4.04918 88.0105 3.84933 88.3124 3.70476 88.6611C3.56869 89.0098 3.50066 89.3967 3.50066 89.8219C3.50066 90.2471 3.56869 90.6341 3.70476 90.9827C3.84933 91.3314 4.04918 91.6333 4.3043 91.8884C4.55943 92.1436 4.86133 92.3392 5.21 92.4752C5.55867 92.6113 5.94136 92.6793 6.35806 92.6793C6.80028 92.6793 7.20848 92.5943 7.58267 92.4242C7.95685 92.2456 8.29702 91.9777 8.60317 91.6206L9.92982 92.8452C9.50461 93.3639 8.97735 93.7594 8.34804 94.0315C7.72724 94.3036 7.02564 94.4397 6.24326 94.4397ZM13.4702 94.2866V90.6383L13.9422 91.8884L10.0132 85.3572H12.2073L15.2178 90.3704H13.9549L16.9782 85.3572H19.0064L15.0775 91.8884L15.5367 90.6383V94.2866H13.4702ZM19.7963 94.2866V85.3572H24.1589C25.2815 85.3572 26.1234 85.5698 26.6847 85.995C27.2545 86.4202 27.5394 86.9815 27.5394 87.6789C27.5394 88.1466 27.4246 88.5548 27.1949 88.9035C26.9653 89.2436 26.6507 89.5073 26.251 89.6944C25.8513 89.8815 25.3921 89.975 24.8733 89.975L25.1157 89.452C25.6769 89.452 26.1744 89.5455 26.6082 89.7326C27.0419 89.9112 27.3778 90.1791 27.6159 90.5363C27.8625 90.8935 27.9858 91.3314 27.9858 91.8502C27.9858 92.6155 27.6839 93.2151 27.0801 93.6488C26.4763 94.074 25.5877 94.2866 24.4141 94.2866H19.7963ZM21.8501 92.7304H24.261C24.7968 92.7304 25.2007 92.6453 25.4728 92.4752C25.7535 92.2966 25.8938 92.016 25.8938 91.6333C25.8938 91.2591 25.7535 90.9827 25.4728 90.8042C25.2007 90.6171 24.7968 90.5235 24.261 90.5235H21.697V89.0183H23.9038C24.4056 89.0183 24.7883 88.9332 25.0519 88.7632C25.324 88.5846 25.4601 88.3167 25.4601 87.9595C25.4601 87.6108 25.324 87.3515 25.0519 87.1814C24.7883 87.0028 24.4056 86.9135 23.9038 86.9135H21.8501V92.7304ZM31.4511 88.9545H35.7499V90.5618H31.4511V88.9545ZM31.6041 92.6283H36.4643V94.2866H29.5504V85.3572H36.2984V87.0155H31.6041V92.6283ZM38.1085 94.2866V85.3572H41.9737C42.7731 85.3572 43.4619 85.489 44.0402 85.7527C44.6185 86.0078 45.065 86.3777 45.3796 86.8625C45.6943 87.3472 45.8516 87.9255 45.8516 88.5973C45.8516 89.2606 45.6943 89.8347 45.3796 90.3194C45.065 90.7957 44.6185 91.1613 44.0402 91.4165C43.4619 91.6716 42.7731 91.7991 41.9737 91.7991H39.2566L40.1751 90.8935V94.2866H38.1085ZM43.7851 94.2866L41.5527 91.0465H43.7596L46.0174 94.2866H43.7851ZM40.1751 91.1231L39.2566 90.1536H41.8589C42.4967 90.1536 42.9729 90.0175 43.2876 89.7454C43.6022 89.4647 43.7596 89.0821 43.7596 88.5973C43.7596 88.1041 43.6022 87.7214 43.2876 87.4493C42.9729 87.1771 42.4967 87.0411 41.8589 87.0411H39.2566L40.1751 86.0588V91.1231Z" fill="white"/>
<path d="M6.24326 94.4397C5.55442 94.4397 4.91235 94.3291 4.31706 94.108C3.73027 93.8784 3.22002 93.5553 2.78631 93.1386C2.35259 92.7219 2.01242 92.2329 1.7658 91.6716C1.52769 91.1103 1.40863 90.4938 1.40863 89.8219C1.40863 89.1501 1.52769 88.5335 1.7658 87.9723C2.01242 87.411 2.35259 86.922 2.78631 86.5053C3.22852 86.0886 3.74303 85.7697 4.32982 85.5486C4.9166 85.319 5.55867 85.2042 6.25601 85.2042C7.02989 85.2042 7.72724 85.3402 8.34804 85.6124C8.97735 85.876 9.50461 86.2672 9.92982 86.7859L8.60317 88.0105C8.29702 87.6619 7.95685 87.4025 7.58267 87.2324C7.20848 87.0538 6.80028 86.9645 6.35806 86.9645C5.94136 86.9645 5.55867 87.0326 5.21 87.1686C4.86133 87.3047 4.55943 87.5003 4.3043 87.7554C4.04918 88.0105 3.84933 88.3124 3.70476 88.6611C3.56869 89.0098 3.50066 89.3967 3.50066 89.8219C3.50066 90.2471 3.56869 90.6341 3.70476 90.9827C3.84933 91.3314 4.04918 91.6333 4.3043 91.8884C4.55943 92.1436 4.86133 92.3392 5.21 92.4752C5.55867 92.6113 5.94136 92.6793 6.35806 92.6793C6.80028 92.6793 7.20848 92.5943 7.58267 92.4242C7.95685 92.2456 8.29702 91.9777 8.60317 91.6206L9.92982 92.8452C9.50461 93.3639 8.97735 93.7594 8.34804 94.0315C7.72724 94.3036 7.02564 94.4397 6.24326 94.4397ZM13.4702 94.2866V90.6383L13.9422 91.8884L10.0132 85.3572H12.2073L15.2178 90.3704H13.9549L16.9782 85.3572H19.0064L15.0775 91.8884L15.5367 90.6383V94.2866H13.4702ZM19.7963 94.2866V85.3572H24.1589C25.2815 85.3572 26.1234 85.5698 26.6847 85.995C27.2545 86.4202 27.5394 86.9815 27.5394 87.6789C27.5394 88.1466 27.4246 88.5548 27.1949 88.9035C26.9653 89.2436 26.6507 89.5073 26.251 89.6944C25.8513 89.8815 25.3921 89.975 24.8733 89.975L25.1157 89.452C25.6769 89.452 26.1744 89.5455 26.6082 89.7326C27.0419 89.9112 27.3778 90.1791 27.6159 90.5363C27.8625 90.8935 27.9858 91.3314 27.9858 91.8502C27.9858 92.6155 27.6839 93.2151 27.0801 93.6488C26.4763 94.074 25.5877 94.2866 24.4141 94.2866H19.7963ZM21.8501 92.7304H24.261C24.7968 92.7304 25.2007 92.6453 25.4728 92.4752C25.7535 92.2966 25.8938 92.016 25.8938 91.6333C25.8938 91.2591 25.7535 90.9827 25.4728 90.8042C25.2007 90.6171 24.7968 90.5235 24.261 90.5235H21.697V89.0183H23.9038C24.4056 89.0183 24.7883 88.9332 25.0519 88.7632C25.324 88.5846 25.4601 88.3167 25.4601 87.9595C25.4601 87.6108 25.324 87.3515 25.0519 87.1814C24.7883 87.0028 24.4056 86.9135 23.9038 86.9135H21.8501V92.7304ZM31.4511 88.9545H35.7499V90.5618H31.4511V88.9545ZM31.6041 92.6283H36.4643V94.2866H29.5504V85.3572H36.2984V87.0155H31.6041V92.6283ZM38.1085 94.2866V85.3572H41.9737C42.7731 85.3572 43.4619 85.489 44.0402 85.7527C44.6185 86.0078 45.065 86.3777 45.3796 86.8625C45.6943 87.3472 45.8516 87.9255 45.8516 88.5973C45.8516 89.2606 45.6943 89.8347 45.3796 90.3194C45.065 90.7957 44.6185 91.1613 44.0402 91.4165C43.4619 91.6716 42.7731 91.7991 41.9737 91.7991H39.2566L40.1751 90.8935V94.2866H38.1085ZM43.7851 94.2866L41.5527 91.0465H43.7596L46.0174 94.2866H43.7851ZM40.1751 91.1231L39.2566 90.1536H41.8589C42.4967 90.1536 42.9729 90.0175 43.2876 89.7454C43.6022 89.4647 43.7596 89.0821 43.7596 88.5973C43.7596 88.1041 43.6022 87.7214 43.2876 87.4493C42.9729 87.1771 42.4967 87.0411 41.8589 87.0411H39.2566L40.1751 86.0588V91.1231Z" fill="#2E73EA"/>
<path d="M47.4889 94.2866V85.3572H51.354C52.1534 85.3572 52.8423 85.489 53.4206 85.7527C53.9988 86.0078 54.4453 86.3777 54.76 86.8625C55.0746 87.3472 55.2319 87.9255 55.2319 88.5973C55.2319 89.2606 55.0746 89.8347 54.76 90.3194C54.4453 90.8042 53.9988 91.1783 53.4206 91.442C52.8423 91.6971 52.1534 91.8247 51.354 91.8247H48.637L49.5554 90.8935V94.2866H47.4889ZM49.5554 91.1231L48.637 90.1408H51.2392C51.877 90.1408 52.3533 90.0048 52.6679 89.7326C52.9826 89.4605 53.1399 89.0821 53.1399 88.5973C53.1399 88.1041 52.9826 87.7214 52.6679 87.4493C52.3533 87.1771 51.877 87.0411 51.2392 87.0411H48.637L49.5554 86.0588V91.1231ZM55.0852 94.2866L59.0652 85.3572H61.1062L65.0989 94.2866H62.9304L59.6648 86.4032H60.4812L57.2028 94.2866H55.0852ZM57.0752 92.3732L57.6237 90.8042H62.216L62.7773 92.3732H57.0752ZM66.0253 94.2866V85.3572H68.0919V92.6028H72.5693V94.2866H66.0253Z" fill="white"/>
</svg>
