<svg width="956" height="692" viewBox="0 0 956 692" fill="none" xmlns="http://www.w3.org/2000/svg">
<path d="M381.711 98.3018L430.309 133.692L398.399 141.909L369.873 154.96L381.711 98.3018Z" fill="#22DDD2"/>
<path d="M235.859 242.886L295.256 233.557L278.504 261.925L267.563 291.318L235.859 242.886Z" fill="#22DDD2"/>
<path d="M232.471 437.488L267.872 388.904L276.091 420.805L289.145 449.323L232.471 437.488Z" fill="#22DDD2"/>
<path d="M377.081 590.389L367.749 531.01L396.125 547.757L425.527 558.694L377.081 590.389Z" fill="#22DDD2"/>
<path d="M575.607 590.876L527.008 555.486L558.919 547.269L587.445 534.218L575.607 590.876Z" fill="#22DDD2"/>
<path d="M727.585 438.664L668.188 447.994L684.94 419.626L695.881 390.232L727.585 438.664Z" fill="#22DDD2"/>
<path d="M721.303 247.929L685.902 296.514L677.683 264.613L664.628 236.095L721.303 247.929Z" fill="#22DDD2"/>
<path d="M576.783 100.739L586.116 160.118L557.739 143.371L528.338 132.434L576.783 100.739Z" fill="#22DDD2"/>
<path d="M329.26 190.245L341.346 178.161L353.917 167.044L372.29 153.027L392.597 143.843L410.003 138.043L429.827 133.209L452.55 130.792L474.308 128.375L476.241 220.213L465.121 220.696L452.55 222.146L440.946 225.53L429.826 230.363L420.156 234.713L410.003 240.514L401.783 246.314L394.047 253.081L329.26 190.245Z" fill="#2E73EA"/>
<path d="M483.706 129.645L500.8 129.644L517.552 130.67L540.458 133.746L561.313 141.607L577.723 149.81L595.16 160.405L612.937 174.76L630.032 188.432L566.441 254.737L558.236 247.218L548.321 239.357L537.723 233.547L526.442 229.104L516.526 225.344L505.244 222.268L495.33 220.559L485.073 219.875L483.706 129.645Z" fill="#2E73EA"/>
<path d="M636.471 196.894L648.558 208.977L659.679 221.545L673.7 239.912L682.886 260.213L688.688 277.614L693.523 297.432L695.941 320.149L698.358 341.9L606.494 343.833L606.011 332.716L604.56 320.149L601.176 308.548L596.341 297.432L591.989 287.764L586.188 277.614L580.386 269.397L573.617 261.663L636.471 196.894Z" fill="#2E73EA"/>
<path d="M261.873 342.539L261.872 325.45L262.898 308.703L265.975 285.803L273.838 264.955L282.043 248.549L292.642 231.118L307.001 213.345L320.677 196.256L387.001 259.828L379.48 268.031L371.616 277.942L365.804 288.538L361.36 299.816L357.599 309.728L354.522 321.007L352.813 330.919L352.129 341.172L261.873 342.539Z" fill="#2E73EA"/>
<path d="M325.119 496.092L313.032 484.009L301.911 471.442L287.89 453.075L278.704 432.774L272.902 415.373L268.067 395.555L265.649 372.838L263.232 351.086L355.096 349.153L355.579 360.271L357.03 372.838L360.414 384.438L365.249 395.555L369.601 405.223L375.403 415.373L381.204 423.59L387.973 431.324L325.119 496.092Z" fill="#2E73EA"/>
<path d="M474.828 563.497L457.735 563.497L440.983 562.472L418.077 559.395L397.222 551.535L380.811 543.332L363.375 532.736L345.598 518.382L328.503 504.71L392.094 438.404L400.299 445.924L410.213 453.785L420.812 459.595L432.093 464.038L442.008 467.798L453.29 470.874L463.205 472.583L473.461 473.266L474.828 563.497Z" fill="#2E73EA"/>
<path d="M631.327 501.235L619.24 513.319L606.67 524.436L588.297 538.453L567.99 547.637L550.584 553.437L530.76 558.271L508.037 560.688L486.279 563.104L484.346 471.267L495.466 470.784L508.037 469.334L519.641 465.95L530.76 461.117L540.431 456.766L550.584 450.966L558.804 445.166L566.54 438.399L631.327 501.235Z" fill="#2E73EA"/>
<path d="M698.751 348.514L698.751 365.603L697.725 382.35L694.648 405.25L686.785 426.099L678.58 442.504L667.981 459.936L653.623 477.708L639.947 494.797L573.622 431.225L581.144 423.022L589.007 413.111L594.819 402.515L599.263 391.237L603.024 381.325L606.101 370.046L606.101 359.902L606.101 350.718L698.751 348.514Z" fill="#2E73EA"/>
<rect y="0.286621" width="184.638" height="67.7966" rx="14.4248" fill="#8C15E9"/>
<path d="M71.2066 26.6395V41.1849H68.8629L62.0092 31.2773H61.8885V41.1849H59.2535V26.6395H61.6115L68.4581 36.5543H68.5859V26.6395H71.2066ZM78.8936 41.398C77.7999 41.398 76.8553 41.1707 76.0598 40.7162C75.2691 40.2569 74.6607 39.6082 74.2345 38.7702C73.8084 37.9274 73.5953 36.9354 73.5953 35.7943C73.5953 34.6722 73.8084 33.6873 74.2345 32.8398C74.6654 31.9875 75.2667 31.3246 76.0385 30.8511C76.8103 30.3729 77.717 30.1338 78.7587 30.1338C79.431 30.1338 80.0655 30.2427 80.6621 30.4605C81.2634 30.6736 81.7937 31.005 82.253 31.4548C82.717 31.9046 83.0816 32.4775 83.3468 33.1736C83.6119 33.8649 83.7445 34.6887 83.7445 35.6452V36.4335H74.8027V34.7006H81.28C81.2753 34.2081 81.1687 33.7702 80.9604 33.3866C80.7521 32.9984 80.4609 32.693 80.0868 32.4704C79.7175 32.2479 79.2866 32.1366 78.7942 32.1366C78.2686 32.1366 77.807 32.2645 77.4093 32.5202C77.0115 32.7711 76.7014 33.1025 76.4789 33.5145C76.2611 33.9217 76.1498 34.3691 76.1451 34.8568V36.3696C76.1451 37.0041 76.2611 37.5486 76.4931 38.0031C76.7251 38.4529 77.0494 38.7986 77.4661 39.0401C77.8827 39.2768 78.3704 39.3952 78.9291 39.3952C79.3032 39.3952 79.6417 39.3431 79.9448 39.2389C80.2478 39.13 80.5106 38.9714 80.7331 38.7631C80.9557 38.5547 81.1237 38.2967 81.2374 37.9889L83.638 38.2588C83.4864 38.8933 83.1976 39.4472 82.7715 39.9207C82.3501 40.3895 81.8103 40.7541 81.1522 41.0145C80.494 41.2702 79.7412 41.398 78.8936 41.398ZM91.467 30.2758V32.2645H85.1957V30.2758H91.467ZM86.744 27.6622H89.315V37.9037C89.315 38.2493 89.3671 38.5145 89.4713 38.6991C89.5802 38.8791 89.7222 39.0022 89.8974 39.0685C90.0726 39.1347 90.2667 39.1679 90.4798 39.1679C90.6408 39.1679 90.7876 39.1561 90.9201 39.1324C91.0574 39.1087 91.1616 39.0874 91.2326 39.0685L91.6659 41.0784C91.5286 41.1258 91.3321 41.1778 91.0764 41.2347C90.8254 41.2915 90.5177 41.3246 90.1531 41.3341C89.5091 41.353 88.9291 41.256 88.413 41.0429C87.8969 40.8251 87.4874 40.4889 87.1843 40.0344C86.886 39.5798 86.7393 39.0116 86.744 38.3298V27.6622ZM106.281 31.5472H103.625C103.549 31.1115 103.409 30.7257 103.206 30.3895C103.002 30.0486 102.749 29.7597 102.446 29.523C102.143 29.2863 101.797 29.1087 101.409 28.9903C101.025 28.8672 100.611 28.8057 100.166 28.8057C99.3754 28.8057 98.6746 29.0045 98.0638 29.4023C97.453 29.7953 96.9748 30.3729 96.6291 31.1352C96.2835 31.8928 96.1107 32.8185 96.1107 33.9122C96.1107 35.0249 96.2835 35.9624 96.6291 36.7247C96.9795 37.4823 97.4577 38.0552 98.0638 38.4435C98.6746 38.827 99.373 39.0187 100.159 39.0187C100.595 39.0187 101.002 38.9619 101.381 38.8483C101.764 38.7299 102.107 38.5571 102.41 38.3298C102.718 38.1026 102.976 37.8232 103.185 37.4918C103.398 37.1603 103.544 36.7815 103.625 36.3554L106.281 36.3696C106.182 37.0609 105.966 37.7096 105.635 38.3156C105.308 38.9217 104.88 39.4567 104.349 39.9207C103.819 40.38 103.199 40.7399 102.489 41.0003C101.778 41.256 100.99 41.3838 100.123 41.3838C98.8451 41.3838 97.704 41.0879 96.7002 40.496C95.6964 39.9042 94.9057 39.0495 94.328 37.9321C93.7504 36.8147 93.4615 35.4747 93.4615 33.9122C93.4615 32.345 93.7527 31.005 94.3351 29.8923C94.9175 28.7749 95.7106 27.9203 96.7144 27.3284C97.7182 26.7365 98.8545 26.4406 100.123 26.4406C100.933 26.4406 101.686 26.5543 102.382 26.7815C103.078 27.0088 103.698 27.3426 104.243 27.7829C104.787 28.2186 105.235 28.7536 105.585 29.3881C105.94 30.0178 106.172 30.7375 106.281 31.5472ZM111.82 41.4051C111.128 41.4051 110.506 41.282 109.952 41.0358C109.403 40.7848 108.967 40.4155 108.645 39.9278C108.328 39.4401 108.169 38.8388 108.169 38.1239C108.169 37.5083 108.283 36.9993 108.51 36.5969C108.737 36.1944 109.047 35.8724 109.44 35.631C109.833 35.3895 110.276 35.2072 110.769 35.0841C111.266 34.9562 111.779 34.8639 112.31 34.8071C112.949 34.7408 113.467 34.6816 113.865 34.6295C114.263 34.5727 114.552 34.4875 114.732 34.3739C114.916 34.2555 115.009 34.0732 115.009 33.827V33.7844C115.009 33.2493 114.85 32.835 114.533 32.5415C114.216 32.2479 113.759 32.1011 113.162 32.1011C112.532 32.1011 112.033 32.2384 111.663 32.5131C111.299 32.7877 111.053 33.112 110.925 33.4861L108.524 33.1452C108.714 32.4823 109.026 31.9283 109.462 31.4832C109.897 31.0334 110.43 30.6972 111.06 30.4747C111.689 30.2474 112.386 30.1338 113.148 30.1338C113.673 30.1338 114.197 30.1954 114.717 30.3185C115.238 30.4416 115.714 30.6452 116.145 30.9293C116.576 31.2086 116.922 31.5898 117.182 32.0727C117.447 32.5557 117.58 33.1594 117.58 33.8838V41.1849H115.108V39.6864H115.023C114.867 39.9894 114.646 40.2735 114.362 40.5386C114.083 40.799 113.73 41.0097 113.304 41.1707C112.883 41.327 112.388 41.4051 111.82 41.4051ZM112.487 39.5159C113.003 39.5159 113.451 39.4141 113.83 39.2105C114.208 39.0022 114.5 38.7276 114.703 38.3866C114.912 38.0457 115.016 37.674 115.016 37.2716V35.9861C114.935 36.0524 114.798 36.1139 114.604 36.1707C114.414 36.2275 114.201 36.2773 113.965 36.3199C113.728 36.3625 113.493 36.4004 113.261 36.4335C113.029 36.4667 112.828 36.4951 112.658 36.5187C112.274 36.5708 111.931 36.6561 111.628 36.7744C111.325 36.8928 111.086 37.0585 110.911 37.2716C110.735 37.4799 110.648 37.7498 110.648 38.0812C110.648 38.5547 110.821 38.9122 111.166 39.1537C111.512 39.3952 111.952 39.5159 112.487 39.5159ZM125.712 30.2758V32.2645H119.441V30.2758H125.712ZM120.989 27.6622H123.56V37.9037C123.56 38.2493 123.612 38.5145 123.717 38.6991C123.825 38.8791 123.968 39.0022 124.143 39.0685C124.318 39.1347 124.512 39.1679 124.725 39.1679C124.886 39.1679 125.033 39.1561 125.165 39.1324C125.303 39.1087 125.407 39.0874 125.478 39.0685L125.911 41.0784C125.774 41.1258 125.577 41.1778 125.322 41.2347C125.071 41.2915 124.763 41.3246 124.398 41.3341C123.754 41.353 123.174 41.256 122.658 41.0429C122.142 40.8251 121.733 40.4889 121.43 40.0344C121.131 39.5798 120.985 39.0116 120.989 38.3298V27.6622Z" fill="white"/>
<rect y="171.394" width="178.542" height="65.5396" rx="14.4248" fill="#8C15E9"/>
<path d="M37.1106 200.617C37.0443 199.997 36.765 199.514 36.2725 199.168C35.7848 198.822 35.1504 198.65 34.3691 198.65C33.8199 198.65 33.3488 198.732 32.9558 198.898C32.5628 199.064 32.2621 199.289 32.0538 199.573C31.8455 199.857 31.7389 200.181 31.7342 200.546C31.7342 200.849 31.8028 201.112 31.9402 201.334C32.0822 201.557 32.274 201.746 32.5154 201.902C32.7569 202.054 33.0244 202.182 33.318 202.286C33.6116 202.39 33.9075 202.478 34.2058 202.549L35.5694 202.89C36.1187 203.018 36.6466 203.19 37.1532 203.408C37.6646 203.626 38.1215 203.901 38.524 204.232C38.9312 204.563 39.2531 204.964 39.4899 205.432C39.7266 205.901 39.845 206.45 39.845 207.08C39.845 207.932 39.6272 208.683 39.1916 209.331C38.756 209.975 38.1262 210.48 37.3024 210.844C36.4832 211.204 35.4913 211.384 34.3265 211.384C33.1949 211.384 32.2124 211.209 31.3791 210.858C30.5505 210.508 29.9018 209.997 29.4331 209.324C28.969 208.652 28.7181 207.833 28.6802 206.867H31.2725C31.3104 207.374 31.4667 207.795 31.7413 208.131C32.0159 208.467 32.3734 208.718 32.8137 208.884C33.2588 209.05 33.756 209.133 34.3052 209.133C34.8781 209.133 35.38 209.047 35.8109 208.877C36.2465 208.702 36.5874 208.46 36.8336 208.152C37.0798 207.84 37.2053 207.475 37.21 207.059C37.2053 206.68 37.094 206.367 36.8762 206.121C36.6584 205.87 36.353 205.662 35.96 205.496C35.5718 205.326 35.1172 205.174 34.5964 205.042L32.9416 204.616C31.7437 204.308 30.7967 203.841 30.1007 203.216C29.4094 202.587 29.0637 201.751 29.0637 200.709C29.0637 199.852 29.2957 199.102 29.7598 198.458C30.2285 197.814 30.8653 197.314 31.6703 196.959C32.4752 196.599 33.3866 196.42 34.4046 196.42C35.4368 196.42 36.3412 196.599 37.1177 196.959C37.899 197.314 38.5121 197.809 38.9572 198.444C39.4023 199.073 39.6319 199.798 39.6461 200.617H37.1106ZM47.01 211.377C45.9162 211.377 44.9716 211.15 44.1762 210.695C43.3854 210.236 42.777 209.587 42.3509 208.749C41.9247 207.906 41.7117 206.914 41.7117 205.773C41.7117 204.651 41.9247 203.666 42.3509 202.819C42.7817 201.966 43.3831 201.304 44.1549 200.83C44.9266 200.352 45.8334 200.113 46.875 200.113C47.5474 200.113 48.1818 200.222 48.7784 200.439C49.3798 200.652 49.9101 200.984 50.3693 201.434C50.8334 201.884 51.1979 202.456 51.4631 203.152C51.7282 203.844 51.8608 204.668 51.8608 205.624V206.412H42.9191V204.679H49.3963C49.3916 204.187 49.2851 203.749 49.0767 203.366C48.8684 202.977 48.5772 202.672 48.2031 202.449C47.8338 202.227 47.403 202.116 46.9105 202.116C46.385 202.116 45.9233 202.243 45.5256 202.499C45.1279 202.75 44.8177 203.081 44.5952 203.493C44.3774 203.901 44.2661 204.348 44.2614 204.836V206.348C44.2614 206.983 44.3774 207.527 44.6094 207.982C44.8414 208.432 45.1657 208.777 45.5824 209.019C45.9991 209.256 46.4868 209.374 47.0455 209.374C47.4195 209.374 47.7581 209.322 48.0611 209.218C48.3641 209.109 48.6269 208.95 48.8495 208.742C49.072 208.534 49.2401 208.276 49.3537 207.968L51.7543 208.238C51.6028 208.872 51.3139 209.426 50.8878 209.9C50.4664 210.368 49.9266 210.733 49.2685 210.993C48.6103 211.249 47.8575 211.377 47.01 211.377ZM57.2751 211.384C56.5838 211.384 55.9612 211.261 55.4072 211.015C54.858 210.764 54.4224 210.394 54.1004 209.907C53.7831 209.419 53.6245 208.818 53.6245 208.103C53.6245 207.487 53.7382 206.978 53.9654 206.576C54.1927 206.173 54.5028 205.851 54.8958 205.61C55.2888 205.368 55.7315 205.186 56.224 205.063C56.7211 204.935 57.2349 204.843 57.7652 204.786C58.4044 204.72 58.9228 204.661 59.3206 204.608C59.7183 204.552 60.0071 204.466 60.187 204.353C60.3717 204.234 60.464 204.052 60.464 203.806V203.763C60.464 203.228 60.3054 202.814 59.9882 202.52C59.6709 202.227 59.214 202.08 58.6174 202.08C57.9877 202.08 57.4882 202.217 57.1188 202.492C56.7543 202.767 56.5081 203.091 56.3802 203.465L53.9796 203.124C54.169 202.461 54.4815 201.907 54.9171 201.462C55.3527 201.012 55.8854 200.676 56.5152 200.454C57.1449 200.226 57.8409 200.113 58.6032 200.113C59.1288 200.113 59.652 200.174 60.1728 200.297C60.6937 200.42 61.1695 200.624 61.6004 200.908C62.0313 201.187 62.3769 201.569 62.6373 202.052C62.9025 202.535 63.035 203.138 63.035 203.863V211.164H60.5634V209.665H60.4782C60.322 209.968 60.1018 210.252 59.8177 210.518C59.5384 210.778 59.1856 210.989 58.7595 211.15C58.3381 211.306 57.8433 211.384 57.2751 211.384ZM57.9427 209.495C58.4588 209.495 58.9063 209.393 59.285 209.189C59.6638 208.981 59.955 208.706 60.1586 208.366C60.367 208.025 60.4711 207.653 60.4711 207.25V205.965C60.3906 206.031 60.2533 206.093 60.0592 206.15C59.8698 206.206 59.6567 206.256 59.42 206.299C59.1832 206.341 58.9489 206.379 58.7169 206.412C58.4849 206.446 58.2836 206.474 58.1132 206.498C57.7296 206.55 57.3864 206.635 57.0833 206.753C56.7803 206.872 56.5412 207.037 56.366 207.25C56.1908 207.459 56.1032 207.729 56.1032 208.06C56.1032 208.534 56.276 208.891 56.6217 209.133C56.9673 209.374 57.4077 209.495 57.9427 209.495ZM65.7203 211.164V200.255H68.2132V202.073H68.3268C68.5257 201.443 68.8666 200.958 69.3495 200.617C69.8372 200.271 70.3936 200.098 71.0186 200.098C71.1606 200.098 71.3192 200.106 71.4944 200.12C71.6743 200.129 71.8235 200.146 71.9419 200.17V202.535C71.833 202.497 71.6601 202.464 71.4234 202.435C71.1914 202.402 70.9665 202.385 70.7487 202.385C70.2799 202.385 69.8585 202.487 69.4845 202.691C69.1152 202.89 68.824 203.167 68.6109 203.522C68.3978 203.877 68.2913 204.286 68.2913 204.75V211.164H65.7203ZM78.0593 211.377C76.9702 211.377 76.0351 211.138 75.2539 210.66C74.4773 210.181 73.8784 209.521 73.457 208.678C73.0403 207.83 72.832 206.855 72.832 205.752C72.832 204.644 73.0451 203.666 73.4712 202.819C73.8973 201.966 74.4987 201.304 75.2752 200.83C76.0564 200.352 76.9797 200.113 78.0451 200.113C78.9305 200.113 79.7141 200.276 80.3959 200.603C81.0825 200.925 81.6293 201.382 82.0365 201.973C82.4437 202.561 82.6757 203.247 82.7326 204.033H80.2752C80.1757 203.508 79.939 203.07 79.5649 202.719C79.1956 202.364 78.7008 202.187 78.0806 202.187C77.555 202.187 77.0933 202.329 76.6956 202.613C76.2979 202.892 75.9878 203.295 75.7652 203.82C75.5474 204.346 75.4385 204.975 75.4385 205.709C75.4385 206.453 75.5474 207.092 75.7652 207.627C75.983 208.157 76.2884 208.567 76.6814 208.856C77.0791 209.14 77.5455 209.282 78.0806 209.282C78.4594 209.282 78.7979 209.211 79.0962 209.069C79.3992 208.922 79.6525 208.711 79.8561 208.437C80.0597 208.162 80.1994 207.828 80.2752 207.435H82.7326C82.671 208.207 82.4437 208.891 82.0507 209.488C81.6577 210.08 81.1227 210.544 80.4456 210.88C79.7685 211.211 78.9731 211.377 78.0593 211.377ZM87.5147 204.772V211.164H84.9437V196.618H87.4579V202.108H87.5857C87.8414 201.493 88.2368 201.008 88.7718 200.652C89.3116 200.293 89.9982 200.113 90.8315 200.113C91.5891 200.113 92.2496 200.271 92.813 200.589C93.3765 200.906 93.8121 201.37 94.1198 201.981C94.4323 202.591 94.5886 203.337 94.5886 204.218V211.164H92.0176V204.616C92.0176 203.882 91.8282 203.311 91.4494 202.904C91.0753 202.492 90.5498 202.286 89.8727 202.286C89.4181 202.286 89.0109 202.385 88.6511 202.584C88.296 202.778 88.0166 203.06 87.813 203.429C87.6142 203.799 87.5147 204.246 87.5147 204.772ZM105.931 203.138L103.588 203.394C103.521 203.157 103.405 202.935 103.24 202.726C103.079 202.518 102.861 202.35 102.586 202.222C102.312 202.094 101.976 202.03 101.578 202.03C101.043 202.03 100.593 202.146 100.228 202.378C99.8685 202.61 99.691 202.911 99.6957 203.28C99.691 203.598 99.807 203.856 100.044 204.054C100.285 204.253 100.683 204.417 101.237 204.545L103.098 204.942C104.13 205.165 104.897 205.518 105.399 206C105.905 206.483 106.161 207.116 106.166 207.897C106.161 208.583 105.96 209.189 105.562 209.715C105.169 210.236 104.622 210.643 103.922 210.937C103.221 211.23 102.416 211.377 101.507 211.377C100.172 211.377 99.0967 211.098 98.2823 210.539C97.4679 209.975 96.9826 209.192 96.8264 208.188L99.3335 207.946C99.4471 208.439 99.6886 208.811 100.058 209.062C100.427 209.313 100.908 209.438 101.5 209.438C102.11 209.438 102.601 209.313 102.97 209.062C103.344 208.811 103.531 208.5 103.531 208.131C103.531 207.819 103.41 207.561 103.169 207.357C102.932 207.153 102.563 206.997 102.061 206.888L100.2 206.498C99.1536 206.28 98.3794 205.913 97.8775 205.397C97.3756 204.876 97.127 204.218 97.1318 203.422C97.127 202.75 97.3093 202.168 97.6786 201.675C98.0527 201.178 98.5712 200.795 99.234 200.525C99.9017 200.25 100.671 200.113 101.542 200.113C102.821 200.113 103.827 200.385 104.561 200.929C105.299 201.474 105.756 202.21 105.931 203.138ZM108.386 215.255V200.255H110.914V202.059H111.063C111.196 201.794 111.383 201.512 111.625 201.214C111.866 200.911 112.193 200.652 112.605 200.439C113.017 200.222 113.542 200.113 114.181 200.113C115.024 200.113 115.784 200.328 116.461 200.759C117.143 201.185 117.683 201.817 118.08 202.655C118.483 203.489 118.684 204.511 118.684 205.723C118.684 206.921 118.488 207.939 118.095 208.777C117.702 209.616 117.167 210.255 116.49 210.695C115.812 211.135 115.045 211.356 114.188 211.356C113.563 211.356 113.045 211.251 112.633 211.043C112.221 210.835 111.89 210.584 111.639 210.29C111.393 209.992 111.201 209.71 111.063 209.445H110.957V215.255H108.386ZM110.907 205.709C110.907 206.415 111.007 207.033 111.205 207.563C111.409 208.093 111.7 208.508 112.079 208.806C112.463 209.099 112.927 209.246 113.471 209.246C114.039 209.246 114.515 209.095 114.899 208.792C115.282 208.484 115.571 208.065 115.765 207.535C115.964 207 116.063 206.391 116.063 205.709C116.063 205.032 115.966 204.431 115.772 203.905C115.578 203.38 115.289 202.968 114.906 202.67C114.522 202.371 114.044 202.222 113.471 202.222C112.922 202.222 112.455 202.366 112.072 202.655C111.688 202.944 111.397 203.349 111.198 203.87C111.004 204.391 110.907 205.004 110.907 205.709ZM123.557 196.618V211.164H120.986V196.618H123.557ZM131.059 211.377C129.994 211.377 129.071 211.143 128.289 210.674C127.508 210.205 126.902 209.549 126.471 208.706C126.045 207.864 125.832 206.879 125.832 205.752C125.832 204.625 126.045 203.638 126.471 202.79C126.902 201.943 127.508 201.285 128.289 200.816C129.071 200.347 129.994 200.113 131.059 200.113C132.125 200.113 133.048 200.347 133.829 200.816C134.61 201.285 135.214 201.943 135.64 202.79C136.071 203.638 136.287 204.625 136.287 205.752C136.287 206.879 136.071 207.864 135.64 208.706C135.214 209.549 134.61 210.205 133.829 210.674C133.048 211.143 132.125 211.377 131.059 211.377ZM131.073 209.317C131.651 209.317 132.134 209.159 132.522 208.841C132.911 208.519 133.199 208.089 133.389 207.549C133.583 207.009 133.68 206.408 133.68 205.745C133.68 205.077 133.583 204.473 133.389 203.934C133.199 203.389 132.911 202.956 132.522 202.634C132.134 202.312 131.651 202.151 131.073 202.151C130.482 202.151 129.989 202.312 129.596 202.634C129.208 202.956 128.917 203.389 128.723 203.934C128.533 204.473 128.439 205.077 128.439 205.745C128.439 206.408 128.533 207.009 128.723 207.549C128.917 208.089 129.208 208.519 129.596 208.841C129.989 209.159 130.482 209.317 131.073 209.317ZM138.569 211.164V200.255H141.14V211.164H138.569ZM139.861 198.706C139.454 198.706 139.104 198.571 138.81 198.302C138.517 198.027 138.37 197.698 138.37 197.314C138.37 196.926 138.517 196.597 138.81 196.327C139.104 196.053 139.454 195.915 139.861 195.915C140.273 195.915 140.624 196.053 140.912 196.327C141.206 196.597 141.353 196.926 141.353 197.314C141.353 197.698 141.206 198.027 140.912 198.302C140.624 198.571 140.273 198.706 139.861 198.706ZM149.331 200.255V202.243H143.06V200.255H149.331ZM144.608 197.641H147.179V207.883C147.179 208.228 147.231 208.493 147.335 208.678C147.444 208.858 147.586 208.981 147.761 209.047C147.937 209.114 148.131 209.147 148.344 209.147C148.505 209.147 148.652 209.135 148.784 209.111C148.921 209.088 149.026 209.066 149.097 209.047L149.53 211.057C149.393 211.105 149.196 211.157 148.94 211.214C148.689 211.27 148.382 211.304 148.017 211.313C147.373 211.332 146.793 211.235 146.277 211.022C145.761 210.804 145.351 210.468 145.048 210.013C144.75 209.559 144.603 208.991 144.608 208.309V197.641Z" fill="white"/>
<rect y="446.906" width="178.542" height="65.5396" rx="14.4248" fill="#8C15E9"/>
<path d="M16.4444 472.13H19.0581V482.358C19.0533 483.295 18.8545 484.102 18.4615 484.779C18.0685 485.452 17.5192 485.97 16.8137 486.335C16.113 486.695 15.2962 486.875 14.3634 486.875C13.5112 486.875 12.7441 486.723 12.0623 486.42C11.3852 486.112 10.8478 485.658 10.4501 485.056C10.0524 484.455 9.8535 483.707 9.8535 482.812H12.4742C12.479 483.205 12.5642 483.544 12.7299 483.828C12.9004 484.112 13.1348 484.33 13.4331 484.481C13.7313 484.633 14.0746 484.708 14.4629 484.708C14.8843 484.708 15.2418 484.621 15.5353 484.446C15.8289 484.266 16.0514 484.001 16.2029 483.65C16.3592 483.3 16.4397 482.869 16.4444 482.358V472.13ZM26.6616 486.889C25.5963 486.889 24.673 486.654 23.8917 486.186C23.1105 485.717 22.5044 485.061 22.0735 484.218C21.6474 483.376 21.4343 482.391 21.4343 481.264C21.4343 480.137 21.6474 479.15 22.0735 478.302C22.5044 477.455 23.1105 476.797 23.8917 476.328C24.673 475.859 25.5963 475.625 26.6616 475.625C27.7269 475.625 28.6502 475.859 29.4315 476.328C30.2127 476.797 30.8164 477.455 31.2426 478.302C31.6734 479.15 31.8889 480.137 31.8889 481.264C31.8889 482.391 31.6734 483.376 31.2426 484.218C30.8164 485.061 30.2127 485.717 29.4315 486.186C28.6502 486.654 27.7269 486.889 26.6616 486.889ZM26.6758 484.829C27.2535 484.829 27.7364 484.671 28.1247 484.353C28.5129 484.031 28.8018 483.6 28.9911 483.061C29.1853 482.521 29.2823 481.92 29.2823 481.257C29.2823 480.589 29.1853 479.985 28.9911 479.446C28.8018 478.901 28.5129 478.468 28.1247 478.146C27.7364 477.824 27.2535 477.663 26.6758 477.663C26.084 477.663 25.5915 477.824 25.1985 478.146C24.8103 478.468 24.5191 478.901 24.325 479.446C24.1356 479.985 24.0409 480.589 24.0409 481.257C24.0409 481.92 24.1356 482.521 24.325 483.061C24.5191 483.6 24.8103 484.031 25.1985 484.353C25.5915 484.671 26.084 484.829 26.6758 484.829ZM36.7421 480.284V486.676H34.171V472.13H36.6853V477.62H36.8131C37.0688 477.005 37.4641 476.52 37.9992 476.164C38.5389 475.805 39.2255 475.625 40.0588 475.625C40.8164 475.625 41.4769 475.783 42.0404 476.1C42.6038 476.418 43.0394 476.882 43.3472 477.493C43.6597 478.103 43.8159 478.849 43.8159 479.73V486.676H41.2449V480.127C41.2449 479.394 41.0555 478.823 40.6767 478.416C40.3027 478.004 39.7771 477.798 39.1 477.798C38.6455 477.798 38.2383 477.897 37.8784 478.096C37.5233 478.29 37.244 478.572 37.0404 478.941C36.8415 479.311 36.7421 479.758 36.7421 480.284ZM49.1077 480.284V486.676H46.5367V475.767H48.9941V477.62H49.1219C49.3728 477.01 49.7729 476.524 50.3222 476.164C50.8762 475.805 51.5603 475.625 52.3747 475.625C53.1276 475.625 53.7834 475.786 54.3421 476.108C54.9055 476.43 55.3411 476.896 55.6489 477.507C55.9614 478.118 56.1153 478.859 56.1105 479.73V486.676H53.5395V480.127C53.5395 479.398 53.3501 478.828 52.9713 478.416C52.5973 478.004 52.0788 477.798 51.4159 477.798C50.9661 477.798 50.566 477.897 50.2156 478.096C49.87 478.29 49.5978 478.572 49.3989 478.941C49.2048 479.311 49.1077 479.758 49.1077 480.284ZM63.3595 474.339V472.13H74.9647V474.339H70.4689V486.676H67.8553V474.339H63.3595ZM79.7593 480.284V486.676H77.1882V472.13H79.7024V477.62H79.8303C80.086 477.005 80.4813 476.52 81.0164 476.164C81.5561 475.805 82.2427 475.625 83.076 475.625C83.8336 475.625 84.4941 475.783 85.0576 476.1C85.621 476.418 86.0566 476.882 86.3644 477.493C86.6769 478.103 86.8331 478.849 86.8331 479.73V486.676H84.2621V480.127C84.2621 479.394 84.0727 478.823 83.6939 478.416C83.3199 478.004 82.7943 477.798 82.1172 477.798C81.6627 477.798 81.2555 477.897 80.8956 478.096C80.5405 478.29 80.2611 478.572 80.0576 478.941C79.8587 479.311 79.7593 479.758 79.7593 480.284ZM94.3834 486.889C93.2897 486.889 92.345 486.662 91.5496 486.207C90.7589 485.748 90.1504 485.099 89.7243 484.261C89.2982 483.418 89.0851 482.426 89.0851 481.285C89.0851 480.163 89.2982 479.178 89.7243 478.331C90.1552 477.478 90.7565 476.815 91.5283 476.342C92.3001 475.864 93.2068 475.625 94.2485 475.625C94.9208 475.625 95.5553 475.734 96.1519 475.951C96.7532 476.164 97.2835 476.496 97.7428 476.946C98.2068 477.395 98.5714 477.968 98.8365 478.664C99.1017 479.356 99.2343 480.18 99.2343 481.136V481.924H90.2925V480.191H96.7698C96.765 479.699 96.6585 479.261 96.4502 478.877C96.2418 478.489 95.9506 478.184 95.5766 477.961C95.2073 477.739 94.7764 477.627 94.284 477.627C93.7584 477.627 93.2968 477.755 92.899 478.011C92.5013 478.262 92.1912 478.593 91.9686 479.005C91.7508 479.413 91.6396 479.86 91.6348 480.348V481.86C91.6348 482.495 91.7508 483.039 91.9828 483.494C92.2148 483.944 92.5392 484.289 92.9558 484.531C93.3725 484.768 93.8602 484.886 94.4189 484.886C94.793 484.886 95.1315 484.834 95.4345 484.73C95.7376 484.621 96.0004 484.462 96.2229 484.254C96.4454 484.046 96.6135 483.788 96.7272 483.48L99.1277 483.75C98.9762 484.384 98.6874 484.938 98.2612 485.412C97.8398 485.88 97.3001 486.245 96.6419 486.505C95.9838 486.761 95.2309 486.889 94.3834 486.889ZM106.684 486.676V472.13H112.138C113.256 472.13 114.193 472.324 114.951 472.713C115.713 473.101 116.289 473.645 116.677 474.346C117.07 475.042 117.266 475.854 117.266 476.782C117.266 477.715 117.067 478.525 116.67 479.211C116.277 479.893 115.697 480.421 114.93 480.795C114.163 481.164 113.22 481.349 112.103 481.349H108.218V479.162H111.748C112.401 479.162 112.936 479.072 113.353 478.892C113.77 478.707 114.077 478.439 114.276 478.089C114.48 477.734 114.582 477.298 114.582 476.782C114.582 476.266 114.48 475.826 114.276 475.461C114.073 475.092 113.763 474.813 113.346 474.623C112.929 474.429 112.392 474.332 111.734 474.332H109.319V486.676H106.684ZM114.198 480.085L117.799 486.676H114.859L111.322 480.085H114.198ZM119.678 486.676V475.767H122.249V486.676H119.678ZM120.971 474.218C120.563 474.218 120.213 474.083 119.92 473.814C119.626 473.539 119.479 473.21 119.479 472.826C119.479 472.438 119.626 472.109 119.92 471.839C120.213 471.564 120.563 471.427 120.971 471.427C121.383 471.427 121.733 471.564 122.022 471.839C122.315 472.109 122.462 472.438 122.462 472.826C122.462 473.21 122.315 473.539 122.022 473.814C121.733 474.083 121.383 474.218 120.971 474.218ZM124.993 490.767V475.767H127.521V477.571H127.67C127.803 477.306 127.99 477.024 128.232 476.725C128.473 476.422 128.8 476.164 129.212 475.951C129.624 475.734 130.149 475.625 130.788 475.625C131.631 475.625 132.391 475.84 133.068 476.271C133.75 476.697 134.29 477.329 134.688 478.167C135.09 479.001 135.291 480.023 135.291 481.235C135.291 482.433 135.095 483.451 134.702 484.289C134.309 485.127 133.774 485.767 133.097 486.207C132.42 486.647 131.652 486.868 130.795 486.868C130.17 486.868 129.652 486.763 129.24 486.555C128.828 486.347 128.497 486.096 128.246 485.802C128 485.504 127.808 485.222 127.67 484.957H127.564V490.767H124.993ZM127.514 481.221C127.514 481.927 127.614 482.545 127.813 483.075C128.016 483.605 128.307 484.02 128.686 484.318C129.07 484.611 129.534 484.758 130.078 484.758C130.646 484.758 131.122 484.607 131.506 484.304C131.889 483.996 132.178 483.577 132.372 483.047C132.571 482.511 132.67 481.903 132.67 481.221C132.67 480.544 132.573 479.943 132.379 479.417C132.185 478.892 131.896 478.48 131.513 478.181C131.129 477.883 130.651 477.734 130.078 477.734C129.529 477.734 129.063 477.878 128.679 478.167C128.295 478.456 128.004 478.861 127.805 479.382C127.611 479.903 127.514 480.516 127.514 481.221ZM137.593 490.767V475.767H140.121V477.571H140.27C140.403 477.306 140.59 477.024 140.832 476.725C141.073 476.422 141.4 476.164 141.812 475.951C142.224 475.734 142.749 475.625 143.388 475.625C144.231 475.625 144.991 475.84 145.668 476.271C146.35 476.697 146.89 477.329 147.288 478.167C147.69 479.001 147.891 480.023 147.891 481.235C147.891 482.433 147.695 483.451 147.302 484.289C146.909 485.127 146.374 485.767 145.697 486.207C145.02 486.647 144.252 486.868 143.395 486.868C142.77 486.868 142.252 486.763 141.84 486.555C141.428 486.347 141.097 486.096 140.846 485.802C140.6 485.504 140.408 485.222 140.27 484.957H140.164V490.767H137.593ZM140.114 481.221C140.114 481.927 140.214 482.545 140.413 483.075C140.616 483.605 140.907 484.02 141.286 484.318C141.67 484.611 142.134 484.758 142.678 484.758C143.246 484.758 143.722 484.607 144.106 484.304C144.489 483.996 144.778 483.577 144.972 483.047C145.171 482.511 145.27 481.903 145.27 481.221C145.27 480.544 145.173 479.943 144.979 479.417C144.785 478.892 144.496 478.48 144.113 478.181C143.729 477.883 143.251 477.734 142.678 477.734C142.129 477.734 141.663 477.878 141.279 478.167C140.895 478.456 140.604 478.861 140.405 479.382C140.211 479.903 140.114 480.516 140.114 481.221ZM155.022 486.889C153.929 486.889 152.984 486.662 152.189 486.207C151.398 485.748 150.79 485.099 150.363 484.261C149.937 483.418 149.724 482.426 149.724 481.285C149.724 480.163 149.937 479.178 150.363 478.331C150.794 477.478 151.396 476.815 152.167 476.342C152.939 475.864 153.846 475.625 154.888 475.625C155.56 475.625 156.194 475.734 156.791 475.951C157.392 476.164 157.923 476.496 158.382 476.946C158.846 477.395 159.21 477.968 159.476 478.664C159.741 479.356 159.873 480.18 159.873 481.136V481.924H150.932V480.191H157.409C157.404 479.699 157.298 479.261 157.089 478.877C156.881 478.489 156.59 478.184 156.216 477.961C155.846 477.739 155.415 477.627 154.923 477.627C154.397 477.627 153.936 477.755 153.538 478.011C153.14 478.262 152.83 478.593 152.608 479.005C152.39 479.413 152.279 479.86 152.274 480.348V481.86C152.274 482.495 152.39 483.039 152.622 483.494C152.854 483.944 153.178 484.289 153.595 484.531C154.012 484.768 154.499 484.886 155.058 484.886C155.432 484.886 155.771 484.834 156.074 484.73C156.377 484.621 156.639 484.462 156.862 484.254C157.084 484.046 157.253 483.788 157.366 483.48L159.767 483.75C159.615 484.384 159.326 484.938 158.9 485.412C158.479 485.88 157.939 486.245 157.281 486.505C156.623 486.761 155.87 486.889 155.022 486.889ZM162.148 486.676V475.767H164.641V477.585H164.755C164.954 476.955 165.295 476.47 165.778 476.129C166.265 475.783 166.822 475.61 167.447 475.61C167.589 475.61 167.747 475.618 167.923 475.632C168.102 475.641 168.252 475.658 168.37 475.681V478.047C168.261 478.009 168.088 477.975 167.852 477.947C167.62 477.914 167.395 477.897 167.177 477.897C166.708 477.897 166.287 477.999 165.913 478.203C165.543 478.402 165.252 478.679 165.039 479.034C164.826 479.389 164.719 479.798 164.719 480.262V486.676H162.148Z" fill="white"/>
<rect y="625.747" width="178.542" height="65.5396" rx="14.4248" fill="#8C15E9"/>
<path d="M43.7669 665.517L39.6617 650.971H42.4956L45.1163 661.66H45.2512L48.0495 650.971H50.6277L53.4331 661.667H53.5609L56.1816 650.971H59.0154L54.9103 665.517H52.3109L49.399 655.311H49.2853L46.3663 665.517H43.7669ZM60.8289 665.517V654.608H63.3999V665.517H60.8289ZM62.1215 653.059C61.7143 653.059 61.3639 652.924 61.0703 652.655C60.7768 652.38 60.63 652.051 60.63 651.667C60.63 651.279 60.7768 650.95 61.0703 650.68C61.3639 650.406 61.7143 650.268 62.1215 650.268C62.5334 650.268 62.8838 650.406 63.1726 650.68C63.4662 650.95 63.613 651.279 63.613 651.667C63.613 652.051 63.4662 652.38 63.1726 652.655C62.8838 652.924 62.5334 653.059 62.1215 653.059ZM66.1437 665.517V654.608H68.6366V656.426H68.7502C68.9491 655.796 69.29 655.311 69.773 654.97C70.2607 654.624 70.817 654.451 71.442 654.451C71.584 654.451 71.7427 654.459 71.9179 654.473C72.0978 654.482 72.2469 654.499 72.3653 654.522V656.888C72.2564 656.85 72.0836 656.817 71.8468 656.788C71.6148 656.755 71.3899 656.738 71.1721 656.738C70.7034 656.738 70.282 656.84 69.9079 657.044C69.5386 657.243 69.2474 657.52 69.0343 657.875C68.8213 658.23 68.7147 658.639 68.7147 659.103V665.517H66.1437ZM78.5537 665.73C77.46 665.73 76.5154 665.503 75.7199 665.048C74.9292 664.589 74.3208 663.94 73.8946 663.102C73.4685 662.259 73.2554 661.267 73.2554 660.126C73.2554 659.004 73.4685 658.019 73.8946 657.172C74.3255 656.319 74.9268 655.656 75.6986 655.183C76.4704 654.705 77.3771 654.466 78.4188 654.466C79.0911 654.466 79.7256 654.575 80.3222 654.792C80.9235 655.005 81.4538 655.337 81.9131 655.787C82.3771 656.237 82.7417 656.809 83.0068 657.505C83.272 658.197 83.4046 659.021 83.4046 659.977V660.765H74.4628V659.032H80.9401C80.9353 658.54 80.8288 658.102 80.6205 657.719C80.4121 657.33 80.121 657.025 79.7469 656.802C79.3776 656.58 78.9467 656.469 78.4543 656.469C77.9287 656.469 77.4671 656.596 77.0693 656.852C76.6716 657.103 76.3615 657.434 76.1389 657.846C75.9211 658.254 75.8099 658.701 75.8051 659.189V660.701C75.8051 661.336 75.9211 661.88 76.1531 662.335C76.3852 662.785 76.7095 663.13 77.1262 663.372C77.5428 663.609 78.0305 663.727 78.5892 663.727C78.9633 663.727 79.3018 663.675 79.6049 663.571C79.9079 663.462 80.1707 663.303 80.3932 663.095C80.6157 662.887 80.7838 662.629 80.8975 662.321L83.298 662.591C83.1465 663.225 82.8577 663.779 82.4316 664.253C82.0102 664.721 81.4704 665.086 80.8122 665.346C80.1541 665.602 79.4013 665.73 78.5537 665.73ZM94.3018 657.491L91.9581 657.747C91.8918 657.51 91.7758 657.288 91.61 657.079C91.4491 656.871 91.2313 656.703 90.9566 656.575C90.682 656.447 90.3458 656.383 89.9481 656.383C89.4131 656.383 88.9633 656.499 88.5987 656.731C88.2388 656.963 88.0613 657.264 88.066 657.633C88.0613 657.951 88.1773 658.209 88.414 658.407C88.6555 658.606 89.0532 658.77 89.6072 658.897L91.468 659.295C92.5002 659.518 93.2672 659.871 93.7691 660.353C94.2758 660.836 94.5314 661.469 94.5362 662.25C94.5314 662.936 94.3302 663.542 93.9325 664.068C93.5395 664.589 92.9926 664.996 92.2919 665.29C91.5911 665.583 90.7862 665.73 89.8771 665.73C88.5419 665.73 87.467 665.451 86.6527 664.892C85.8383 664.328 85.3529 663.545 85.1967 662.541L87.7038 662.299C87.8174 662.792 88.0589 663.164 88.4282 663.415C88.7975 663.665 89.2781 663.791 89.87 663.791C90.4808 663.791 90.9708 663.665 91.3402 663.415C91.7142 663.164 91.9012 662.853 91.9012 662.484C91.9012 662.172 91.7805 661.914 91.539 661.71C91.3023 661.506 90.933 661.35 90.4311 661.241L88.5703 660.851C87.5239 660.633 86.7497 660.266 86.2478 659.75C85.7459 659.229 85.4974 658.571 85.5021 657.775C85.4974 657.103 85.6796 656.521 86.049 656.028C86.423 655.531 86.9415 655.147 87.6044 654.878C88.272 654.603 89.0414 654.466 89.9126 654.466C91.191 654.466 92.1972 654.738 92.9311 655.282C93.6697 655.827 94.1266 656.563 94.3018 657.491ZM99.3272 659.125V665.517H96.7562V650.971H99.2704V656.461H99.3982C99.6539 655.846 100.049 655.361 100.584 655.005C101.124 654.646 101.811 654.466 102.644 654.466C103.402 654.466 104.062 654.624 104.626 654.942C105.189 655.259 105.625 655.723 105.932 656.334C106.245 656.944 106.401 657.69 106.401 658.571V665.517H103.83V658.969C103.83 658.235 103.641 657.664 103.262 657.257C102.888 656.845 102.362 656.639 101.685 656.639C101.231 656.639 100.823 656.738 100.464 656.937C100.108 657.131 99.8291 657.413 99.6255 657.782C99.4267 658.152 99.3272 658.599 99.3272 659.125ZM112.261 665.737C111.57 665.737 110.947 665.614 110.393 665.368C109.844 665.117 109.408 664.747 109.086 664.26C108.769 663.772 108.61 663.171 108.61 662.456C108.61 661.84 108.724 661.331 108.951 660.929C109.179 660.526 109.489 660.204 109.882 659.963C110.275 659.721 110.717 659.539 111.21 659.416C111.707 659.288 112.221 659.196 112.751 659.139C113.39 659.073 113.909 659.014 114.306 658.961C114.704 658.905 114.993 658.819 115.173 658.706C115.358 658.587 115.45 658.405 115.45 658.159V658.116C115.45 657.581 115.291 657.167 114.974 656.873C114.657 656.58 114.2 656.433 113.603 656.433C112.974 656.433 112.474 656.57 112.105 656.845C111.74 657.12 111.494 657.444 111.366 657.818L108.966 657.477C109.155 656.814 109.467 656.26 109.903 655.815C110.339 655.365 110.871 655.029 111.501 654.807C112.131 654.579 112.827 654.466 113.589 654.466C114.115 654.466 114.638 654.527 115.159 654.65C115.68 654.773 116.155 654.977 116.586 655.261C117.017 655.54 117.363 655.922 117.623 656.405C117.888 656.888 118.021 657.491 118.021 658.216V665.517H115.549V664.018H115.464C115.308 664.321 115.088 664.605 114.804 664.871C114.524 665.131 114.172 665.342 113.745 665.503C113.324 665.659 112.829 665.737 112.261 665.737ZM112.929 663.848C113.445 663.848 113.892 663.746 114.271 663.542C114.65 663.334 114.941 663.059 115.145 662.719C115.353 662.378 115.457 662.006 115.457 661.603V660.318C115.377 660.384 115.239 660.446 115.045 660.503C114.856 660.559 114.643 660.609 114.406 660.652C114.169 660.694 113.935 660.732 113.703 660.765C113.471 660.799 113.27 660.827 113.099 660.851C112.716 660.903 112.372 660.988 112.069 661.106C111.766 661.225 111.527 661.39 111.352 661.603C111.177 661.812 111.089 662.082 111.089 662.413C111.089 662.887 111.262 663.244 111.608 663.486C111.953 663.727 112.394 663.848 112.929 663.848ZM120.706 665.517V654.608H123.199V656.426H123.313C123.512 655.796 123.853 655.311 124.335 654.97C124.823 654.624 125.379 654.451 126.004 654.451C126.147 654.451 126.305 654.459 126.48 654.473C126.66 654.482 126.809 654.499 126.928 654.522V656.888C126.819 656.85 126.646 656.817 126.409 656.788C126.177 656.755 125.952 656.738 125.735 656.738C125.266 656.738 124.844 656.84 124.47 657.044C124.101 657.243 123.81 657.52 123.597 657.875C123.384 658.23 123.277 658.639 123.277 659.103V665.517H120.706ZM131.08 662.094L131.073 658.99H131.484L135.405 654.608H138.409L133.587 659.977H133.054L131.08 662.094ZM128.736 665.517V650.971H131.307V665.517H128.736ZM135.582 665.517L132.031 660.552L133.764 658.741L138.658 665.517H135.582Z" fill="white"/>
<rect x="777.458" y="619.947" width="178.542" height="65.5396" rx="14.4248" fill="#8C15E9"/>
<path d="M832.032 659.717H829.219L834.34 645.171H837.593L842.72 659.717H839.908L836.023 648.154H835.909L832.032 659.717ZM832.124 654.013H839.794V656.13H832.124V654.013ZM844.623 659.717V648.807H847.116V650.626H847.229C847.428 649.996 847.769 649.511 848.252 649.17C848.74 648.824 849.296 648.651 849.921 648.651C850.063 648.651 850.222 648.658 850.397 648.673C850.577 648.682 850.726 648.699 850.844 648.722V651.087C850.735 651.049 850.563 651.016 850.326 650.988C850.094 650.955 849.869 650.938 849.651 650.938C849.182 650.938 848.761 651.04 848.387 651.244C848.018 651.442 847.726 651.719 847.513 652.075C847.3 652.43 847.194 652.839 847.194 653.303V659.717H844.623ZM855.596 659.937C854.905 659.937 854.282 659.814 853.728 659.567C853.179 659.316 852.744 658.947 852.422 658.459C852.104 657.972 851.946 657.37 851.946 656.656C851.946 656.04 852.059 655.531 852.287 655.129C852.514 654.726 852.824 654.404 853.217 654.163C853.61 653.921 854.053 653.739 854.545 653.616C855.042 653.488 855.556 653.396 856.086 653.339C856.726 653.272 857.244 653.213 857.642 653.161C858.039 653.104 858.328 653.019 858.508 652.906C858.693 652.787 858.785 652.605 858.785 652.359V652.316C858.785 651.781 858.627 651.367 858.309 651.073C857.992 650.78 857.535 650.633 856.939 650.633C856.309 650.633 855.809 650.77 855.44 651.045C855.075 651.319 854.829 651.644 854.701 652.018L852.301 651.677C852.49 651.014 852.803 650.46 853.238 650.015C853.674 649.565 854.207 649.229 854.836 649.006C855.466 648.779 856.162 648.665 856.924 648.665C857.45 648.665 857.973 648.727 858.494 648.85C859.015 648.973 859.491 649.177 859.922 649.461C860.352 649.74 860.698 650.121 860.958 650.604C861.224 651.087 861.356 651.691 861.356 652.415V659.717H858.885V658.218H858.799C858.643 658.521 858.423 658.805 858.139 659.07C857.86 659.331 857.507 659.541 857.081 659.702C856.659 659.859 856.164 659.937 855.596 659.937ZM856.264 658.048C856.78 658.048 857.227 657.946 857.606 657.742C857.985 657.534 858.276 657.259 858.48 656.918C858.688 656.577 858.792 656.206 858.792 655.803V654.518C858.712 654.584 858.574 654.646 858.38 654.702C858.191 654.759 857.978 654.809 857.741 654.852C857.504 654.894 857.27 654.932 857.038 654.965C856.806 654.998 856.605 655.027 856.434 655.05C856.051 655.102 855.708 655.188 855.405 655.306C855.101 655.424 854.862 655.59 854.687 655.803C854.512 656.012 854.424 656.281 854.424 656.613C854.424 657.086 854.597 657.444 854.943 657.685C855.288 657.927 855.729 658.048 856.264 658.048ZM868.8 659.93C867.711 659.93 866.776 659.691 865.995 659.212C865.218 658.734 864.619 658.074 864.198 657.231C863.781 656.383 863.573 655.408 863.573 654.305C863.573 653.197 863.786 652.219 864.212 651.371C864.638 650.519 865.239 649.856 866.016 649.383C866.797 648.905 867.72 648.665 868.786 648.665C869.671 648.665 870.455 648.829 871.137 649.156C871.823 649.477 872.37 649.934 872.777 650.526C873.184 651.113 873.416 651.8 873.473 652.586H871.016C870.916 652.06 870.68 651.622 870.306 651.272C869.936 650.917 869.442 650.739 868.821 650.739C868.296 650.739 867.834 650.881 867.436 651.165C867.039 651.445 866.728 651.847 866.506 652.373C866.288 652.898 866.179 653.528 866.179 654.262C866.179 655.005 866.288 655.645 866.506 656.18C866.724 656.71 867.029 657.12 867.422 657.408C867.82 657.692 868.286 657.834 868.821 657.834C869.2 657.834 869.539 657.763 869.837 657.621C870.14 657.475 870.393 657.264 870.597 656.989C870.8 656.715 870.94 656.381 871.016 655.988H873.473C873.412 656.76 873.184 657.444 872.791 658.04C872.398 658.632 871.863 659.096 871.186 659.432C870.509 659.764 869.714 659.93 868.8 659.93ZM878.255 653.325V659.717H875.684V645.171H878.199V650.661H878.326C878.582 650.046 878.977 649.56 879.513 649.205C880.052 648.845 880.739 648.665 881.572 648.665C882.33 648.665 882.99 648.824 883.554 649.141C884.117 649.459 884.553 649.923 884.861 650.533C885.173 651.144 885.329 651.89 885.329 652.771V659.717H882.758V653.168C882.758 652.434 882.569 651.864 882.19 651.457C881.816 651.045 881.29 650.839 880.613 650.839C880.159 650.839 879.752 650.938 879.392 651.137C879.037 651.331 878.757 651.613 878.554 651.982C878.355 652.352 878.255 652.799 878.255 653.325ZM890.621 653.325V659.717H888.05V648.807H890.507V650.661H890.635C890.886 650.05 891.286 649.565 891.836 649.205C892.39 648.845 893.074 648.665 893.888 648.665C894.641 648.665 895.297 648.826 895.855 649.148C896.419 649.47 896.854 649.937 897.162 650.548C897.475 651.158 897.629 651.899 897.624 652.771V659.717H895.053V653.168C895.053 652.439 894.863 651.869 894.485 651.457C894.111 651.045 893.592 650.839 892.929 650.839C892.479 650.839 892.079 650.938 891.729 651.137C891.383 651.331 891.111 651.613 890.912 651.982C890.718 652.352 890.621 652.799 890.621 653.325ZM900.338 659.717V648.807H902.909V659.717H900.338ZM901.63 647.259C901.223 647.259 900.873 647.124 900.579 646.854C900.285 646.58 900.139 646.251 900.139 645.867C900.139 645.479 900.285 645.15 900.579 644.88C900.873 644.605 901.223 644.468 901.63 644.468C902.042 644.468 902.392 644.605 902.681 644.88C902.975 645.15 903.122 645.479 903.122 645.867C903.122 646.251 902.975 646.58 902.681 646.854C902.392 647.124 902.042 647.259 901.63 647.259Z" fill="white"/>
<rect x="777.458" y="444.006" width="178.542" height="65.5396" rx="14.4248" fill="#8C15E9"/>
<path d="M812.032 483.776H809.219L814.34 469.23H817.593L822.72 483.776H819.908L816.023 472.213H815.909L812.032 483.776ZM812.124 478.072H819.794V480.189H812.124V478.072ZM824.701 483.776V472.867H827.272V483.776H824.701ZM825.993 471.318C825.586 471.318 825.236 471.183 824.942 470.913C824.649 470.639 824.502 470.31 824.502 469.926C824.502 469.538 824.649 469.209 824.942 468.939C825.236 468.664 825.586 468.527 825.993 468.527C826.405 468.527 826.756 468.664 827.045 468.939C827.338 469.209 827.485 469.538 827.485 469.926C827.485 470.31 827.338 470.639 827.045 470.913C826.756 471.183 826.405 471.318 825.993 471.318ZM830.016 483.776V472.867H832.509V474.685H832.622C832.821 474.055 833.162 473.57 833.645 473.229C834.133 472.883 834.689 472.71 835.314 472.71C835.456 472.71 835.615 472.717 835.79 472.732C835.97 472.741 836.119 472.758 836.237 472.781V475.146C836.128 475.108 835.956 475.075 835.719 475.047C835.487 475.014 835.262 474.997 835.044 474.997C834.575 474.997 834.154 475.099 833.78 475.303C833.411 475.501 833.119 475.778 832.906 476.134C832.693 476.489 832.587 476.898 832.587 477.362V483.776H830.016ZM842.355 483.989C841.266 483.989 840.33 483.75 839.549 483.271C838.773 482.793 838.174 482.133 837.752 481.29C837.336 480.442 837.127 479.467 837.127 478.364C837.127 477.256 837.34 476.278 837.767 475.43C838.193 474.578 838.794 473.915 839.571 473.442C840.352 472.964 841.275 472.724 842.34 472.724C843.226 472.724 844.009 472.888 844.691 473.215C845.378 473.537 845.925 473.993 846.332 474.585C846.739 475.172 846.971 475.859 847.028 476.645H844.571C844.471 476.119 844.234 475.681 843.86 475.331C843.491 474.976 842.996 474.798 842.376 474.798C841.85 474.798 841.389 474.94 840.991 475.224C840.593 475.504 840.283 475.906 840.061 476.432C839.843 476.957 839.734 477.587 839.734 478.321C839.734 479.064 839.843 479.704 840.061 480.239C840.278 480.769 840.584 481.179 840.977 481.467C841.375 481.751 841.841 481.894 842.376 481.894C842.755 481.894 843.093 481.822 843.392 481.68C843.695 481.534 843.948 481.323 844.152 481.048C844.355 480.774 844.495 480.44 844.571 480.047H847.028C846.966 480.819 846.739 481.503 846.346 482.099C845.953 482.691 845.418 483.155 844.741 483.492C844.064 483.823 843.268 483.989 842.355 483.989ZM849.239 483.776V472.867H851.732V474.685H851.846C852.044 474.055 852.385 473.57 852.868 473.229C853.356 472.883 853.912 472.71 854.537 472.71C854.679 472.71 854.838 472.717 855.013 472.732C855.193 472.741 855.342 472.758 855.461 472.781V475.146C855.352 475.108 855.179 475.075 854.942 475.047C854.71 475.014 854.485 474.997 854.267 474.997C853.799 474.997 853.377 475.099 853.003 475.303C852.634 475.501 852.343 475.778 852.13 476.134C851.917 476.489 851.81 476.898 851.81 477.362V483.776H849.239ZM860.213 483.996C859.521 483.996 858.899 483.873 858.345 483.626C857.796 483.376 857.36 483.006 857.038 482.519C856.721 482.031 856.562 481.43 856.562 480.715C856.562 480.099 856.676 479.59 856.903 479.188C857.13 478.785 857.44 478.463 857.833 478.222C858.226 477.98 858.669 477.798 859.162 477.675C859.659 477.547 860.172 477.455 860.703 477.398C861.342 477.331 861.86 477.272 862.258 477.22C862.656 477.163 862.945 477.078 863.125 476.965C863.309 476.846 863.402 476.664 863.402 476.418V476.375C863.402 475.84 863.243 475.426 862.926 475.132C862.609 474.839 862.152 474.692 861.555 474.692C860.925 474.692 860.426 474.829 860.056 475.104C859.692 475.378 859.446 475.703 859.318 476.077L856.917 475.736C857.107 475.073 857.419 474.519 857.855 474.074C858.29 473.624 858.823 473.288 859.453 473.065C860.082 472.838 860.778 472.724 861.541 472.724C862.066 472.724 862.59 472.786 863.11 472.909C863.631 473.032 864.107 473.236 864.538 473.52C864.969 473.799 865.314 474.18 865.575 474.663C865.84 475.146 865.973 475.75 865.973 476.474V483.776H863.501V482.277H863.416C863.26 482.58 863.039 482.864 862.755 483.129C862.476 483.39 862.123 483.6 861.697 483.761C861.276 483.918 860.781 483.996 860.213 483.996ZM860.88 482.107C861.396 482.107 861.844 482.005 862.223 481.801C862.601 481.593 862.893 481.318 863.096 480.977C863.305 480.636 863.409 480.265 863.409 479.862V478.577C863.328 478.643 863.191 478.705 862.997 478.761C862.807 478.818 862.594 478.868 862.358 478.911C862.121 478.953 861.886 478.991 861.654 479.024C861.422 479.057 861.221 479.086 861.051 479.109C860.667 479.162 860.324 479.247 860.021 479.365C859.718 479.483 859.479 479.649 859.304 479.862C859.128 480.071 859.041 480.34 859.041 480.672C859.041 481.145 859.214 481.503 859.559 481.744C859.905 481.986 860.345 482.107 860.88 482.107ZM873.416 483.989C872.327 483.989 871.392 483.75 870.611 483.271C869.834 482.793 869.235 482.133 868.814 481.29C868.397 480.442 868.189 479.467 868.189 478.364C868.189 477.256 868.402 476.278 868.828 475.43C869.254 474.578 869.856 473.915 870.632 473.442C871.414 472.964 872.337 472.724 873.402 472.724C874.288 472.724 875.071 472.888 875.753 473.215C876.44 473.537 876.986 473.993 877.394 474.585C877.801 475.172 878.033 475.859 878.09 476.645H875.632C875.533 476.119 875.296 475.681 874.922 475.331C874.553 474.976 874.058 474.798 873.438 474.798C872.912 474.798 872.45 474.94 872.053 475.224C871.655 475.504 871.345 475.906 871.122 476.432C870.905 476.957 870.796 477.587 870.796 478.321C870.796 479.064 870.905 479.704 871.122 480.239C871.34 480.769 871.646 481.179 872.039 481.467C872.436 481.751 872.903 481.894 873.438 481.894C873.816 481.894 874.155 481.822 874.453 481.68C874.756 481.534 875.01 481.323 875.213 481.048C875.417 480.774 875.557 480.44 875.632 480.047H878.09C878.028 480.819 877.801 481.503 877.408 482.099C877.015 482.691 876.48 483.155 875.803 483.492C875.126 483.823 874.33 483.989 873.416 483.989ZM882.645 480.352L882.637 477.249H883.049L886.97 472.867H889.974L885.152 478.236H884.619L882.645 480.352ZM880.301 483.776V469.23H882.872V483.776H880.301ZM887.147 483.776L883.596 478.811L885.329 477L890.223 483.776H887.147ZM897.853 476.659V478.776H891.305V476.659H897.853ZM903.228 477.384V483.776H900.657V472.867H903.114V474.72H903.242C903.493 474.109 903.893 473.624 904.443 473.264C904.997 472.904 905.681 472.724 906.495 472.724C907.248 472.724 907.904 472.885 908.462 473.207C909.026 473.529 909.462 473.996 909.769 474.607C910.082 475.217 910.236 475.958 910.231 476.83V483.776H907.66V477.227C907.66 476.498 907.471 475.928 907.092 475.516C906.718 475.104 906.199 474.898 905.536 474.898C905.087 474.898 904.686 474.997 904.336 475.196C903.99 475.39 903.718 475.672 903.519 476.041C903.325 476.411 903.228 476.858 903.228 477.384ZM917.689 488.094C916.766 488.094 915.972 487.968 915.31 487.717C914.647 487.471 914.114 487.14 913.712 486.723C913.309 486.306 913.03 485.845 912.874 485.338L915.189 484.777C915.293 484.99 915.445 485.201 915.643 485.409C915.842 485.622 916.11 485.797 916.446 485.935C916.787 486.077 917.215 486.148 917.731 486.148C918.461 486.148 919.064 485.97 919.543 485.615C920.021 485.265 920.26 484.687 920.26 483.882V481.815H920.132C919.999 482.081 919.805 482.353 919.55 482.632C919.299 482.912 918.965 483.146 918.548 483.335C918.136 483.525 917.618 483.619 916.993 483.619C916.155 483.619 915.395 483.423 914.713 483.03C914.036 482.632 913.496 482.04 913.094 481.254C912.696 480.464 912.497 479.474 912.497 478.286C912.497 477.088 912.696 476.077 913.094 475.253C913.496 474.424 914.038 473.797 914.72 473.371C915.402 472.94 916.162 472.724 917 472.724C917.639 472.724 918.165 472.833 918.577 473.051C918.993 473.264 919.325 473.522 919.571 473.825C919.817 474.124 920.004 474.405 920.132 474.671H920.274V472.867H922.81V483.953C922.81 484.886 922.587 485.658 922.142 486.269C921.697 486.879 921.088 487.336 920.317 487.639C919.545 487.942 918.669 488.094 917.689 488.094ZM917.71 481.602C918.255 481.602 918.719 481.47 919.102 481.205C919.486 480.939 919.777 480.558 919.976 480.061C920.175 479.564 920.274 478.967 920.274 478.271C920.274 477.585 920.175 476.983 919.976 476.467C919.782 475.951 919.493 475.551 919.109 475.267C918.731 474.978 918.264 474.834 917.71 474.834C917.137 474.834 916.659 474.983 916.276 475.281C915.892 475.58 915.603 475.989 915.409 476.51C915.215 477.026 915.118 477.613 915.118 478.271C915.118 478.939 915.215 479.524 915.409 480.026C915.608 480.523 915.899 480.911 916.283 481.19C916.671 481.465 917.147 481.602 917.71 481.602Z" fill="white"/>
<rect x="777.458" y="176.228" width="178.542" height="65.5396" rx="14.4248" fill="#8C15E9"/>
<path d="M821.524 203.661V201.452H833.13V203.661H828.634V215.997H826.02V203.661H821.524ZM838.53 216.21C837.441 216.21 836.505 215.971 835.724 215.493C834.948 215.015 834.349 214.354 833.927 213.512C833.511 212.664 833.302 211.689 833.302 210.585C833.302 209.477 833.515 208.5 833.942 207.652C834.368 206.8 834.969 206.137 835.746 205.664C836.527 205.185 837.45 204.946 838.515 204.946C839.401 204.946 840.184 205.11 840.866 205.436C841.553 205.758 842.1 206.215 842.507 206.807C842.914 207.394 843.146 208.081 843.203 208.867H840.746C840.646 208.341 840.409 207.903 840.035 207.553C839.666 207.198 839.171 207.02 838.551 207.02C838.025 207.02 837.564 207.162 837.166 207.446C836.768 207.726 836.458 208.128 836.236 208.654C836.018 209.179 835.909 209.809 835.909 210.543C835.909 211.286 836.018 211.925 836.236 212.46C836.453 212.991 836.759 213.4 837.152 213.689C837.55 213.973 838.016 214.115 838.551 214.115C838.93 214.115 839.268 214.044 839.567 213.902C839.87 213.755 840.123 213.545 840.327 213.27C840.53 212.995 840.67 212.662 840.746 212.269H843.203C843.141 213.04 842.914 213.725 842.521 214.321C842.128 214.913 841.593 215.377 840.916 215.713C840.239 216.045 839.443 216.21 838.53 216.21ZM845.414 220.088V205.088H847.942V206.892H848.092C848.224 206.627 848.411 206.345 848.653 206.047C848.894 205.744 849.221 205.486 849.633 205.273C850.045 205.055 850.57 204.946 851.21 204.946C852.052 204.946 852.812 205.162 853.489 205.593C854.171 206.019 854.711 206.651 855.109 207.489C855.511 208.322 855.712 209.345 855.712 210.557C855.712 211.755 855.516 212.773 855.123 213.611C854.73 214.449 854.195 215.088 853.518 215.529C852.841 215.969 852.074 216.189 851.217 216.189C850.592 216.189 850.073 216.085 849.661 215.877C849.249 215.668 848.918 215.417 848.667 215.124C848.421 214.825 848.229 214.544 848.092 214.279H847.985V220.088H845.414ZM847.935 210.543C847.935 211.248 848.035 211.866 848.234 212.397C848.437 212.927 848.728 213.341 849.107 213.639C849.491 213.933 849.955 214.08 850.499 214.08C851.067 214.08 851.543 213.928 851.927 213.625C852.31 213.317 852.599 212.898 852.793 212.368C852.992 211.833 853.092 211.225 853.092 210.543C853.092 209.866 852.995 209.264 852.8 208.739C852.606 208.213 852.317 207.801 851.934 207.503C851.55 207.205 851.072 207.056 850.499 207.056C849.95 207.056 849.484 207.2 849.1 207.489C848.717 207.778 848.425 208.183 848.227 208.703C848.032 209.224 847.935 209.837 847.935 210.543ZM862.062 216.189C861.205 216.189 860.438 215.969 859.761 215.529C859.084 215.088 858.549 214.449 858.156 213.611C857.763 212.773 857.567 211.755 857.567 210.557C857.567 209.345 857.766 208.322 858.163 207.489C858.566 206.651 859.108 206.019 859.79 205.593C860.471 205.162 861.231 204.946 862.069 204.946C862.709 204.946 863.234 205.055 863.646 205.273C864.058 205.486 864.385 205.744 864.626 206.047C864.868 206.345 865.055 206.627 865.187 206.892H865.294V201.452H867.872V215.997H865.344V214.279H865.187C865.055 214.544 864.863 214.825 864.612 215.124C864.361 215.417 864.03 215.668 863.618 215.877C863.206 216.085 862.687 216.189 862.062 216.189ZM862.78 214.08C863.324 214.08 863.788 213.933 864.172 213.639C864.555 213.341 864.846 212.927 865.045 212.397C865.244 211.866 865.344 211.248 865.344 210.543C865.344 209.837 865.244 209.224 865.045 208.703C864.851 208.183 864.562 207.778 864.179 207.489C863.8 207.2 863.334 207.056 862.78 207.056C862.207 207.056 861.729 207.205 861.345 207.503C860.962 207.801 860.673 208.213 860.479 208.739C860.284 209.264 860.187 209.866 860.187 210.543C860.187 211.225 860.284 211.833 860.479 212.368C860.677 212.898 860.969 213.317 861.352 213.625C861.74 213.928 862.216 214.08 862.78 214.08ZM877.665 211.409V205.088H880.236V215.997H877.743V214.058H877.629C877.383 214.669 876.978 215.169 876.415 215.557C875.856 215.945 875.167 216.139 874.348 216.139C873.633 216.139 873.001 215.981 872.452 215.664C871.907 215.342 871.481 214.875 871.173 214.264C870.866 213.649 870.712 212.906 870.712 212.034V205.088H873.283V211.637C873.283 212.328 873.472 212.877 873.851 213.284C874.23 213.691 874.727 213.895 875.342 213.895C875.721 213.895 876.088 213.803 876.443 213.618C876.798 213.433 877.09 213.159 877.317 212.794C877.549 212.425 877.665 211.963 877.665 211.409ZM882.98 215.997V205.088H885.437V206.942H885.565C885.792 206.317 886.169 205.829 886.694 205.479C887.22 205.124 887.847 204.946 888.576 204.946C889.315 204.946 889.938 205.126 890.444 205.486C890.956 205.841 891.315 206.326 891.524 206.942H891.637C891.879 206.336 892.286 205.853 892.859 205.493C893.437 205.129 894.121 204.946 894.912 204.946C895.915 204.946 896.734 205.263 897.369 205.898C898.003 206.532 898.321 207.458 898.321 208.675V215.997H895.742V209.073C895.742 208.396 895.563 207.901 895.203 207.588C894.843 207.271 894.403 207.112 893.882 207.112C893.261 207.112 892.776 207.307 892.426 207.695C892.08 208.078 891.907 208.578 891.907 209.193V215.997H889.386V208.966C889.386 208.403 889.216 207.953 888.875 207.617C888.538 207.281 888.098 207.112 887.554 207.112C887.184 207.112 886.848 207.207 886.545 207.397C886.242 207.581 886.001 207.844 885.821 208.185C885.641 208.521 885.551 208.914 885.551 209.364V215.997H882.98ZM901.029 220.088V205.088H903.557V206.892H903.706C903.839 206.627 904.026 206.345 904.268 206.047C904.509 205.744 904.836 205.486 905.248 205.273C905.66 205.055 906.185 204.946 906.824 204.946C907.667 204.946 908.427 205.162 909.104 205.593C909.786 206.019 910.326 206.651 910.724 207.489C911.126 208.322 911.327 209.345 911.327 210.557C911.327 211.755 911.131 212.773 910.738 213.611C910.345 214.449 909.81 215.088 909.133 215.529C908.456 215.969 907.688 216.189 906.831 216.189C906.206 216.189 905.688 216.085 905.276 215.877C904.864 215.668 904.533 215.417 904.282 215.124C904.036 214.825 903.844 214.544 903.706 214.279H903.6V220.088H901.029ZM903.55 210.543C903.55 211.248 903.65 211.866 903.849 212.397C904.052 212.927 904.343 213.341 904.722 213.639C905.106 213.933 905.57 214.08 906.114 214.08C906.682 214.08 907.158 213.928 907.542 213.625C907.925 213.317 908.214 212.898 908.408 212.368C908.607 211.833 908.706 211.225 908.706 210.543C908.706 209.866 908.609 209.264 908.415 208.739C908.221 208.213 907.932 207.801 907.549 207.503C907.165 207.205 906.687 207.056 906.114 207.056C905.565 207.056 905.099 207.2 904.715 207.489C904.331 207.778 904.04 208.183 903.841 208.703C903.647 209.224 903.55 209.837 903.55 210.543Z" fill="white"/>
<rect x="777.458" y="2.22003" width="178.542" height="65.5396" rx="14.4248" fill="#8C15E9"/>
<path d="M851.117 27.4444V41.9898H848.773L841.919 32.0822H841.799V41.9898H839.164V27.4444H841.522L848.368 37.3591H848.496V27.4444H851.117ZM853.974 41.9898V31.0807H856.432V32.9344H856.559C856.787 32.3094 857.163 31.8217 857.689 31.4714C858.214 31.1162 858.842 30.9387 859.571 30.9387C860.309 30.9387 860.932 31.1186 861.439 31.4785C861.95 31.8336 862.31 32.3189 862.518 32.9344H862.632C862.873 32.3284 863.281 31.8454 863.854 31.4856C864.431 31.121 865.115 30.9387 865.906 30.9387C866.91 30.9387 867.729 31.2559 868.363 31.8904C868.998 32.5249 869.315 33.4505 869.315 34.6674V41.9898H866.737V35.0651C866.737 34.388 866.557 33.8932 866.197 33.5807C865.837 33.2635 865.397 33.1049 864.876 33.1049C864.256 33.1049 863.771 33.299 863.42 33.6873C863.075 34.0708 862.902 34.5703 862.902 35.1858V41.9898H860.38V34.9586C860.38 34.3951 860.21 33.9453 859.869 33.6091C859.533 33.273 859.093 33.1049 858.548 33.1049C858.179 33.1049 857.843 33.1996 857.54 33.389C857.237 33.5736 856.995 33.8364 856.815 34.1773C856.635 34.5135 856.545 34.9065 856.545 35.3563V41.9898H853.974ZM875.163 42.21C874.471 42.21 873.849 42.0869 873.295 41.8407C872.746 41.5897 872.31 41.2204 871.988 40.7327C871.671 40.245 871.512 39.6437 871.512 38.9287C871.512 38.3132 871.626 37.8042 871.853 37.4018C872.08 36.9993 872.39 36.6773 872.783 36.4358C873.176 36.1944 873.619 36.0121 874.112 35.889C874.609 35.7611 875.122 35.6688 875.653 35.612C876.292 35.5457 876.81 35.4865 877.208 35.4344C877.606 35.3776 877.895 35.2924 878.075 35.1787C878.259 35.0604 878.352 34.8781 878.352 34.6319V34.5893C878.352 34.0542 878.193 33.6399 877.876 33.3464C877.559 33.0528 877.102 32.906 876.505 32.906C875.875 32.906 875.376 33.0433 875.006 33.3179C874.642 33.5926 874.396 33.9169 874.268 34.291L871.867 33.95C872.057 33.2872 872.369 32.7332 872.805 32.2881C873.24 31.8383 873.773 31.5021 874.403 31.2796C875.032 31.0523 875.728 30.9387 876.491 30.9387C877.016 30.9387 877.54 31.0002 878.06 31.1233C878.581 31.2465 879.057 31.45 879.488 31.7341C879.919 32.0135 880.264 32.3947 880.525 32.8776C880.79 33.3606 880.923 33.9643 880.923 34.6887V41.9898H878.451V40.4912H878.366C878.21 40.7943 877.989 41.0784 877.705 41.3435C877.426 41.6039 877.073 41.8146 876.647 41.9756C876.226 42.1319 875.731 42.21 875.163 42.21ZM875.83 40.3208C876.346 40.3208 876.794 40.219 877.173 40.0154C877.551 39.8071 877.843 39.5324 878.046 39.1915C878.255 38.8506 878.359 38.4789 878.359 38.0765V36.791C878.278 36.8572 878.141 36.9188 877.947 36.9756C877.757 37.0324 877.544 37.0822 877.308 37.1248C877.071 37.1674 876.836 37.2053 876.604 37.2384C876.372 37.2715 876.171 37.3 876.001 37.3236C875.617 37.3757 875.274 37.4609 874.971 37.5793C874.668 37.6977 874.429 37.8634 874.254 38.0765C874.078 38.2848 873.991 38.5547 873.991 38.8861C873.991 39.3596 874.164 39.7171 874.509 39.9586C874.855 40.2 875.295 40.3208 875.83 40.3208ZM883.608 46.0807V31.0807H886.136V32.8847H886.285C886.418 32.6196 886.605 32.3378 886.846 32.0395C887.088 31.7365 887.415 31.4785 887.827 31.2654C888.239 31.0476 888.764 30.9387 889.403 30.9387C890.246 30.9387 891.006 31.1541 891.683 31.585C892.365 32.0111 892.905 32.6432 893.302 33.4813C893.705 34.3146 893.906 35.3374 893.906 36.5495C893.906 37.7474 893.71 38.7654 893.317 39.6035C892.924 40.4415 892.389 41.0807 891.712 41.5211C891.034 41.9614 890.267 42.1816 889.41 42.1816C888.785 42.1816 888.267 42.0774 887.855 41.8691C887.443 41.6608 887.112 41.4098 886.861 41.1162C886.614 40.8179 886.423 40.5362 886.285 40.2711H886.179V46.0807H883.608ZM886.129 36.5353C886.129 37.2408 886.229 37.8587 886.427 38.389C886.631 38.9193 886.922 39.3336 887.301 39.6319C887.685 39.9254 888.149 40.0722 888.693 40.0722C889.261 40.0722 889.737 39.9207 890.121 39.6177C890.504 39.3099 890.793 38.8909 890.987 38.3606C891.186 37.8255 891.285 37.2171 891.285 36.5353C891.285 35.8582 891.188 35.2569 890.994 34.7313C890.8 34.2057 890.511 33.7938 890.128 33.4955C889.744 33.1972 889.266 33.0481 888.693 33.0481C888.144 33.0481 887.677 33.1925 887.294 33.4813C886.91 33.7701 886.619 34.175 886.42 34.6958C886.226 35.2166 886.129 35.8298 886.129 36.5353Z" fill="white"/>
<line y1="-1" x2="128.846" y2="-1" transform="matrix(-0.855566 -0.517693 0.517912 -0.855434 375.191 99.8576)" stroke="#22DDD2" stroke-width="2" stroke-dasharray="10 10"/>
<line y1="-1" x2="90.2084" y2="-1" transform="matrix(-0.857558 -0.514387 0.514605 -0.857427 256.252 253.564)" stroke="#22DDD2" stroke-width="2" stroke-dasharray="10 10"/>
<line y1="-1" x2="67.8893" y2="-1" transform="matrix(-0.811884 0.583818 -0.58404 -0.811725 234.011 437.239)" stroke="#22DDD2" stroke-width="2" stroke-dasharray="10 10"/>
<line y1="-1" x2="129.349" y2="-1" transform="matrix(-0.852239 0.523153 -0.523373 -0.852104 376.158 586.112)" stroke="#22DDD2" stroke-width="2" stroke-dasharray="10 10"/>
<line y1="-1" x2="132.356" y2="-1" transform="matrix(0.884021 0.467447 -0.467657 0.88391 575.357 590.946)" stroke="#22DDD2" stroke-width="2" stroke-dasharray="10 10"/>
<line x1="692.363" y1="651.815" x2="777.458" y2="651.815" stroke="#22DDD2" stroke-width="2" stroke-dasharray="10 10"/>
<line y1="-1" x2="64.9761" y2="-1" transform="matrix(0.803639 0.595116 -0.595339 0.803475 725.24 438.206)" stroke="#22DDD2" stroke-width="2" stroke-dasharray="10 10"/>
<line y1="-1" x2="70.8148" y2="-1" transform="matrix(0.81931 -0.573352 0.573573 0.819154 720.406 249.697)" stroke="#22DDD2" stroke-width="2" stroke-dasharray="10 10"/>
<line y1="-1" x2="136.486" y2="-1" transform="matrix(0.864355 -0.502881 0.503098 0.864229 576.324 102.758)" stroke="#22DDD2" stroke-width="2" stroke-dasharray="10 10"/>
<line x1="694.297" y1="33.1214" x2="777.458" y2="33.1214" stroke="#22DDD2" stroke-width="2" stroke-dasharray="10 10"/>
<line x1="265.922" y1="654.782" x2="178.893" y2="654.782" stroke="#22DDD2" stroke-width="2" stroke-dasharray="10 10"/>
<line x1="264.954" y1="34.1547" x2="179.86" y2="34.1547" stroke="#22DDD2" stroke-width="2" stroke-dasharray="10 10"/>
<ellipse cx="480.593" cy="345.402" rx="120.873" ry="120.839" fill="#17072B"/>
<path d="M554.53 422.786L403.534 271.835L407.005 268.365L557.999 419.317L554.53 422.786Z" fill="#8C15E9"/>
<path d="M407.005 422.786L403.534 419.317L554.53 268.365L557.999 271.835L407.005 422.786Z" fill="#8C15E9"/>
<path d="M560.89 274.725C563.446 272.171 563.446 268.029 560.89 265.475C558.336 262.921 554.192 262.921 551.638 265.475C549.083 268.029 549.083 272.171 551.638 274.725C554.192 277.28 558.336 277.28 560.89 274.725Z" fill="#8C15E9"/>
<path d="M409.896 425.676C412.451 423.122 412.451 418.98 409.896 416.426C407.341 413.872 403.198 413.872 400.643 416.426C398.088 418.98 398.088 423.122 400.643 425.676C403.198 428.23 407.341 428.23 409.896 425.676Z" fill="#8C15E9"/>
<path d="M551.638 425.676C554.192 428.23 558.336 428.23 560.89 425.676C563.446 423.122 563.446 418.98 560.89 416.426C558.336 413.872 554.192 413.872 551.638 416.426C549.083 418.98 549.083 423.122 551.638 425.676Z" fill="#8C15E9"/>
<path d="M400.643 274.725C403.198 277.28 407.341 277.28 409.896 274.725C412.451 272.171 412.451 268.029 409.896 265.475C407.341 262.921 403.198 262.921 400.643 265.475C398.088 268.029 398.088 272.171 400.643 274.725Z" fill="#8C15E9"/>
<path d="M587.535 348.028H373.997V343.123H587.535V348.028Z" fill="#8C15E9"/>
<path d="M483.22 452.313H478.313V238.837H483.22V452.313Z" fill="#8C15E9"/>
<path d="M487.31 238.837C487.31 235.225 484.381 232.297 480.767 232.297C477.153 232.297 474.223 235.225 474.223 238.837C474.223 242.45 477.153 245.378 480.767 245.378C484.381 245.378 487.31 242.45 487.31 238.837Z" fill="#8C15E9"/>
<path d="M487.31 452.314C487.31 448.701 484.381 445.773 480.767 445.773C477.153 445.773 474.223 448.701 474.223 452.314C474.223 455.926 477.153 458.854 480.767 458.854C484.381 458.854 487.31 455.926 487.31 452.314Z" fill="#8C15E9"/>
<path d="M587.536 352.117C591.149 352.117 594.078 349.189 594.078 345.576C594.078 341.963 591.149 339.034 587.536 339.034C583.922 339.034 580.993 341.963 580.993 345.576C580.993 349.189 583.922 352.117 587.536 352.117Z" fill="#8C15E9"/>
<path d="M373.997 352.117C377.611 352.117 380.54 349.189 380.54 345.576C380.54 341.963 377.611 339.034 373.997 339.034C370.385 339.034 367.455 341.963 367.455 345.576C367.455 349.189 370.385 352.117 373.997 352.117Z" fill="#8C15E9"/>
<path d="M480.774 418.346C566.437 375.254 552.077 295.378 552.077 295.378L480.768 272.807V272.806L480.767 272.807L480.765 272.806V272.807L409.456 295.378C409.456 295.378 395.097 375.254 480.759 418.346" fill="#2E73EA"/>
<path d="M545.737 345.862C547.776 345.686 549.837 345.577 551.923 345.577H543.059C507.948 341.213 480.767 311.309 480.767 275.042V274.472C480.767 313.743 448.91 345.577 409.611 345.577C448.91 345.577 480.767 377.411 480.767 416.679C480.767 380.413 507.948 350.508 543.059 346.145H551.923C549.837 346.145 547.776 346.037 545.737 345.862Z" fill="#22DDD2"/>
</svg>
