<svg width="956" height="692" viewBox="0 0 956 692" fill="none" xmlns="http://www.w3.org/2000/svg">
<path d="M381.711 98.3018L430.309 133.692L398.399 141.909L369.873 154.96L381.711 98.3018Z" fill="#22DDD2"/>
<path d="M235.859 242.886L295.256 233.557L278.504 261.925L267.563 291.318L235.859 242.886Z" fill="#22DDD2"/>
<path d="M232.471 437.488L267.872 388.904L276.091 420.805L289.145 449.323L232.471 437.488Z" fill="#22DDD2"/>
<path d="M377.081 590.389L367.749 531.01L396.125 547.757L425.527 558.694L377.081 590.389Z" fill="#22DDD2"/>
<path d="M575.607 590.876L527.008 555.486L558.919 547.269L587.445 534.218L575.607 590.876Z" fill="#22DDD2"/>
<path d="M727.585 438.664L668.188 447.994L684.94 419.626L695.881 390.232L727.585 438.664Z" fill="#22DDD2"/>
<path d="M721.303 247.929L685.902 296.514L677.683 264.613L664.628 236.095L721.303 247.929Z" fill="#22DDD2"/>
<path d="M576.783 100.739L586.116 160.118L557.739 143.371L528.338 132.434L576.783 100.739Z" fill="#22DDD2"/>
<path d="M329.26 190.245L341.346 178.161L353.917 167.044L372.29 153.027L392.597 143.843L410.003 138.043L429.827 133.209L452.55 130.792L474.308 128.375L476.241 220.213L465.121 220.696L452.55 222.146L440.946 225.53L429.826 230.363L420.156 234.713L410.003 240.514L401.783 246.314L394.047 253.081L329.26 190.245Z" fill="#2E73EA"/>
<path d="M483.706 129.645L500.8 129.644L517.552 130.67L540.458 133.746L561.313 141.607L577.723 149.81L595.16 160.405L612.937 174.76L630.032 188.432L566.441 254.737L558.236 247.218L548.321 239.357L537.723 233.547L526.442 229.104L516.526 225.344L505.244 222.268L495.33 220.559L485.073 219.875L483.706 129.645Z" fill="#2E73EA"/>
<path d="M636.471 196.894L648.558 208.977L659.679 221.545L673.7 239.912L682.886 260.213L688.688 277.614L693.523 297.432L695.941 320.149L698.358 341.9L606.494 343.833L606.011 332.716L604.56 320.149L601.176 308.548L596.341 297.432L591.989 287.764L586.188 277.614L580.386 269.397L573.617 261.663L636.471 196.894Z" fill="#2E73EA"/>
<path d="M261.873 342.539L261.872 325.45L262.898 308.703L265.975 285.803L273.838 264.955L282.043 248.549L292.642 231.118L307.001 213.345L320.677 196.256L387.001 259.828L379.48 268.031L371.616 277.942L365.804 288.538L361.36 299.816L357.599 309.728L354.522 321.007L352.813 330.919L352.129 341.172L261.873 342.539Z" fill="#2E73EA"/>
<path d="M325.119 496.092L313.032 484.009L301.911 471.442L287.89 453.075L278.704 432.774L272.902 415.373L268.067 395.555L265.649 372.838L263.232 351.086L355.096 349.153L355.579 360.271L357.03 372.838L360.414 384.438L365.249 395.555L369.601 405.223L375.403 415.373L381.204 423.59L387.973 431.324L325.119 496.092Z" fill="#2E73EA"/>
<path d="M474.828 563.497L457.735 563.497L440.983 562.472L418.077 559.395L397.222 551.535L380.811 543.332L363.375 532.736L345.598 518.382L328.503 504.71L392.094 438.404L400.299 445.924L410.213 453.785L420.812 459.595L432.093 464.038L442.008 467.798L453.29 470.874L463.205 472.583L473.461 473.266L474.828 563.497Z" fill="#2E73EA"/>
<path d="M631.327 501.235L619.24 513.319L606.67 524.436L588.297 538.453L567.99 547.637L550.584 553.437L530.76 558.271L508.037 560.688L486.279 563.104L484.346 471.267L495.466 470.784L508.037 469.334L519.641 465.95L530.76 461.117L540.431 456.766L550.584 450.966L558.804 445.166L566.54 438.399L631.327 501.235Z" fill="#2E73EA"/>
<path d="M698.751 348.514L698.751 365.603L697.725 382.35L694.648 405.25L686.785 426.099L678.58 442.504L667.981 459.936L653.623 477.708L639.947 494.797L573.622 431.225L581.144 423.022L589.007 413.111L594.819 402.515L599.263 391.237L603.024 381.325L606.101 370.046L606.101 359.902L606.101 350.718L698.751 348.514Z" fill="#2E73EA"/>
<rect y="0.286621" width="184.638" height="67.7966" rx="14.4248" fill="#8C15E9"/>
<path d="M52.7535 41.1849V26.6395H55.3885V32.7972H62.1285V26.6395H64.7706V41.1849H62.1285V35.006H55.3885V41.1849H52.7535ZM72.4522 41.398C71.3585 41.398 70.4139 41.1707 69.6184 40.7162C68.8277 40.2569 68.2193 39.6082 67.7931 38.7702C67.367 37.9274 67.1539 36.9354 67.1539 35.7943C67.1539 34.6722 67.367 33.6873 67.7931 32.8398C68.224 31.9875 68.8253 31.3246 69.5971 30.8511C70.3689 30.3729 71.2756 30.1338 72.3173 30.1338C72.9896 30.1338 73.6241 30.2427 74.2207 30.4605C74.822 30.6736 75.3523 31.005 75.8116 31.4548C76.2756 31.9046 76.6402 32.4775 76.9054 33.1736C77.1705 33.8649 77.3031 34.6887 77.3031 35.6452V36.4335H68.3613V34.7006H74.8386C74.8339 34.2081 74.7273 33.7702 74.519 33.3866C74.3107 32.9984 74.0195 32.693 73.6454 32.4704C73.2761 32.2479 72.8452 32.1366 72.3528 32.1366C71.8272 32.1366 71.3656 32.2645 70.9679 32.5202C70.5701 32.7711 70.26 33.1025 70.0375 33.5145C69.8197 33.9217 69.7084 34.3691 69.7036 34.8568V36.3696C69.7036 37.0041 69.8197 37.5486 70.0517 38.0031C70.2837 38.4529 70.608 38.7986 71.0247 39.0401C71.4413 39.2768 71.929 39.3952 72.4877 39.3952C72.8618 39.3952 73.2003 39.3431 73.5034 39.2389C73.8064 39.13 74.0692 38.9714 74.2917 38.7631C74.5143 38.5547 74.6823 38.2967 74.796 37.9889L77.1965 38.2588C77.045 38.8933 76.7562 39.4472 76.3301 39.9207C75.9087 40.3895 75.3689 40.7541 74.7108 41.0145C74.0526 41.2702 73.2998 41.398 72.4522 41.398ZM82.7174 41.4051C82.0261 41.4051 81.4034 41.282 80.8495 41.0358C80.3002 40.7848 79.8646 40.4155 79.5426 39.9278C79.2254 39.4401 79.0668 38.8388 79.0668 38.1239C79.0668 37.5083 79.1804 36.9993 79.4077 36.5969C79.635 36.1944 79.9451 35.8724 80.3381 35.631C80.7311 35.3895 81.1738 35.2072 81.6662 35.0841C82.1634 34.9562 82.6771 34.8639 83.2074 34.8071C83.8466 34.7408 84.3651 34.6816 84.7628 34.6295C85.1605 34.5727 85.4494 34.4875 85.6293 34.3739C85.8139 34.2555 85.9063 34.0732 85.9063 33.827V33.7844C85.9063 33.2493 85.7477 32.835 85.4304 32.5415C85.1132 32.2479 84.6563 32.1011 84.0597 32.1011C83.43 32.1011 82.9304 32.2384 82.5611 32.5131C82.1965 32.7877 81.9503 33.112 81.8225 33.4861L79.4219 33.1452C79.6113 32.4823 79.9238 31.9283 80.3594 31.4832C80.795 31.0334 81.3277 30.6972 81.9574 30.4747C82.5871 30.2474 83.2832 30.1338 84.0455 30.1338C84.5711 30.1338 85.0943 30.1954 85.6151 30.3185C86.1359 30.4416 86.6118 30.6452 87.0426 30.9293C87.4735 31.2086 87.8192 31.5898 88.0796 32.0727C88.3447 32.5557 88.4773 33.1594 88.4773 33.8838V41.1849H86.0057V39.6864H85.9205C85.7642 39.9894 85.5441 40.2735 85.26 40.5386C84.9806 40.799 84.6279 41.0097 84.2017 41.1707C83.7803 41.327 83.2855 41.4051 82.7174 41.4051ZM83.385 39.5159C83.9011 39.5159 84.3485 39.4141 84.7273 39.2105C85.1061 39.0022 85.3973 38.7276 85.6009 38.3866C85.8092 38.0457 85.9134 37.674 85.9134 37.2716V35.9861C85.8329 36.0524 85.6956 36.1139 85.5014 36.1707C85.3121 36.2275 85.099 36.2773 84.8622 36.3199C84.6255 36.3625 84.3911 36.4004 84.1591 36.4335C83.9271 36.4667 83.7259 36.4951 83.5554 36.5187C83.1719 36.5708 82.8286 36.6561 82.5256 36.7744C82.2226 36.8928 81.9835 37.0585 81.8083 37.2716C81.6331 37.4799 81.5455 37.7498 81.5455 38.0812C81.5455 38.5547 81.7183 38.9122 82.0639 39.1537C82.4096 39.3952 82.8499 39.5159 83.385 39.5159ZM95.2108 41.3767C94.3538 41.3767 93.5868 41.1565 92.9097 40.7162C92.2326 40.2758 91.6976 39.6366 91.3046 38.7986C90.9116 37.9605 90.7151 36.9425 90.7151 35.7446C90.7151 34.5325 90.9139 33.5097 91.3117 32.6764C91.7141 31.8383 92.2563 31.2062 92.9381 30.7801C93.6199 30.3492 94.3799 30.1338 95.2179 30.1338C95.8571 30.1338 96.3827 30.2427 96.7946 30.4605C97.2066 30.6736 97.5333 30.9316 97.7747 31.2347C98.0162 31.5329 98.2032 31.8147 98.3358 32.0798H98.4424V26.6395H101.02V41.1849H98.4921V39.4662H98.3358C98.2032 39.7313 98.0115 40.0131 97.7605 40.3114C97.5096 40.6049 97.1782 40.8559 96.7662 41.0642C96.3543 41.2725 95.8358 41.3767 95.2108 41.3767ZM95.9282 39.2673C96.4727 39.2673 96.9367 39.1205 97.3202 38.827C97.7037 38.5287 97.9949 38.1144 98.1938 37.5841C98.3926 37.0538 98.4921 36.4359 98.4921 35.7304C98.4921 35.0249 98.3926 34.4117 98.1938 33.8909C97.9996 33.3701 97.7108 32.9652 97.3273 32.6764C96.9485 32.3876 96.4821 32.2432 95.9282 32.2432C95.3552 32.2432 94.877 32.3923 94.4935 32.6906C94.11 32.9889 93.8211 33.4008 93.627 33.9264C93.4329 34.452 93.3358 35.0533 93.3358 35.7304C93.3358 36.4122 93.4329 37.0206 93.627 37.5557C93.8259 38.086 94.1171 38.505 94.5006 38.8128C94.8889 39.1158 95.3647 39.2673 95.9282 39.2673ZM103.86 41.1849V30.2758H106.431V41.1849H103.86ZM105.153 28.7276C104.746 28.7276 104.395 28.5926 104.102 28.3227C103.808 28.0481 103.661 27.719 103.661 27.3355C103.661 26.9472 103.808 26.6182 104.102 26.3483C104.395 26.0737 104.746 25.9364 105.153 25.9364C105.565 25.9364 105.915 26.0737 106.204 26.3483C106.497 26.6182 106.644 26.9472 106.644 27.3355C106.644 27.719 106.497 28.0481 106.204 28.3227C105.915 28.5926 105.565 28.7276 105.153 28.7276ZM111.746 34.7929V41.1849H109.175V30.2758H111.632V32.1295H111.76C112.011 31.5187 112.411 31.0334 112.961 30.6736C113.515 30.3137 114.199 30.1338 115.013 30.1338C115.766 30.1338 116.422 30.2948 116.98 30.6168C117.544 30.9387 117.979 31.4051 118.287 32.0159C118.6 32.6267 118.754 33.3677 118.749 34.2389V41.1849H116.178V34.6366C116.178 33.9075 115.988 33.3369 115.61 32.925C115.236 32.5131 114.717 32.3071 114.054 32.3071C113.604 32.3071 113.204 32.4065 112.854 32.6054C112.508 32.7995 112.236 33.0812 112.037 33.4506C111.843 33.8199 111.746 34.2673 111.746 34.7929ZM126.207 45.5031C125.284 45.5031 124.49 45.3776 123.828 45.1267C123.165 44.8805 122.632 44.549 122.23 44.1324C121.827 43.7157 121.548 43.2541 121.392 42.7474L123.707 42.1864C123.811 42.3994 123.963 42.6101 124.161 42.8185C124.36 43.0315 124.628 43.2067 124.964 43.344C125.305 43.4861 125.733 43.5571 126.249 43.5571C126.979 43.5571 127.582 43.3795 128.061 43.0244C128.539 42.674 128.778 42.0964 128.778 41.2915V39.2247H128.65C128.517 39.4899 128.323 39.7621 128.068 40.0415C127.817 40.3208 127.483 40.5552 127.066 40.7446C126.654 40.934 126.136 41.0287 125.511 41.0287C124.673 41.0287 123.913 40.8322 123.231 40.4392C122.554 40.0415 122.014 39.4496 121.612 38.6636C121.214 37.8729 121.015 36.8833 121.015 35.6949C121.015 34.497 121.214 33.4861 121.612 32.6622C122.014 31.8336 122.556 31.2062 123.238 30.7801C123.92 30.3492 124.68 30.1338 125.518 30.1338C126.157 30.1338 126.683 30.2427 127.095 30.4605C127.511 30.6736 127.843 30.9316 128.089 31.2347C128.335 31.5329 128.522 31.8147 128.65 32.0798H128.792V30.2758H131.328V41.3625C131.328 42.2953 131.105 43.067 130.66 43.6778C130.215 44.2886 129.606 44.7455 128.835 45.0486C128.063 45.3516 127.187 45.5031 126.207 45.5031ZM126.228 39.0116C126.773 39.0116 127.237 38.8791 127.62 38.6139C128.004 38.3488 128.295 37.9676 128.494 37.4704C128.693 36.9733 128.792 36.3767 128.792 35.6807C128.792 34.9941 128.693 34.3928 128.494 33.8767C128.3 33.3606 128.011 32.9605 127.627 32.6764C127.249 32.3876 126.782 32.2432 126.228 32.2432C125.655 32.2432 125.177 32.3923 124.793 32.6906C124.41 32.9889 124.121 33.3985 123.927 33.9193C123.733 34.4354 123.636 35.0225 123.636 35.6807C123.636 36.3483 123.733 36.933 123.927 37.4349C124.126 37.9321 124.417 38.3204 124.801 38.5997C125.189 38.8743 125.665 39.0116 126.228 39.0116Z" fill="white"/>
<rect y="171.394" width="178.542" height="65.5396" rx="14.4248" fill="#8C15E9"/>
<path d="M49.7058 211.164V196.618H52.3407V202.776H59.0808V196.618H61.7228V211.164H59.0808V204.985H52.3407V211.164H49.7058ZM69.4045 211.377C68.3107 211.377 67.3661 211.15 66.5707 210.695C65.78 210.236 65.1715 209.587 64.7454 208.749C64.3193 207.906 64.1062 206.914 64.1062 205.773C64.1062 204.651 64.3193 203.666 64.7454 202.819C65.1763 201.966 65.7776 201.304 66.5494 200.83C67.3212 200.352 68.2279 200.113 69.2696 200.113C69.9419 200.113 70.5764 200.222 71.173 200.439C71.7743 200.652 72.3046 200.984 72.7639 201.434C73.2279 201.884 73.5925 202.456 73.8576 203.152C74.1228 203.844 74.2554 204.668 74.2554 205.624V206.412H65.3136V204.679H71.7909C71.7861 204.187 71.6796 203.749 71.4713 203.366C71.2629 202.977 70.9717 202.672 70.5977 202.449C70.2284 202.227 69.7975 202.116 69.3051 202.116C68.7795 202.116 68.3179 202.243 67.9201 202.499C67.5224 202.75 67.2123 203.081 66.9897 203.493C66.7719 203.901 66.6607 204.348 66.6559 204.836V206.348C66.6559 206.983 66.7719 207.527 67.0039 207.982C67.2359 208.432 67.5603 208.777 67.9769 209.019C68.3936 209.256 68.8813 209.374 69.44 209.374C69.8141 209.374 70.1526 209.322 70.4556 209.218C70.7587 209.109 71.0215 208.95 71.244 208.742C71.4665 208.534 71.6346 208.276 71.7482 207.968L74.1488 208.238C73.9973 208.872 73.7085 209.426 73.2823 209.9C72.8609 210.368 72.3212 210.733 71.663 210.993C71.0049 211.249 70.252 211.377 69.4045 211.377ZM79.6696 211.384C78.9783 211.384 78.3557 211.261 77.8017 211.015C77.2525 210.764 76.8169 210.394 76.4949 209.907C76.1777 209.419 76.0191 208.818 76.0191 208.103C76.0191 207.487 76.1327 206.978 76.36 206.576C76.5872 206.173 76.8974 205.851 77.2904 205.61C77.6834 205.368 78.1261 205.186 78.6185 205.063C79.1157 204.935 79.6294 204.843 80.1597 204.786C80.7989 204.72 81.3174 204.661 81.7151 204.608C82.1128 204.552 82.4016 204.466 82.5816 204.353C82.7662 204.234 82.8585 204.052 82.8585 203.806V203.763C82.8585 203.228 82.6999 202.814 82.3827 202.52C82.0655 202.227 81.6085 202.08 81.012 202.08C80.3822 202.08 79.8827 202.217 79.5134 202.492C79.1488 202.767 78.9026 203.091 78.7747 203.465L76.3742 203.124C76.5636 202.461 76.8761 201.907 77.3117 201.462C77.7473 201.012 78.2799 200.676 78.9097 200.454C79.5394 200.226 80.2354 200.113 80.9978 200.113C81.5233 200.113 82.0465 200.174 82.5674 200.297C83.0882 200.42 83.564 200.624 83.9949 200.908C84.4258 201.187 84.7714 201.569 85.0318 202.052C85.297 202.535 85.4296 203.138 85.4296 203.863V211.164H82.958V209.665H82.8728C82.7165 209.968 82.4963 210.252 82.2122 210.518C81.9329 210.778 81.5801 210.989 81.154 211.15C80.7326 211.306 80.2378 211.384 79.6696 211.384ZM80.3372 209.495C80.8533 209.495 81.3008 209.393 81.6796 209.189C82.0584 208.981 82.3496 208.706 82.5532 208.366C82.7615 208.025 82.8657 207.653 82.8657 207.25V205.965C82.7852 206.031 82.6478 206.093 82.4537 206.15C82.2643 206.206 82.0513 206.256 81.8145 206.299C81.5778 206.341 81.3434 206.379 81.1114 206.412C80.8794 206.446 80.6782 206.474 80.5077 206.498C80.1242 206.55 79.7809 206.635 79.4779 206.753C79.1748 206.872 78.9357 207.037 78.7605 207.25C78.5853 207.459 78.4978 207.729 78.4978 208.06C78.4978 208.534 78.6706 208.891 79.0162 209.133C79.3619 209.374 79.8022 209.495 80.3372 209.495ZM92.1631 211.356C91.3061 211.356 90.539 211.135 89.862 210.695C89.1849 210.255 88.6498 209.616 88.2568 208.777C87.8638 207.939 87.6674 206.921 87.6674 205.723C87.6674 204.511 87.8662 203.489 88.2639 202.655C88.6664 201.817 89.2085 201.185 89.8904 200.759C90.5722 200.328 91.3321 200.113 92.1702 200.113C92.8094 200.113 93.335 200.222 93.7469 200.439C94.1588 200.652 94.4855 200.911 94.727 201.214C94.9685 201.512 95.1555 201.794 95.2881 202.059H95.3946V196.618H97.9728V211.164H95.4443V209.445H95.2881C95.1555 209.71 94.9638 209.992 94.7128 210.29C94.4619 210.584 94.1304 210.835 93.7185 211.043C93.3066 211.251 92.7881 211.356 92.1631 211.356ZM92.8804 209.246C93.4249 209.246 93.8889 209.099 94.2725 208.806C94.656 208.508 94.9472 208.093 95.146 207.563C95.3449 207.033 95.4443 206.415 95.4443 205.709C95.4443 205.004 95.3449 204.391 95.146 203.87C94.9519 203.349 94.6631 202.944 94.2796 202.655C93.9008 202.366 93.4344 202.222 92.8804 202.222C92.3075 202.222 91.8293 202.371 91.4458 202.67C91.0622 202.968 90.7734 203.38 90.5793 203.905C90.3852 204.431 90.2881 205.032 90.2881 205.709C90.2881 206.391 90.3852 207 90.5793 207.535C90.7781 208.065 91.0693 208.484 91.4529 208.792C91.8411 209.095 92.317 209.246 92.8804 209.246ZM100.812 211.164V200.255H103.383V211.164H100.812ZM102.105 198.706C101.698 198.706 101.347 198.571 101.054 198.302C100.76 198.027 100.614 197.698 100.614 197.314C100.614 196.926 100.76 196.597 101.054 196.327C101.347 196.053 101.698 195.915 102.105 195.915C102.517 195.915 102.867 196.053 103.156 196.327C103.45 196.597 103.597 196.926 103.597 197.314C103.597 197.698 103.45 198.027 103.156 198.302C102.867 198.571 102.517 198.706 102.105 198.706ZM108.698 204.772V211.164H106.127V200.255H108.585V202.108H108.713C108.963 201.498 109.364 201.012 109.913 200.652C110.467 200.293 111.151 200.113 111.965 200.113C112.718 200.113 113.374 200.274 113.933 200.596C114.496 200.918 114.932 201.384 115.24 201.995C115.552 202.606 115.706 203.347 115.701 204.218V211.164H113.13V204.616C113.13 203.886 112.941 203.316 112.562 202.904C112.188 202.492 111.669 202.286 111.007 202.286C110.557 202.286 110.157 202.385 109.806 202.584C109.461 202.778 109.188 203.06 108.99 203.429C108.795 203.799 108.698 204.246 108.698 204.772ZM123.159 215.482C122.236 215.482 121.443 215.357 120.78 215.106C120.117 214.859 119.584 214.528 119.182 214.111C118.779 213.695 118.5 213.233 118.344 212.726L120.659 212.165C120.763 212.378 120.915 212.589 121.114 212.797C121.313 213.01 121.58 213.186 121.916 213.323C122.257 213.465 122.686 213.536 123.202 213.536C123.931 213.536 124.535 213.358 125.013 213.003C125.491 212.653 125.73 212.075 125.73 211.27V209.204H125.602C125.47 209.469 125.276 209.741 125.02 210.02C124.769 210.3 124.435 210.534 124.018 210.723C123.607 210.913 123.088 211.008 122.463 211.008C121.625 211.008 120.865 210.811 120.183 210.418C119.506 210.02 118.966 209.429 118.564 208.643C118.166 207.852 117.967 206.862 117.967 205.674C117.967 204.476 118.166 203.465 118.564 202.641C118.966 201.813 119.509 201.185 120.19 200.759C120.872 200.328 121.632 200.113 122.47 200.113C123.109 200.113 123.635 200.222 124.047 200.439C124.464 200.652 124.795 200.911 125.041 201.214C125.287 201.512 125.474 201.794 125.602 202.059H125.744V200.255H128.28V211.341C128.28 212.274 128.057 213.046 127.612 213.657C127.167 214.268 126.559 214.724 125.787 215.027C125.015 215.33 124.139 215.482 123.159 215.482ZM123.18 208.991C123.725 208.991 124.189 208.858 124.572 208.593C124.956 208.328 125.247 207.946 125.446 207.449C125.645 206.952 125.744 206.356 125.744 205.66C125.744 204.973 125.645 204.372 125.446 203.856C125.252 203.339 124.963 202.939 124.58 202.655C124.201 202.366 123.734 202.222 123.18 202.222C122.608 202.222 122.129 202.371 121.746 202.67C121.362 202.968 121.073 203.377 120.879 203.898C120.685 204.414 120.588 205.001 120.588 205.66C120.588 206.327 120.685 206.912 120.879 207.414C121.078 207.911 121.369 208.299 121.753 208.579C122.141 208.853 122.617 208.991 123.18 208.991Z" fill="white"/>
<rect y="446.906" width="178.542" height="65.5396" rx="14.4248" fill="#8C15E9"/>
<path d="M49.7058 486.676V472.13H52.3407V478.288H59.0808V472.13H61.7228V486.676H59.0808V480.497H52.3407V486.676H49.7058ZM69.4045 486.889C68.3107 486.889 67.3661 486.662 66.5707 486.207C65.78 485.748 65.1715 485.099 64.7454 484.261C64.3193 483.418 64.1062 482.426 64.1062 481.285C64.1062 480.163 64.3193 479.178 64.7454 478.331C65.1763 477.478 65.7776 476.815 66.5494 476.342C67.3212 475.864 68.2279 475.625 69.2696 475.625C69.9419 475.625 70.5764 475.734 71.173 475.951C71.7743 476.164 72.3046 476.496 72.7639 476.946C73.2279 477.395 73.5925 477.968 73.8576 478.664C74.1228 479.356 74.2554 480.18 74.2554 481.136V481.924H65.3136V480.191H71.7909C71.7861 479.699 71.6796 479.261 71.4713 478.877C71.2629 478.489 70.9717 478.184 70.5977 477.961C70.2284 477.739 69.7975 477.627 69.3051 477.627C68.7795 477.627 68.3179 477.755 67.9201 478.011C67.5224 478.262 67.2123 478.593 66.9897 479.005C66.7719 479.413 66.6607 479.86 66.6559 480.348V481.86C66.6559 482.495 66.7719 483.039 67.0039 483.494C67.2359 483.944 67.5603 484.289 67.9769 484.531C68.3936 484.768 68.8813 484.886 69.44 484.886C69.8141 484.886 70.1526 484.834 70.4556 484.73C70.7587 484.621 71.0215 484.462 71.244 484.254C71.4665 484.046 71.6346 483.788 71.7482 483.48L74.1488 483.75C73.9973 484.384 73.7085 484.938 73.2823 485.412C72.8609 485.88 72.3212 486.245 71.663 486.505C71.0049 486.761 70.252 486.889 69.4045 486.889ZM79.6696 486.896C78.9783 486.896 78.3557 486.773 77.8017 486.527C77.2525 486.276 76.8169 485.906 76.4949 485.419C76.1777 484.931 76.0191 484.33 76.0191 483.615C76.0191 482.999 76.1327 482.49 76.36 482.088C76.5872 481.685 76.8974 481.363 77.2904 481.122C77.6834 480.88 78.1261 480.698 78.6185 480.575C79.1157 480.447 79.6294 480.355 80.1597 480.298C80.7989 480.232 81.3174 480.172 81.7151 480.12C82.1128 480.064 82.4016 479.978 82.5816 479.865C82.7662 479.746 82.8585 479.564 82.8585 479.318V479.275C82.8585 478.74 82.6999 478.326 82.3827 478.032C82.0655 477.739 81.6085 477.592 81.012 477.592C80.3822 477.592 79.8827 477.729 79.5134 478.004C79.1488 478.279 78.9026 478.603 78.7747 478.977L76.3742 478.636C76.5636 477.973 76.8761 477.419 77.3117 476.974C77.7473 476.524 78.2799 476.188 78.9097 475.966C79.5394 475.738 80.2354 475.625 80.9978 475.625C81.5233 475.625 82.0465 475.686 82.5674 475.809C83.0882 475.932 83.564 476.136 83.9949 476.42C84.4258 476.699 84.7714 477.081 85.0318 477.564C85.297 478.047 85.4296 478.65 85.4296 479.375V486.676H82.958V485.177H82.8728C82.7165 485.48 82.4963 485.764 82.2122 486.029C81.9329 486.29 81.5801 486.501 81.154 486.662C80.7326 486.818 80.2378 486.896 79.6696 486.896ZM80.3372 485.007C80.8533 485.007 81.3008 484.905 81.6796 484.701C82.0584 484.493 82.3496 484.218 82.5532 483.877C82.7615 483.537 82.8657 483.165 82.8657 482.762V481.477C82.7852 481.543 82.6478 481.605 82.4537 481.662C82.2643 481.718 82.0513 481.768 81.8145 481.811C81.5778 481.853 81.3434 481.891 81.1114 481.924C80.8794 481.957 80.6782 481.986 80.5077 482.01C80.1242 482.062 79.7809 482.147 79.4779 482.265C79.1748 482.384 78.9357 482.549 78.7605 482.762C78.5853 482.971 78.4978 483.241 78.4978 483.572C78.4978 484.046 78.6706 484.403 79.0162 484.645C79.3619 484.886 79.8022 485.007 80.3372 485.007ZM92.1631 486.868C91.3061 486.868 90.539 486.647 89.862 486.207C89.1849 485.767 88.6498 485.127 88.2568 484.289C87.8638 483.451 87.6674 482.433 87.6674 481.235C87.6674 480.023 87.8662 479.001 88.2639 478.167C88.6664 477.329 89.2085 476.697 89.8904 476.271C90.5722 475.84 91.3321 475.625 92.1702 475.625C92.8094 475.625 93.335 475.734 93.7469 475.951C94.1588 476.164 94.4855 476.422 94.727 476.725C94.9685 477.024 95.1555 477.306 95.2881 477.571H95.3946V472.13H97.9728V486.676H95.4443V484.957H95.2881C95.1555 485.222 94.9638 485.504 94.7128 485.802C94.4619 486.096 94.1304 486.347 93.7185 486.555C93.3066 486.763 92.7881 486.868 92.1631 486.868ZM92.8804 484.758C93.4249 484.758 93.8889 484.611 94.2725 484.318C94.656 484.02 94.9472 483.605 95.146 483.075C95.3449 482.545 95.4443 481.927 95.4443 481.221C95.4443 480.516 95.3449 479.903 95.146 479.382C94.9519 478.861 94.6631 478.456 94.2796 478.167C93.9008 477.878 93.4344 477.734 92.8804 477.734C92.3075 477.734 91.8293 477.883 91.4458 478.181C91.0622 478.48 90.7734 478.892 90.5793 479.417C90.3852 479.943 90.2881 480.544 90.2881 481.221C90.2881 481.903 90.3852 482.511 90.5793 483.047C90.7781 483.577 91.0693 483.996 91.4529 484.304C91.8411 484.607 92.317 484.758 92.8804 484.758ZM100.812 486.676V475.767H103.383V486.676H100.812ZM102.105 474.218C101.698 474.218 101.347 474.083 101.054 473.814C100.76 473.539 100.614 473.21 100.614 472.826C100.614 472.438 100.76 472.109 101.054 471.839C101.347 471.564 101.698 471.427 102.105 471.427C102.517 471.427 102.867 471.564 103.156 471.839C103.45 472.109 103.597 472.438 103.597 472.826C103.597 473.21 103.45 473.539 103.156 473.814C102.867 474.083 102.517 474.218 102.105 474.218ZM108.698 480.284V486.676H106.127V475.767H108.585V477.62H108.713C108.963 477.01 109.364 476.524 109.913 476.164C110.467 475.805 111.151 475.625 111.965 475.625C112.718 475.625 113.374 475.786 113.933 476.108C114.496 476.43 114.932 476.896 115.24 477.507C115.552 478.118 115.706 478.859 115.701 479.73V486.676H113.13V480.127C113.13 479.398 112.941 478.828 112.562 478.416C112.188 478.004 111.669 477.798 111.007 477.798C110.557 477.798 110.157 477.897 109.806 478.096C109.461 478.29 109.188 478.572 108.99 478.941C108.795 479.311 108.698 479.758 108.698 480.284ZM123.159 490.994C122.236 490.994 121.443 490.868 120.78 490.618C120.117 490.371 119.584 490.04 119.182 489.623C118.779 489.207 118.5 488.745 118.344 488.238L120.659 487.677C120.763 487.89 120.915 488.101 121.114 488.309C121.313 488.522 121.58 488.698 121.916 488.835C122.257 488.977 122.686 489.048 123.202 489.048C123.931 489.048 124.535 488.87 125.013 488.515C125.491 488.165 125.73 487.587 125.73 486.782V484.716H125.602C125.47 484.981 125.276 485.253 125.02 485.532C124.769 485.812 124.435 486.046 124.018 486.235C123.607 486.425 123.088 486.52 122.463 486.52C121.625 486.52 120.865 486.323 120.183 485.93C119.506 485.532 118.966 484.94 118.564 484.154C118.166 483.364 117.967 482.374 117.967 481.186C117.967 479.988 118.166 478.977 118.564 478.153C118.966 477.324 119.509 476.697 120.19 476.271C120.872 475.84 121.632 475.625 122.47 475.625C123.109 475.625 123.635 475.734 124.047 475.951C124.464 476.164 124.795 476.422 125.041 476.725C125.287 477.024 125.474 477.306 125.602 477.571H125.744V475.767H128.28V486.853C128.28 487.786 128.057 488.558 127.612 489.169C127.167 489.779 126.559 490.236 125.787 490.539C125.015 490.842 124.139 490.994 123.159 490.994ZM123.18 484.502C123.725 484.502 124.189 484.37 124.572 484.105C124.956 483.84 125.247 483.458 125.446 482.961C125.645 482.464 125.744 481.868 125.744 481.172C125.744 480.485 125.645 479.884 125.446 479.368C125.252 478.851 124.963 478.451 124.58 478.167C124.201 477.878 123.734 477.734 123.18 477.734C122.608 477.734 122.129 477.883 121.746 478.181C121.362 478.48 121.073 478.889 120.879 479.41C120.685 479.926 120.588 480.513 120.588 481.172C120.588 481.839 120.685 482.424 120.879 482.926C121.078 483.423 121.369 483.811 121.753 484.091C122.141 484.365 122.617 484.502 123.18 484.502Z" fill="white"/>
<rect y="625.747" width="178.542" height="65.5396" rx="14.4248" fill="#8C15E9"/>
<path d="M49.7058 665.517V650.971H52.3407V657.129H59.0808V650.971H61.7228V665.517H59.0808V659.338H52.3407V665.517H49.7058ZM69.4045 665.73C68.3107 665.73 67.3661 665.503 66.5707 665.048C65.78 664.589 65.1715 663.94 64.7454 663.102C64.3193 662.259 64.1062 661.267 64.1062 660.126C64.1062 659.004 64.3193 658.019 64.7454 657.172C65.1763 656.319 65.7776 655.656 66.5494 655.183C67.3212 654.705 68.2279 654.466 69.2696 654.466C69.9419 654.466 70.5764 654.575 71.173 654.792C71.7743 655.005 72.3046 655.337 72.7639 655.787C73.2279 656.237 73.5925 656.809 73.8576 657.505C74.1228 658.197 74.2554 659.021 74.2554 659.977V660.765H65.3136V659.032H71.7909C71.7861 658.54 71.6796 658.102 71.4713 657.719C71.2629 657.33 70.9717 657.025 70.5977 656.802C70.2284 656.58 69.7975 656.469 69.3051 656.469C68.7795 656.469 68.3179 656.596 67.9201 656.852C67.5224 657.103 67.2123 657.434 66.9897 657.846C66.7719 658.254 66.6607 658.701 66.6559 659.189V660.701C66.6559 661.336 66.7719 661.88 67.0039 662.335C67.2359 662.785 67.5603 663.13 67.9769 663.372C68.3936 663.609 68.8813 663.727 69.44 663.727C69.8141 663.727 70.1526 663.675 70.4556 663.571C70.7587 663.462 71.0215 663.303 71.244 663.095C71.4665 662.887 71.6346 662.629 71.7482 662.321L74.1488 662.591C73.9973 663.225 73.7085 663.779 73.2823 664.253C72.8609 664.721 72.3212 665.086 71.663 665.346C71.0049 665.602 70.252 665.73 69.4045 665.73ZM79.6696 665.737C78.9783 665.737 78.3557 665.614 77.8017 665.368C77.2525 665.117 76.8169 664.747 76.4949 664.26C76.1777 663.772 76.0191 663.171 76.0191 662.456C76.0191 661.84 76.1327 661.331 76.36 660.929C76.5872 660.526 76.8974 660.204 77.2904 659.963C77.6834 659.721 78.1261 659.539 78.6185 659.416C79.1157 659.288 79.6294 659.196 80.1597 659.139C80.7989 659.073 81.3174 659.014 81.7151 658.961C82.1128 658.905 82.4016 658.819 82.5816 658.706C82.7662 658.587 82.8585 658.405 82.8585 658.159V658.116C82.8585 657.581 82.6999 657.167 82.3827 656.873C82.0655 656.58 81.6085 656.433 81.012 656.433C80.3822 656.433 79.8827 656.57 79.5134 656.845C79.1488 657.12 78.9026 657.444 78.7747 657.818L76.3742 657.477C76.5636 656.814 76.8761 656.26 77.3117 655.815C77.7473 655.365 78.2799 655.029 78.9097 654.807C79.5394 654.579 80.2354 654.466 80.9978 654.466C81.5233 654.466 82.0465 654.527 82.5674 654.65C83.0882 654.773 83.564 654.977 83.9949 655.261C84.4258 655.54 84.7714 655.922 85.0318 656.405C85.297 656.888 85.4296 657.491 85.4296 658.216V665.517H82.958V664.018H82.8728C82.7165 664.321 82.4963 664.605 82.2122 664.871C81.9329 665.131 81.5801 665.342 81.154 665.503C80.7326 665.659 80.2378 665.737 79.6696 665.737ZM80.3372 663.848C80.8533 663.848 81.3008 663.746 81.6796 663.542C82.0584 663.334 82.3496 663.059 82.5532 662.719C82.7615 662.378 82.8657 662.006 82.8657 661.603V660.318C82.7852 660.384 82.6478 660.446 82.4537 660.503C82.2643 660.559 82.0513 660.609 81.8145 660.652C81.5778 660.694 81.3434 660.732 81.1114 660.765C80.8794 660.799 80.6782 660.827 80.5077 660.851C80.1242 660.903 79.7809 660.988 79.4779 661.106C79.1748 661.225 78.9357 661.39 78.7605 661.603C78.5853 661.812 78.4978 662.082 78.4978 662.413C78.4978 662.887 78.6706 663.244 79.0162 663.486C79.3619 663.727 79.8022 663.848 80.3372 663.848ZM92.1631 665.709C91.3061 665.709 90.539 665.488 89.862 665.048C89.1849 664.608 88.6498 663.969 88.2568 663.13C87.8638 662.292 87.6674 661.274 87.6674 660.076C87.6674 658.864 87.8662 657.842 88.2639 657.008C88.6664 656.17 89.2085 655.538 89.8904 655.112C90.5722 654.681 91.3321 654.466 92.1702 654.466C92.8094 654.466 93.335 654.575 93.7469 654.792C94.1588 655.005 94.4855 655.264 94.727 655.567C94.9685 655.865 95.1555 656.147 95.2881 656.412H95.3946V650.971H97.9728V665.517H95.4443V663.798H95.2881C95.1555 664.063 94.9638 664.345 94.7128 664.643C94.4619 664.937 94.1304 665.188 93.7185 665.396C93.3066 665.604 92.7881 665.709 92.1631 665.709ZM92.8804 663.599C93.4249 663.599 93.8889 663.452 94.2725 663.159C94.656 662.861 94.9472 662.446 95.146 661.916C95.3449 661.386 95.4443 660.768 95.4443 660.062C95.4443 659.357 95.3449 658.744 95.146 658.223C94.9519 657.702 94.6631 657.297 94.2796 657.008C93.9008 656.719 93.4344 656.575 92.8804 656.575C92.3075 656.575 91.8293 656.724 91.4458 657.022C91.0622 657.321 90.7734 657.733 90.5793 658.258C90.3852 658.784 90.2881 659.385 90.2881 660.062C90.2881 660.744 90.3852 661.353 90.5793 661.888C90.7781 662.418 91.0693 662.837 91.4529 663.145C91.8411 663.448 92.317 663.599 92.8804 663.599ZM100.812 665.517V654.608H103.383V665.517H100.812ZM102.105 653.059C101.698 653.059 101.347 652.924 101.054 652.655C100.76 652.38 100.614 652.051 100.614 651.667C100.614 651.279 100.76 650.95 101.054 650.68C101.347 650.406 101.698 650.268 102.105 650.268C102.517 650.268 102.867 650.406 103.156 650.68C103.45 650.95 103.597 651.279 103.597 651.667C103.597 652.051 103.45 652.38 103.156 652.655C102.867 652.924 102.517 653.059 102.105 653.059ZM108.698 659.125V665.517H106.127V654.608H108.585V656.461H108.713C108.963 655.851 109.364 655.365 109.913 655.005C110.467 654.646 111.151 654.466 111.965 654.466C112.718 654.466 113.374 654.627 113.933 654.949C114.496 655.271 114.932 655.737 115.24 656.348C115.552 656.959 115.706 657.7 115.701 658.571V665.517H113.13V658.969C113.13 658.239 112.941 657.669 112.562 657.257C112.188 656.845 111.669 656.639 111.007 656.639C110.557 656.639 110.157 656.738 109.806 656.937C109.461 657.131 109.188 657.413 108.99 657.782C108.795 658.152 108.698 658.599 108.698 659.125ZM123.159 669.835C122.236 669.835 121.443 669.71 120.78 669.459C120.117 669.212 119.584 668.881 119.182 668.464C118.779 668.048 118.5 667.586 118.344 667.079L120.659 666.518C120.763 666.731 120.915 666.942 121.114 667.15C121.313 667.363 121.58 667.539 121.916 667.676C122.257 667.818 122.686 667.889 123.202 667.889C123.931 667.889 124.535 667.711 125.013 667.356C125.491 667.006 125.73 666.428 125.73 665.623V663.557H125.602C125.47 663.822 125.276 664.094 125.02 664.373C124.769 664.653 124.435 664.887 124.018 665.076C123.607 665.266 123.088 665.361 122.463 665.361C121.625 665.361 120.865 665.164 120.183 664.771C119.506 664.373 118.966 663.781 118.564 662.996C118.166 662.205 117.967 661.215 117.967 660.027C117.967 658.829 118.166 657.818 118.564 656.994C118.966 656.165 119.509 655.538 120.19 655.112C120.872 654.681 121.632 654.466 122.47 654.466C123.109 654.466 123.635 654.575 124.047 654.792C124.464 655.005 124.795 655.264 125.041 655.567C125.287 655.865 125.474 656.147 125.602 656.412H125.744V654.608H128.28V665.694C128.28 666.627 128.057 667.399 127.612 668.01C127.167 668.621 126.559 669.077 125.787 669.38C125.015 669.683 124.139 669.835 123.159 669.835ZM123.18 663.344C123.725 663.344 124.189 663.211 124.572 662.946C124.956 662.681 125.247 662.299 125.446 661.802C125.645 661.305 125.744 660.709 125.744 660.013C125.744 659.326 125.645 658.725 125.446 658.209C125.252 657.692 124.963 657.292 124.58 657.008C124.201 656.719 123.734 656.575 123.18 656.575C122.608 656.575 122.129 656.724 121.746 657.022C121.362 657.321 121.073 657.73 120.879 658.251C120.685 658.767 120.588 659.354 120.588 660.013C120.588 660.68 120.685 661.265 120.879 661.767C121.078 662.264 121.369 662.652 121.753 662.932C122.141 663.206 122.617 663.344 123.18 663.344Z" fill="white"/>
<rect x="777.458" y="619.947" width="178.542" height="65.5396" rx="14.4248" fill="#8C15E9"/>
<path d="M827.164 659.717V645.171H829.799V651.329H836.539V645.171H839.181V659.717H836.539V653.538H829.799V659.717H827.164ZM846.862 659.93C845.769 659.93 844.824 659.702 844.029 659.248C843.238 658.789 842.629 658.14 842.203 657.302C841.777 656.459 841.564 655.467 841.564 654.326C841.564 653.204 841.777 652.219 842.203 651.371C842.634 650.519 843.235 649.856 844.007 649.383C844.779 648.905 845.686 648.665 846.727 648.665C847.4 648.665 848.034 648.774 848.631 648.992C849.232 649.205 849.762 649.537 850.222 649.986C850.686 650.436 851.05 651.009 851.316 651.705C851.581 652.397 851.713 653.22 851.713 654.177V654.965H842.771V653.232H849.249C849.244 652.74 849.137 652.302 848.929 651.918C848.721 651.53 848.43 651.225 848.056 651.002C847.686 650.78 847.255 650.668 846.763 650.668C846.237 650.668 845.776 650.796 845.378 651.052C844.98 651.303 844.67 651.634 844.448 652.046C844.23 652.453 844.119 652.901 844.114 653.388V654.901C844.114 655.536 844.23 656.08 844.462 656.535C844.694 656.985 845.018 657.33 845.435 657.572C845.851 657.808 846.339 657.927 846.898 657.927C847.272 657.927 847.61 657.875 847.914 657.771C848.217 657.662 848.479 657.503 848.702 657.295C848.924 657.086 849.092 656.828 849.206 656.521L851.607 656.79C851.455 657.425 851.166 657.979 850.74 658.452C850.319 658.921 849.779 659.286 849.121 659.546C848.463 659.802 847.71 659.93 846.862 659.93ZM857.128 659.937C856.436 659.937 855.814 659.814 855.26 659.567C854.71 659.316 854.275 658.947 853.953 658.459C853.636 657.972 853.477 657.37 853.477 656.656C853.477 656.04 853.591 655.531 853.818 655.129C854.045 654.726 854.355 654.404 854.748 654.163C855.141 653.921 855.584 653.739 856.076 653.616C856.574 653.488 857.087 653.396 857.618 653.339C858.257 653.272 858.775 653.213 859.173 653.161C859.571 653.104 859.86 653.019 860.039 652.906C860.224 652.787 860.316 652.605 860.316 652.359V652.316C860.316 651.781 860.158 651.367 859.841 651.073C859.523 650.78 859.066 650.633 858.47 650.633C857.84 650.633 857.341 650.77 856.971 651.045C856.607 651.319 856.36 651.644 856.233 652.018L853.832 651.677C854.021 651.014 854.334 650.46 854.77 650.015C855.205 649.565 855.738 649.229 856.368 649.006C856.997 648.779 857.693 648.665 858.456 648.665C858.981 648.665 859.504 648.727 860.025 648.85C860.546 648.973 861.022 649.177 861.453 649.461C861.884 649.74 862.229 650.121 862.49 650.604C862.755 651.087 862.887 651.691 862.887 652.415V659.717H860.416V658.218H860.331C860.174 658.521 859.954 658.805 859.67 659.07C859.391 659.331 859.038 659.541 858.612 659.702C858.19 659.859 857.696 659.937 857.128 659.937ZM857.795 658.048C858.311 658.048 858.759 657.946 859.137 657.742C859.516 657.534 859.807 657.259 860.011 656.918C860.219 656.577 860.324 656.206 860.324 655.803V654.518C860.243 654.584 860.106 654.646 859.912 654.702C859.722 654.759 859.509 654.809 859.272 654.852C859.036 654.894 858.801 654.932 858.569 654.965C858.337 654.998 858.136 655.027 857.966 655.05C857.582 655.102 857.239 655.188 856.936 655.306C856.633 655.424 856.394 655.59 856.218 655.803C856.043 656.012 855.956 656.281 855.956 656.613C855.956 657.086 856.128 657.444 856.474 657.685C856.82 657.927 857.26 658.048 857.795 658.048ZM869.621 659.908C868.764 659.908 867.997 659.688 867.32 659.248C866.643 658.807 866.108 658.168 865.715 657.33C865.322 656.492 865.125 655.474 865.125 654.276C865.125 653.064 865.324 652.041 865.722 651.208C866.124 650.37 866.666 649.738 867.348 649.312C868.03 648.881 868.79 648.665 869.628 648.665C870.267 648.665 870.793 648.774 871.205 648.992C871.617 649.205 871.943 649.463 872.185 649.766C872.426 650.065 872.613 650.346 872.746 650.611H872.853V645.171H875.431V659.717H872.902V657.998H872.746C872.613 658.263 872.422 658.545 872.171 658.843C871.92 659.137 871.588 659.388 871.176 659.596C870.764 659.804 870.246 659.908 869.621 659.908ZM870.338 657.799C870.883 657.799 871.347 657.652 871.73 657.359C872.114 657.06 872.405 656.646 872.604 656.116C872.803 655.585 872.902 654.968 872.902 654.262C872.902 653.557 872.803 652.943 872.604 652.423C872.41 651.902 872.121 651.497 871.737 651.208C871.359 650.919 870.892 650.775 870.338 650.775C869.765 650.775 869.287 650.924 868.904 651.222C868.52 651.521 868.231 651.932 868.037 652.458C867.843 652.984 867.746 653.585 867.746 654.262C867.746 654.944 867.843 655.552 868.037 656.087C868.236 656.618 868.527 657.037 868.911 657.344C869.299 657.647 869.775 657.799 870.338 657.799ZM878.27 659.717V648.807H880.841V659.717H878.27ZM879.563 647.259C879.156 647.259 878.805 647.124 878.512 646.854C878.218 646.58 878.071 646.251 878.071 645.867C878.071 645.479 878.218 645.15 878.512 644.88C878.805 644.605 879.156 644.468 879.563 644.468C879.975 644.468 880.325 644.605 880.614 644.88C880.908 645.15 881.054 645.479 881.054 645.867C881.054 646.251 880.908 646.58 880.614 646.854C880.325 647.124 879.975 647.259 879.563 647.259ZM886.156 653.325V659.717H883.585V648.807H886.043V650.661H886.17C886.421 650.05 886.821 649.565 887.371 649.205C887.925 648.845 888.609 648.665 889.423 648.665C890.176 648.665 890.832 648.826 891.391 649.148C891.954 649.47 892.39 649.937 892.697 650.548C893.01 651.158 893.164 651.899 893.159 652.771V659.717H890.588V653.168C890.588 652.439 890.399 651.869 890.02 651.457C889.646 651.045 889.127 650.839 888.464 650.839C888.015 650.839 887.615 650.938 887.264 651.137C886.919 651.331 886.646 651.613 886.447 651.982C886.253 652.352 886.156 652.799 886.156 653.325ZM900.617 664.035C899.694 664.035 898.901 663.909 898.238 663.658C897.575 663.412 897.042 663.081 896.64 662.664C896.237 662.247 895.958 661.786 895.802 661.279L898.117 660.718C898.221 660.931 898.373 661.142 898.572 661.35C898.77 661.563 899.038 661.738 899.374 661.876C899.715 662.018 900.144 662.089 900.66 662.089C901.389 662.089 901.992 661.911 902.471 661.556C902.949 661.206 903.188 660.628 903.188 659.823V657.756H903.06C902.928 658.022 902.733 658.294 902.478 658.573C902.227 658.852 901.893 659.087 901.476 659.276C901.064 659.466 900.546 659.56 899.921 659.56C899.083 659.56 898.323 659.364 897.641 658.971C896.964 658.573 896.424 657.981 896.022 657.195C895.624 656.405 895.425 655.415 895.425 654.227C895.425 653.029 895.624 652.018 896.022 651.194C896.424 650.365 896.966 649.738 897.648 649.312C898.33 648.881 899.09 648.665 899.928 648.665C900.567 648.665 901.093 648.774 901.505 648.992C901.921 649.205 902.253 649.463 902.499 649.766C902.745 650.065 902.932 650.346 903.06 650.611H903.202V648.807H905.738V659.894C905.738 660.827 905.515 661.599 905.07 662.209C904.625 662.82 904.017 663.277 903.245 663.58C902.473 663.883 901.597 664.035 900.617 664.035ZM900.638 657.543C901.183 657.543 901.647 657.411 902.03 657.146C902.414 656.88 902.705 656.499 902.904 656.002C903.103 655.505 903.202 654.908 903.202 654.212C903.202 653.526 903.103 652.924 902.904 652.408C902.71 651.892 902.421 651.492 902.037 651.208C901.659 650.919 901.192 650.775 900.638 650.775C900.065 650.775 899.587 650.924 899.204 651.222C898.82 651.521 898.531 651.93 898.337 652.451C898.143 652.967 898.046 653.554 898.046 654.212C898.046 654.88 898.143 655.465 898.337 655.967C898.536 656.464 898.827 656.852 899.211 657.131C899.599 657.406 900.075 657.543 900.638 657.543Z" fill="white"/>
<rect x="777.458" y="444.006" width="178.542" height="65.5396" rx="14.4248" fill="#8C15E9"/>
<path d="M827.164 483.776V469.23H829.799V475.388H836.539V469.23H839.181V483.776H836.539V477.597H829.799V483.776H827.164ZM846.862 483.989C845.769 483.989 844.824 483.761 844.029 483.307C843.238 482.848 842.629 482.199 842.203 481.361C841.777 480.518 841.564 479.526 841.564 478.385C841.564 477.263 841.777 476.278 842.203 475.43C842.634 474.578 843.235 473.915 844.007 473.442C844.779 472.964 845.686 472.724 846.727 472.724C847.4 472.724 848.034 472.833 848.631 473.051C849.232 473.264 849.762 473.596 850.222 474.046C850.686 474.495 851.05 475.068 851.316 475.764C851.581 476.456 851.713 477.279 851.713 478.236V479.024H842.771V477.291H849.249C849.244 476.799 849.137 476.361 848.929 475.977C848.721 475.589 848.43 475.284 848.056 475.061C847.686 474.839 847.255 474.727 846.763 474.727C846.237 474.727 845.776 474.855 845.378 475.111C844.98 475.362 844.67 475.693 844.448 476.105C844.23 476.512 844.119 476.96 844.114 477.447V478.96C844.114 479.595 844.23 480.139 844.462 480.594C844.694 481.044 845.018 481.389 845.435 481.631C845.851 481.867 846.339 481.986 846.898 481.986C847.272 481.986 847.61 481.934 847.914 481.83C848.217 481.721 848.479 481.562 848.702 481.354C848.924 481.145 849.092 480.887 849.206 480.58L851.607 480.849C851.455 481.484 851.166 482.038 850.74 482.511C850.319 482.98 849.779 483.345 849.121 483.605C848.463 483.861 847.71 483.989 846.862 483.989ZM857.128 483.996C856.436 483.996 855.814 483.873 855.26 483.626C854.71 483.376 854.275 483.006 853.953 482.519C853.636 482.031 853.477 481.43 853.477 480.715C853.477 480.099 853.591 479.59 853.818 479.188C854.045 478.785 854.355 478.463 854.748 478.222C855.141 477.98 855.584 477.798 856.076 477.675C856.574 477.547 857.087 477.455 857.618 477.398C858.257 477.331 858.775 477.272 859.173 477.22C859.571 477.163 859.86 477.078 860.039 476.965C860.224 476.846 860.316 476.664 860.316 476.418V476.375C860.316 475.84 860.158 475.426 859.841 475.132C859.523 474.839 859.066 474.692 858.47 474.692C857.84 474.692 857.341 474.829 856.971 475.104C856.607 475.378 856.36 475.703 856.233 476.077L853.832 475.736C854.021 475.073 854.334 474.519 854.77 474.074C855.205 473.624 855.738 473.288 856.368 473.065C856.997 472.838 857.693 472.724 858.456 472.724C858.981 472.724 859.504 472.786 860.025 472.909C860.546 473.032 861.022 473.236 861.453 473.52C861.884 473.799 862.229 474.18 862.49 474.663C862.755 475.146 862.887 475.75 862.887 476.474V483.776H860.416V482.277H860.331C860.174 482.58 859.954 482.864 859.67 483.129C859.391 483.39 859.038 483.6 858.612 483.761C858.19 483.918 857.696 483.996 857.128 483.996ZM857.795 482.107C858.311 482.107 858.759 482.005 859.137 481.801C859.516 481.593 859.807 481.318 860.011 480.977C860.219 480.636 860.324 480.265 860.324 479.862V478.577C860.243 478.643 860.106 478.705 859.912 478.761C859.722 478.818 859.509 478.868 859.272 478.911C859.036 478.953 858.801 478.991 858.569 479.024C858.337 479.057 858.136 479.086 857.966 479.109C857.582 479.162 857.239 479.247 856.936 479.365C856.633 479.483 856.394 479.649 856.218 479.862C856.043 480.071 855.956 480.34 855.956 480.672C855.956 481.145 856.128 481.503 856.474 481.744C856.82 481.986 857.26 482.107 857.795 482.107ZM869.621 483.967C868.764 483.967 867.997 483.747 867.32 483.307C866.643 482.867 866.108 482.227 865.715 481.389C865.322 480.551 865.125 479.533 865.125 478.335C865.125 477.123 865.324 476.1 865.722 475.267C866.124 474.429 866.666 473.797 867.348 473.371C868.03 472.94 868.79 472.724 869.628 472.724C870.267 472.724 870.793 472.833 871.205 473.051C871.617 473.264 871.943 473.522 872.185 473.825C872.426 474.124 872.613 474.405 872.746 474.671H872.853V469.23H875.431V483.776H872.902V482.057H872.746C872.613 482.322 872.422 482.604 872.171 482.902C871.92 483.196 871.588 483.447 871.176 483.655C870.764 483.863 870.246 483.967 869.621 483.967ZM870.338 481.858C870.883 481.858 871.347 481.711 871.73 481.418C872.114 481.119 872.405 480.705 872.604 480.175C872.803 479.644 872.902 479.027 872.902 478.321C872.902 477.616 872.803 477.002 872.604 476.482C872.41 475.961 872.121 475.556 871.737 475.267C871.359 474.978 870.892 474.834 870.338 474.834C869.765 474.834 869.287 474.983 868.904 475.281C868.52 475.58 868.231 475.992 868.037 476.517C867.843 477.043 867.746 477.644 867.746 478.321C867.746 479.003 867.843 479.611 868.037 480.146C868.236 480.677 868.527 481.096 868.911 481.403C869.299 481.706 869.775 481.858 870.338 481.858ZM878.27 483.776V472.867H880.841V483.776H878.27ZM879.563 471.318C879.156 471.318 878.805 471.183 878.512 470.913C878.218 470.639 878.071 470.31 878.071 469.926C878.071 469.538 878.218 469.209 878.512 468.939C878.805 468.664 879.156 468.527 879.563 468.527C879.975 468.527 880.325 468.664 880.614 468.939C880.908 469.209 881.054 469.538 881.054 469.926C881.054 470.31 880.908 470.639 880.614 470.913C880.325 471.183 879.975 471.318 879.563 471.318ZM886.156 477.384V483.776H883.585V472.867H886.043V474.72H886.17C886.421 474.109 886.821 473.624 887.371 473.264C887.925 472.904 888.609 472.724 889.423 472.724C890.176 472.724 890.832 472.885 891.391 473.207C891.954 473.529 892.39 473.996 892.697 474.607C893.01 475.217 893.164 475.958 893.159 476.83V483.776H890.588V477.227C890.588 476.498 890.399 475.928 890.02 475.516C889.646 475.104 889.127 474.898 888.464 474.898C888.015 474.898 887.615 474.997 887.264 475.196C886.919 475.39 886.646 475.672 886.447 476.041C886.253 476.411 886.156 476.858 886.156 477.384ZM900.617 488.094C899.694 488.094 898.901 487.968 898.238 487.717C897.575 487.471 897.042 487.14 896.64 486.723C896.237 486.306 895.958 485.845 895.802 485.338L898.117 484.777C898.221 484.99 898.373 485.201 898.572 485.409C898.77 485.622 899.038 485.797 899.374 485.935C899.715 486.077 900.144 486.148 900.66 486.148C901.389 486.148 901.992 485.97 902.471 485.615C902.949 485.265 903.188 484.687 903.188 483.882V481.815H903.06C902.928 482.081 902.733 482.353 902.478 482.632C902.227 482.912 901.893 483.146 901.476 483.335C901.064 483.525 900.546 483.619 899.921 483.619C899.083 483.619 898.323 483.423 897.641 483.03C896.964 482.632 896.424 482.04 896.022 481.254C895.624 480.464 895.425 479.474 895.425 478.286C895.425 477.088 895.624 476.077 896.022 475.253C896.424 474.424 896.966 473.797 897.648 473.371C898.33 472.94 899.09 472.724 899.928 472.724C900.567 472.724 901.093 472.833 901.505 473.051C901.921 473.264 902.253 473.522 902.499 473.825C902.745 474.124 902.932 474.405 903.06 474.671H903.202V472.867H905.738V483.953C905.738 484.886 905.515 485.658 905.07 486.269C904.625 486.879 904.017 487.336 903.245 487.639C902.473 487.942 901.597 488.094 900.617 488.094ZM900.638 481.602C901.183 481.602 901.647 481.47 902.03 481.205C902.414 480.939 902.705 480.558 902.904 480.061C903.103 479.564 903.202 478.967 903.202 478.271C903.202 477.585 903.103 476.983 902.904 476.467C902.71 475.951 902.421 475.551 902.037 475.267C901.659 474.978 901.192 474.834 900.638 474.834C900.065 474.834 899.587 474.983 899.204 475.281C898.82 475.58 898.531 475.989 898.337 476.51C898.143 477.026 898.046 477.613 898.046 478.271C898.046 478.939 898.143 479.524 898.337 480.026C898.536 480.523 898.827 480.911 899.211 481.19C899.599 481.465 900.075 481.602 900.638 481.602Z" fill="white"/>
<rect x="777.458" y="176.228" width="178.542" height="65.5396" rx="14.4248" fill="#8C15E9"/>
<path d="M827.164 215.997V201.452H829.799V207.61H836.539V201.452H839.181V215.997H836.539V209.818H829.799V215.997H827.164ZM846.862 216.21C845.769 216.21 844.824 215.983 844.029 215.529C843.238 215.069 842.629 214.421 842.203 213.583C841.777 212.74 841.564 211.748 841.564 210.607C841.564 209.485 841.777 208.5 842.203 207.652C842.634 206.8 843.235 206.137 844.007 205.664C844.779 205.185 845.686 204.946 846.727 204.946C847.4 204.946 848.034 205.055 848.631 205.273C849.232 205.486 849.762 205.817 850.222 206.267C850.686 206.717 851.05 207.29 851.316 207.986C851.581 208.677 851.713 209.501 851.713 210.458V211.246H842.771V209.513H849.249C849.244 209.021 849.137 208.583 848.929 208.199C848.721 207.811 848.43 207.505 848.056 207.283C847.686 207.06 847.255 206.949 846.763 206.949C846.237 206.949 845.776 207.077 845.378 207.333C844.98 207.584 844.67 207.915 844.448 208.327C844.23 208.734 844.119 209.182 844.114 209.669V211.182C844.114 211.816 844.23 212.361 844.462 212.816C844.694 213.265 845.018 213.611 845.435 213.852C845.851 214.089 846.339 214.208 846.898 214.208C847.272 214.208 847.61 214.156 847.914 214.051C848.217 213.942 848.479 213.784 848.702 213.575C848.924 213.367 849.092 213.109 849.206 212.801L851.607 213.071C851.455 213.706 851.166 214.26 850.74 214.733C850.319 215.202 849.779 215.566 849.121 215.827C848.463 216.083 847.71 216.21 846.862 216.21ZM857.128 216.218C856.436 216.218 855.814 216.094 855.26 215.848C854.71 215.597 854.275 215.228 853.953 214.74C853.636 214.253 853.477 213.651 853.477 212.936C853.477 212.321 853.591 211.812 853.818 211.409C854.045 211.007 854.355 210.685 854.748 210.443C855.141 210.202 855.584 210.02 856.076 209.897C856.574 209.769 857.087 209.676 857.618 209.62C858.257 209.553 858.775 209.494 859.173 209.442C859.571 209.385 859.86 209.3 860.039 209.186C860.224 209.068 860.316 208.886 860.316 208.639V208.597C860.316 208.062 860.158 207.647 859.841 207.354C859.523 207.06 859.066 206.914 858.47 206.914C857.84 206.914 857.341 207.051 856.971 207.325C856.607 207.6 856.36 207.924 856.233 208.299L853.832 207.958C854.021 207.295 854.334 206.741 854.77 206.296C855.205 205.846 855.738 205.51 856.368 205.287C856.997 205.06 857.693 204.946 858.456 204.946C858.981 204.946 859.504 205.008 860.025 205.131C860.546 205.254 861.022 205.458 861.453 205.742C861.884 206.021 862.229 206.402 862.49 206.885C862.755 207.368 862.887 207.972 862.887 208.696V215.997H860.416V214.499H860.331C860.174 214.802 859.954 215.086 859.67 215.351C859.391 215.611 859.038 215.822 858.612 215.983C858.19 216.139 857.696 216.218 857.128 216.218ZM857.795 214.328C858.311 214.328 858.759 214.227 859.137 214.023C859.516 213.815 859.807 213.54 860.011 213.199C860.219 212.858 860.324 212.486 860.324 212.084V210.799C860.243 210.865 860.106 210.926 859.912 210.983C859.722 211.04 859.509 211.09 859.272 211.132C859.036 211.175 858.801 211.213 858.569 211.246C858.337 211.279 858.136 211.308 857.966 211.331C857.582 211.383 857.239 211.468 856.936 211.587C856.633 211.705 856.394 211.871 856.218 212.084C856.043 212.292 855.956 212.562 855.956 212.894C855.956 213.367 856.128 213.725 856.474 213.966C856.82 214.208 857.26 214.328 857.795 214.328ZM869.621 216.189C868.764 216.189 867.997 215.969 867.32 215.529C866.643 215.088 866.108 214.449 865.715 213.611C865.322 212.773 865.125 211.755 865.125 210.557C865.125 209.345 865.324 208.322 865.722 207.489C866.124 206.651 866.666 206.019 867.348 205.593C868.03 205.162 868.79 204.946 869.628 204.946C870.267 204.946 870.793 205.055 871.205 205.273C871.617 205.486 871.943 205.744 872.185 206.047C872.426 206.345 872.613 206.627 872.746 206.892H872.853V201.452H875.431V215.997H872.902V214.279H872.746C872.613 214.544 872.422 214.825 872.171 215.124C871.92 215.417 871.588 215.668 871.176 215.877C870.764 216.085 870.246 216.189 869.621 216.189ZM870.338 214.08C870.883 214.08 871.347 213.933 871.73 213.639C872.114 213.341 872.405 212.927 872.604 212.397C872.803 211.866 872.902 211.248 872.902 210.543C872.902 209.837 872.803 209.224 872.604 208.703C872.41 208.183 872.121 207.778 871.737 207.489C871.359 207.2 870.892 207.056 870.338 207.056C869.765 207.056 869.287 207.205 868.904 207.503C868.52 207.801 868.231 208.213 868.037 208.739C867.843 209.264 867.746 209.866 867.746 210.543C867.746 211.225 867.843 211.833 868.037 212.368C868.236 212.898 868.527 213.317 868.911 213.625C869.299 213.928 869.775 214.08 870.338 214.08ZM878.27 215.997V205.088H880.841V215.997H878.27ZM879.563 203.54C879.156 203.54 878.805 203.405 878.512 203.135C878.218 202.861 878.071 202.531 878.071 202.148C878.071 201.76 878.218 201.431 878.512 201.161C878.805 200.886 879.156 200.749 879.563 200.749C879.975 200.749 880.325 200.886 880.614 201.161C880.908 201.431 881.054 201.76 881.054 202.148C881.054 202.531 880.908 202.861 880.614 203.135C880.325 203.405 879.975 203.54 879.563 203.54ZM886.156 209.605V215.997H883.585V205.088H886.043V206.942H886.17C886.421 206.331 886.821 205.846 887.371 205.486C887.925 205.126 888.609 204.946 889.423 204.946C890.176 204.946 890.832 205.107 891.391 205.429C891.954 205.751 892.39 206.218 892.697 206.828C893.01 207.439 893.164 208.18 893.159 209.051V215.997H890.588V209.449C890.588 208.72 890.399 208.149 890.02 207.737C889.646 207.325 889.127 207.12 888.464 207.12C888.015 207.12 887.615 207.219 887.264 207.418C886.919 207.612 886.646 207.894 886.447 208.263C886.253 208.632 886.156 209.08 886.156 209.605ZM900.617 220.316C899.694 220.316 898.901 220.19 898.238 219.939C897.575 219.693 897.042 219.361 896.64 218.945C896.237 218.528 895.958 218.066 895.802 217.56L898.117 216.999C898.221 217.212 898.373 217.423 898.572 217.631C898.77 217.844 899.038 218.019 899.374 218.156C899.715 218.299 900.144 218.37 900.66 218.37C901.389 218.37 901.992 218.192 902.471 217.837C902.949 217.486 903.188 216.909 903.188 216.104V214.037H903.06C902.928 214.302 902.733 214.575 902.478 214.854C902.227 215.133 901.893 215.368 901.476 215.557C901.064 215.746 900.546 215.841 899.921 215.841C899.083 215.841 898.323 215.645 897.641 215.252C896.964 214.854 896.424 214.262 896.022 213.476C895.624 212.685 895.425 211.696 895.425 210.507C895.425 209.309 895.624 208.299 896.022 207.475C896.424 206.646 896.966 206.019 897.648 205.593C898.33 205.162 899.09 204.946 899.928 204.946C900.567 204.946 901.093 205.055 901.505 205.273C901.921 205.486 902.253 205.744 902.499 206.047C902.745 206.345 902.932 206.627 903.06 206.892H903.202V205.088H905.738V216.175C905.738 217.108 905.515 217.879 905.07 218.49C904.625 219.101 904.017 219.558 903.245 219.861C902.473 220.164 901.597 220.316 900.617 220.316ZM900.638 213.824C901.183 213.824 901.647 213.691 902.03 213.426C902.414 213.161 902.705 212.78 902.904 212.283C903.103 211.786 903.202 211.189 903.202 210.493C903.202 209.807 903.103 209.205 902.904 208.689C902.71 208.173 902.421 207.773 902.037 207.489C901.659 207.2 901.192 207.056 900.638 207.056C900.065 207.056 899.587 207.205 899.204 207.503C898.82 207.801 898.531 208.211 898.337 208.732C898.143 209.248 898.046 209.835 898.046 210.493C898.046 211.161 898.143 211.745 898.337 212.247C898.536 212.745 898.827 213.133 899.211 213.412C899.599 213.687 900.075 213.824 900.638 213.824Z" fill="white"/>
<rect x="777.458" y="2.22003" width="178.542" height="65.5396" rx="14.4248" fill="#8C15E9"/>
<path d="M827.164 41.9898V27.4444H829.799V33.602H836.539V27.4444H839.181V41.9898H836.539V35.8108H829.799V41.9898H827.164ZM846.862 42.2029C845.769 42.2029 844.824 41.9756 844.029 41.5211C843.238 41.0618 842.629 40.4131 842.203 39.575C841.777 38.7322 841.564 37.7403 841.564 36.5992C841.564 35.477 841.777 34.4922 842.203 33.6447C842.634 32.7924 843.235 32.1295 844.007 31.656C844.779 31.1778 845.686 30.9387 846.727 30.9387C847.4 30.9387 848.034 31.0476 848.631 31.2654C849.232 31.4785 849.762 31.8099 850.222 32.2597C850.686 32.7095 851.05 33.2824 851.316 33.9785C851.581 34.6697 851.713 35.4936 851.713 36.45V37.2384H842.771V35.5054H849.249C849.244 35.013 849.137 34.575 848.929 34.1915C848.721 33.8033 848.43 33.4979 848.056 33.2753C847.686 33.0528 847.255 32.9415 846.763 32.9415C846.237 32.9415 845.776 33.0694 845.378 33.325C844.98 33.576 844.67 33.9074 844.448 34.3194C844.23 34.7266 844.119 35.174 844.114 35.6617V37.1745C844.114 37.809 844.23 38.3535 844.462 38.808C844.694 39.2578 845.018 39.6035 845.435 39.8449C845.851 40.0817 846.339 40.2 846.898 40.2C847.272 40.2 847.61 40.148 847.914 40.0438C848.217 39.9349 848.479 39.7763 848.702 39.5679C848.924 39.3596 849.092 39.1016 849.206 38.7938L851.607 39.0637C851.455 39.6982 851.166 40.2521 850.74 40.7256C850.319 41.1944 849.779 41.559 849.121 41.8194C848.463 42.075 847.71 42.2029 846.862 42.2029ZM857.128 42.21C856.436 42.21 855.814 42.0869 855.26 41.8407C854.71 41.5897 854.275 41.2204 853.953 40.7327C853.636 40.245 853.477 39.6437 853.477 38.9287C853.477 38.3132 853.591 37.8042 853.818 37.4018C854.045 36.9993 854.355 36.6773 854.748 36.4358C855.141 36.1944 855.584 36.0121 856.076 35.889C856.574 35.7611 857.087 35.6688 857.618 35.612C858.257 35.5457 858.775 35.4865 859.173 35.4344C859.571 35.3776 859.86 35.2924 860.039 35.1787C860.224 35.0604 860.316 34.8781 860.316 34.6319V34.5893C860.316 34.0542 860.158 33.6399 859.841 33.3464C859.523 33.0528 859.066 32.906 858.47 32.906C857.84 32.906 857.341 33.0433 856.971 33.3179C856.607 33.5926 856.36 33.9169 856.233 34.291L853.832 33.95C854.021 33.2872 854.334 32.7332 854.77 32.2881C855.205 31.8383 855.738 31.5021 856.368 31.2796C856.997 31.0523 857.693 30.9387 858.456 30.9387C858.981 30.9387 859.504 31.0002 860.025 31.1233C860.546 31.2465 861.022 31.45 861.453 31.7341C861.884 32.0135 862.229 32.3947 862.49 32.8776C862.755 33.3606 862.887 33.9643 862.887 34.6887V41.9898H860.416V40.4912H860.331C860.174 40.7943 859.954 41.0784 859.67 41.3435C859.391 41.6039 859.038 41.8146 858.612 41.9756C858.19 42.1319 857.696 42.21 857.128 42.21ZM857.795 40.3208C858.311 40.3208 858.759 40.219 859.137 40.0154C859.516 39.8071 859.807 39.5324 860.011 39.1915C860.219 38.8506 860.324 38.4789 860.324 38.0765V36.791C860.243 36.8572 860.106 36.9188 859.912 36.9756C859.722 37.0324 859.509 37.0822 859.272 37.1248C859.036 37.1674 858.801 37.2053 858.569 37.2384C858.337 37.2715 858.136 37.3 857.966 37.3236C857.582 37.3757 857.239 37.4609 856.936 37.5793C856.633 37.6977 856.394 37.8634 856.218 38.0765C856.043 38.2848 855.956 38.5547 855.956 38.8861C855.956 39.3596 856.128 39.7171 856.474 39.9586C856.82 40.2 857.26 40.3208 857.795 40.3208ZM869.621 42.1816C868.764 42.1816 867.997 41.9614 867.32 41.5211C866.643 41.0807 866.108 40.4415 865.715 39.6035C865.322 38.7654 865.125 37.7474 865.125 36.5495C865.125 35.3374 865.324 34.3146 865.722 33.4813C866.124 32.6432 866.666 32.0111 867.348 31.585C868.03 31.1541 868.79 30.9387 869.628 30.9387C870.267 30.9387 870.793 31.0476 871.205 31.2654C871.617 31.4785 871.943 31.7365 872.185 32.0395C872.426 32.3378 872.613 32.6196 872.746 32.8847H872.853V27.4444H875.431V41.9898H872.902V40.2711H872.746C872.613 40.5362 872.422 40.8179 872.171 41.1162C871.92 41.4098 871.588 41.6608 871.176 41.8691C870.764 42.0774 870.246 42.1816 869.621 42.1816ZM870.338 40.0722C870.883 40.0722 871.347 39.9254 871.73 39.6319C872.114 39.3336 872.405 38.9193 872.604 38.389C872.803 37.8587 872.902 37.2408 872.902 36.5353C872.902 35.8298 872.803 35.2166 872.604 34.6958C872.41 34.175 872.121 33.7701 871.737 33.4813C871.359 33.1925 870.892 33.0481 870.338 33.0481C869.765 33.0481 869.287 33.1972 868.904 33.4955C868.52 33.7938 868.231 34.2057 868.037 34.7313C867.843 35.2569 867.746 35.8582 867.746 36.5353C867.746 37.2171 867.843 37.8255 868.037 38.3606C868.236 38.8909 868.527 39.3099 868.911 39.6177C869.299 39.9207 869.775 40.0722 870.338 40.0722ZM878.27 41.9898V31.0807H880.841V41.9898H878.27ZM879.563 29.5324C879.156 29.5324 878.805 29.3975 878.512 29.1276C878.218 28.853 878.071 28.5239 878.071 28.1404C878.071 27.7521 878.218 27.4231 878.512 27.1532C878.805 26.8786 879.156 26.7412 879.563 26.7412C879.975 26.7412 880.325 26.8786 880.614 27.1532C880.908 27.4231 881.054 27.7521 881.054 28.1404C881.054 28.5239 880.908 28.853 880.614 29.1276C880.325 29.3975 879.975 29.5324 879.563 29.5324ZM886.156 35.5978V41.9898H883.585V31.0807H886.043V32.9344H886.17C886.421 32.3236 886.821 31.8383 887.371 31.4785C887.925 31.1186 888.609 30.9387 889.423 30.9387C890.176 30.9387 890.832 31.0997 891.391 31.4216C891.954 31.7436 892.39 32.21 892.697 32.8208C893.01 33.4316 893.164 34.1726 893.159 35.0438V41.9898H890.588V35.4415C890.588 34.7124 890.399 34.1418 890.02 33.7299C889.646 33.3179 889.127 33.112 888.464 33.112C888.015 33.112 887.615 33.2114 887.264 33.4103C886.919 33.6044 886.646 33.8861 886.447 34.2554C886.253 34.6248 886.156 35.0722 886.156 35.5978ZM900.617 46.308C899.694 46.308 898.901 46.1825 898.238 45.9316C897.575 45.6854 897.042 45.3539 896.64 44.9373C896.237 44.5206 895.958 44.059 895.802 43.5523L898.117 42.9912C898.221 43.2043 898.373 43.415 898.572 43.6233C898.77 43.8364 899.038 44.0116 899.374 44.1489C899.715 44.291 900.144 44.362 900.66 44.362C901.389 44.362 901.992 44.1844 902.471 43.8293C902.949 43.4789 903.188 42.9013 903.188 42.0964V40.0296H903.06C902.928 40.2947 902.733 40.567 902.478 40.8464C902.227 41.1257 901.893 41.3601 901.476 41.5495C901.064 41.7389 900.546 41.8336 899.921 41.8336C899.083 41.8336 898.323 41.6371 897.641 41.2441C896.964 40.8464 896.424 40.2545 896.022 39.4685C895.624 38.6778 895.425 37.6882 895.425 36.4998C895.425 35.3018 895.624 34.291 896.022 33.4671C896.424 32.6385 896.966 32.0111 897.648 31.585C898.33 31.1541 899.09 30.9387 899.928 30.9387C900.567 30.9387 901.093 31.0476 901.505 31.2654C901.921 31.4785 902.253 31.7365 902.499 32.0395C902.745 32.3378 902.932 32.6196 903.06 32.8847H903.202V31.0807H905.738V42.1674C905.738 43.1001 905.515 43.8719 905.07 44.4827C904.625 45.0935 904.017 45.5504 903.245 45.8535C902.473 46.1565 901.597 46.308 900.617 46.308ZM900.638 39.8165C901.183 39.8165 901.647 39.684 902.03 39.4188C902.414 39.1536 902.705 38.7725 902.904 38.2753C903.103 37.7782 903.202 37.1816 903.202 36.4856C903.202 35.799 903.103 35.1977 902.904 34.6816C902.71 34.1655 902.421 33.7654 902.037 33.4813C901.659 33.1925 901.192 33.0481 900.638 33.0481C900.065 33.0481 899.587 33.1972 899.204 33.4955C898.82 33.7938 898.531 34.2034 898.337 34.7242C898.143 35.2403 898.046 35.8274 898.046 36.4856C898.046 37.1532 898.143 37.7379 898.337 38.2398C898.536 38.737 898.827 39.1252 899.211 39.4046C899.599 39.6792 900.075 39.8165 900.638 39.8165Z" fill="white"/>
<line y1="-1" x2="128.846" y2="-1" transform="matrix(-0.855566 -0.517693 0.517912 -0.855434 375.191 99.8576)" stroke="#22DDD2" stroke-width="2" stroke-dasharray="10 10"/>
<line y1="-1" x2="90.2084" y2="-1" transform="matrix(-0.857558 -0.514387 0.514605 -0.857427 256.252 253.564)" stroke="#22DDD2" stroke-width="2" stroke-dasharray="10 10"/>
<line y1="-1" x2="67.8893" y2="-1" transform="matrix(-0.811884 0.583818 -0.58404 -0.811725 234.011 437.239)" stroke="#22DDD2" stroke-width="2" stroke-dasharray="10 10"/>
<line y1="-1" x2="129.349" y2="-1" transform="matrix(-0.852239 0.523153 -0.523373 -0.852104 376.158 586.112)" stroke="#22DDD2" stroke-width="2" stroke-dasharray="10 10"/>
<line y1="-1" x2="132.356" y2="-1" transform="matrix(0.884021 0.467447 -0.467657 0.88391 575.357 590.946)" stroke="#22DDD2" stroke-width="2" stroke-dasharray="10 10"/>
<line x1="692.363" y1="651.815" x2="777.458" y2="651.815" stroke="#22DDD2" stroke-width="2" stroke-dasharray="10 10"/>
<line y1="-1" x2="64.9761" y2="-1" transform="matrix(0.803639 0.595116 -0.595339 0.803475 725.24 438.206)" stroke="#22DDD2" stroke-width="2" stroke-dasharray="10 10"/>
<line y1="-1" x2="70.8148" y2="-1" transform="matrix(0.81931 -0.573352 0.573573 0.819154 720.406 249.697)" stroke="#22DDD2" stroke-width="2" stroke-dasharray="10 10"/>
<line y1="-1" x2="136.486" y2="-1" transform="matrix(0.864355 -0.502881 0.503098 0.864229 576.324 102.758)" stroke="#22DDD2" stroke-width="2" stroke-dasharray="10 10"/>
<line x1="694.297" y1="33.1214" x2="777.458" y2="33.1214" stroke="#22DDD2" stroke-width="2" stroke-dasharray="10 10"/>
<line x1="265.922" y1="654.782" x2="178.893" y2="654.782" stroke="#22DDD2" stroke-width="2" stroke-dasharray="10 10"/>
<line x1="264.954" y1="34.1547" x2="179.86" y2="34.1547" stroke="#22DDD2" stroke-width="2" stroke-dasharray="10 10"/>
<ellipse cx="480.593" cy="345.402" rx="120.873" ry="120.839" fill="#17072B"/>
<path d="M554.53 422.786L403.534 271.835L407.005 268.365L557.999 419.317L554.53 422.786Z" fill="#8C15E9"/>
<path d="M407.005 422.786L403.534 419.317L554.53 268.365L557.999 271.835L407.005 422.786Z" fill="#8C15E9"/>
<path d="M560.89 274.725C563.446 272.171 563.446 268.029 560.89 265.475C558.336 262.921 554.192 262.921 551.638 265.475C549.083 268.029 549.083 272.171 551.638 274.725C554.192 277.28 558.336 277.28 560.89 274.725Z" fill="#8C15E9"/>
<path d="M409.896 425.676C412.451 423.122 412.451 418.98 409.896 416.426C407.341 413.872 403.198 413.872 400.643 416.426C398.088 418.98 398.088 423.122 400.643 425.676C403.198 428.23 407.341 428.23 409.896 425.676Z" fill="#8C15E9"/>
<path d="M551.638 425.676C554.192 428.23 558.336 428.23 560.89 425.676C563.446 423.122 563.446 418.98 560.89 416.426C558.336 413.872 554.192 413.872 551.638 416.426C549.083 418.98 549.083 423.122 551.638 425.676Z" fill="#8C15E9"/>
<path d="M400.643 274.725C403.198 277.28 407.341 277.28 409.896 274.725C412.451 272.171 412.451 268.029 409.896 265.475C407.341 262.921 403.198 262.921 400.643 265.475C398.088 268.029 398.088 272.171 400.643 274.725Z" fill="#8C15E9"/>
<path d="M587.535 348.028H373.997V343.123H587.535V348.028Z" fill="#8C15E9"/>
<path d="M483.22 452.313H478.313V238.837H483.22V452.313Z" fill="#8C15E9"/>
<path d="M487.31 238.837C487.31 235.225 484.381 232.297 480.767 232.297C477.153 232.297 474.223 235.225 474.223 238.837C474.223 242.45 477.153 245.378 480.767 245.378C484.381 245.378 487.31 242.45 487.31 238.837Z" fill="#8C15E9"/>
<path d="M487.31 452.314C487.31 448.701 484.381 445.773 480.767 445.773C477.153 445.773 474.223 448.701 474.223 452.314C474.223 455.926 477.153 458.854 480.767 458.854C484.381 458.854 487.31 455.926 487.31 452.314Z" fill="#8C15E9"/>
<path d="M587.536 352.117C591.149 352.117 594.078 349.189 594.078 345.576C594.078 341.963 591.149 339.034 587.536 339.034C583.922 339.034 580.993 341.963 580.993 345.576C580.993 349.189 583.922 352.117 587.536 352.117Z" fill="#8C15E9"/>
<path d="M373.997 352.117C377.611 352.117 380.54 349.189 380.54 345.576C380.54 341.963 377.611 339.034 373.997 339.034C370.385 339.034 367.455 341.963 367.455 345.576C367.455 349.189 370.385 352.117 373.997 352.117Z" fill="#8C15E9"/>
<path d="M480.774 418.346C566.437 375.254 552.077 295.378 552.077 295.378L480.768 272.807V272.806L480.767 272.807L480.765 272.806V272.807L409.456 295.378C409.456 295.378 395.097 375.254 480.759 418.346" fill="#2E73EA"/>
<path d="M545.737 345.862C547.776 345.686 549.837 345.577 551.923 345.577H543.059C507.948 341.213 480.767 311.309 480.767 275.042V274.472C480.767 313.743 448.91 345.577 409.611 345.577C448.91 345.577 480.767 377.411 480.767 416.679C480.767 380.413 507.948 350.508 543.059 346.145H551.923C549.837 346.145 547.776 346.037 545.737 345.862Z" fill="#22DDD2"/>
</svg>
