<svg width="1363" height="163" viewBox="0 0 1363 163" fill="none" xmlns="http://www.w3.org/2000/svg">
<path d="M0 15C0 6.71573 6.71573 0 15 0H37V163H15C6.71573 163 0 156.284 0 148V15Z" fill="#424242"/>
<rect width="1097" height="163" transform="translate(37)" fill="#F0F0F0"/>
<path d="M101.906 53.9219L94.3945 51.2383V48.0859L104.602 52.375V54.6367L101.906 53.9219ZM94.3945 56.1719L101.918 53.4297L104.602 52.7852V55.0352L94.3945 59.3242V56.1719ZM122.789 55.3398H126.293C126.223 56.4883 125.906 57.5078 125.344 58.3984C124.789 59.2891 124.012 59.9844 123.012 60.4844C122.02 60.9844 120.824 61.2344 119.426 61.2344C118.332 61.2344 117.352 61.0469 116.484 60.6719C115.617 60.2891 114.875 59.7422 114.258 59.0312C113.648 58.3203 113.184 57.4609 112.863 56.4531C112.543 55.4453 112.383 54.3164 112.383 53.0664V51.8828C112.383 50.6328 112.547 49.5039 112.875 48.4961C113.211 47.4805 113.688 46.6172 114.305 45.9062C114.93 45.1953 115.676 44.6484 116.543 44.2656C117.41 43.8828 118.379 43.6914 119.449 43.6914C120.871 43.6914 122.07 43.9492 123.047 44.4648C124.031 44.9805 124.793 45.6914 125.332 46.5977C125.879 47.5039 126.207 48.5352 126.316 49.6914H122.801C122.762 49.0039 122.625 48.4219 122.391 47.9453C122.156 47.4609 121.801 47.0977 121.324 46.8555C120.855 46.6055 120.23 46.4805 119.449 46.4805C118.863 46.4805 118.352 46.5898 117.914 46.8086C117.477 47.0273 117.109 47.3594 116.812 47.8047C116.516 48.25 116.293 48.8125 116.145 49.4922C116.004 50.1641 115.934 50.9531 115.934 51.8594V53.0664C115.934 53.9492 116 54.7266 116.133 55.3984C116.266 56.0625 116.469 56.625 116.742 57.0859C117.023 57.5391 117.383 57.8828 117.82 58.1172C118.266 58.3438 118.801 58.457 119.426 58.457C120.16 58.457 120.766 58.3398 121.242 58.1055C121.719 57.8711 122.082 57.5234 122.332 57.0625C122.59 56.6016 122.742 56.0273 122.789 55.3398ZM132.152 59.5703L135.516 48.3203H139.137L134.039 62.9102C133.93 63.2305 133.781 63.5742 133.594 63.9414C133.414 64.3086 133.168 64.6562 132.855 64.9844C132.551 65.3203 132.164 65.5938 131.695 65.8047C131.234 66.0156 130.668 66.1211 129.996 66.1211C129.676 66.1211 129.414 66.1016 129.211 66.0625C129.008 66.0234 128.766 65.9688 128.484 65.8984V63.4258C128.57 63.4258 128.66 63.4258 128.754 63.4258C128.848 63.4336 128.938 63.4375 129.023 63.4375C129.469 63.4375 129.832 63.3867 130.113 63.2852C130.395 63.1836 130.621 63.0273 130.793 62.8164C130.965 62.6133 131.102 62.3477 131.203 62.0195L132.152 59.5703ZM130.746 48.3203L133.5 57.5078L133.98 61.082L131.684 61.3281L127.125 48.3203H130.746ZM140.484 43H143.859V58.0938L143.52 61H140.484V43ZM151.887 54.5312V54.7773C151.887 55.7227 151.785 56.5898 151.582 57.3789C151.387 58.168 151.082 58.8516 150.668 59.4297C150.254 60 149.738 60.4453 149.121 60.7656C148.512 61.0781 147.793 61.2344 146.965 61.2344C146.191 61.2344 145.52 61.0781 144.949 60.7656C144.387 60.4531 143.914 60.0117 143.531 59.4414C143.148 58.8711 142.84 58.2031 142.605 57.4375C142.371 56.6719 142.195 55.8359 142.078 54.9297V54.3906C142.195 53.4844 142.371 52.6484 142.605 51.8828C142.84 51.1172 143.148 50.4492 143.531 49.8789C143.914 49.3086 144.387 48.8672 144.949 48.5547C145.512 48.2422 146.176 48.0859 146.941 48.0859C147.777 48.0859 148.504 48.2461 149.121 48.5664C149.746 48.8789 150.262 49.3242 150.668 49.9023C151.082 50.4727 151.387 51.1523 151.582 51.9414C151.785 52.7227 151.887 53.5859 151.887 54.5312ZM148.512 54.7773V54.5312C148.512 54.0156 148.473 53.5312 148.395 53.0781C148.324 52.6172 148.199 52.2148 148.02 51.8711C147.84 51.5195 147.594 51.2422 147.281 51.0391C146.977 50.8359 146.582 50.7344 146.098 50.7344C145.637 50.7344 145.246 50.8125 144.926 50.9688C144.605 51.125 144.34 51.3438 144.129 51.625C143.926 51.9062 143.773 52.2422 143.672 52.6328C143.57 53.0156 143.508 53.4375 143.484 53.8984V55.4336C143.508 56.0508 143.609 56.5977 143.789 57.0742C143.977 57.543 144.258 57.9141 144.633 58.1875C145.016 58.4531 145.512 58.5859 146.121 58.5859C146.598 58.5859 146.992 58.4922 147.305 58.3047C147.617 58.1172 147.859 57.8516 148.031 57.5078C148.211 57.1641 148.336 56.7617 148.406 56.3008C148.477 55.832 148.512 55.3242 148.512 54.7773ZM159.82 61.2344C158.836 61.2344 157.953 61.0781 157.172 60.7656C156.391 60.4453 155.727 60.0039 155.18 59.4414C154.641 58.8789 154.227 58.2266 153.938 57.4844C153.648 56.7344 153.504 55.9375 153.504 55.0938V54.625C153.504 53.6641 153.641 52.7852 153.914 51.9883C154.188 51.1914 154.578 50.5 155.086 49.9141C155.602 49.3281 156.227 48.8789 156.961 48.5664C157.695 48.2461 158.523 48.0859 159.445 48.0859C160.344 48.0859 161.141 48.2344 161.836 48.5312C162.531 48.8281 163.113 49.25 163.582 49.7969C164.059 50.3438 164.418 51 164.66 51.7656C164.902 52.5234 165.023 53.3672 165.023 54.2969V55.7031H154.945V53.4531H161.707V53.1953C161.707 52.7266 161.621 52.3086 161.449 51.9414C161.285 51.5664 161.035 51.2695 160.699 51.0508C160.363 50.832 159.934 50.7227 159.41 50.7227C158.965 50.7227 158.582 50.8203 158.262 51.0156C157.941 51.2109 157.68 51.4844 157.477 51.8359C157.281 52.1875 157.133 52.6016 157.031 53.0781C156.938 53.5469 156.891 54.0625 156.891 54.625V55.0938C156.891 55.6016 156.961 56.0703 157.102 56.5C157.25 56.9297 157.457 57.3008 157.723 57.6133C157.996 57.9258 158.324 58.168 158.707 58.3398C159.098 58.5117 159.539 58.5977 160.031 58.5977C160.641 58.5977 161.207 58.4805 161.73 58.2461C162.262 58.0039 162.719 57.6406 163.102 57.1562L164.742 58.9375C164.477 59.3203 164.113 59.6875 163.652 60.0391C163.199 60.3906 162.652 60.6797 162.012 60.9062C161.371 61.125 160.641 61.2344 159.82 61.2344ZM170.32 51.0859V61H166.945V48.3203H170.121L170.32 51.0859ZM174.141 48.2383L174.082 51.3672C173.918 51.3438 173.719 51.3242 173.484 51.3086C173.258 51.2852 173.051 51.2734 172.863 51.2734C172.387 51.2734 171.973 51.3359 171.621 51.4609C171.277 51.5781 170.988 51.7539 170.754 51.9883C170.527 52.2227 170.355 52.5078 170.238 52.8438C170.129 53.1797 170.066 53.5625 170.051 53.9922L169.371 53.7812C169.371 52.9609 169.453 52.207 169.617 51.5195C169.781 50.8242 170.02 50.2188 170.332 49.7031C170.652 49.1875 171.043 48.7891 171.504 48.5078C171.965 48.2266 172.492 48.0859 173.086 48.0859C173.273 48.0859 173.465 48.1016 173.66 48.1328C173.855 48.1562 174.016 48.1914 174.141 48.2383ZM182.59 54.918H178.242V52.1758H182.59C183.262 52.1758 183.809 52.0664 184.23 51.8477C184.652 51.6211 184.961 51.3086 185.156 50.9102C185.352 50.5117 185.449 50.0625 185.449 49.5625C185.449 49.0547 185.352 48.582 185.156 48.1445C184.961 47.707 184.652 47.3555 184.23 47.0898C183.809 46.8242 183.262 46.6914 182.59 46.6914H179.461V61H175.945V43.9375H182.59C183.926 43.9375 185.07 44.1797 186.023 44.6641C186.984 45.1406 187.719 45.8008 188.227 46.6445C188.734 47.4883 188.988 48.4531 188.988 49.5391C188.988 50.6406 188.734 51.5938 188.227 52.3984C187.719 53.2031 186.984 53.8242 186.023 54.2617C185.07 54.6992 183.926 54.918 182.59 54.918ZM197.906 58.1406V52.4922C197.906 52.0859 197.84 51.7383 197.707 51.4492C197.574 51.1523 197.367 50.9219 197.086 50.7578C196.812 50.5938 196.457 50.5117 196.02 50.5117C195.645 50.5117 195.32 50.5781 195.047 50.7109C194.773 50.8359 194.562 51.0195 194.414 51.2617C194.266 51.4961 194.191 51.7734 194.191 52.0938H190.816C190.816 51.5547 190.941 51.043 191.191 50.5586C191.441 50.0742 191.805 49.6484 192.281 49.2812C192.758 48.9062 193.324 48.6133 193.98 48.4023C194.645 48.1914 195.387 48.0859 196.207 48.0859C197.191 48.0859 198.066 48.25 198.832 48.5781C199.598 48.9062 200.199 49.3984 200.637 50.0547C201.082 50.7109 201.305 51.5312 201.305 52.5156V57.9414C201.305 58.6367 201.348 59.207 201.434 59.6523C201.52 60.0898 201.645 60.4727 201.809 60.8008V61H198.398C198.234 60.6562 198.109 60.2266 198.023 59.7109C197.945 59.1875 197.906 58.6641 197.906 58.1406ZM198.352 53.2773L198.375 55.1875H196.488C196.043 55.1875 195.656 55.2383 195.328 55.3398C195 55.4414 194.73 55.5859 194.52 55.7734C194.309 55.9531 194.152 56.1641 194.051 56.4062C193.957 56.6484 193.91 56.9141 193.91 57.2031C193.91 57.4922 193.977 57.7539 194.109 57.9883C194.242 58.2148 194.434 58.3945 194.684 58.5273C194.934 58.6523 195.227 58.7148 195.562 58.7148C196.07 58.7148 196.512 58.6133 196.887 58.4102C197.262 58.207 197.551 57.957 197.754 57.6602C197.965 57.3633 198.074 57.082 198.082 56.8164L198.973 58.2461C198.848 58.5664 198.676 58.8984 198.457 59.2422C198.246 59.5859 197.977 59.9102 197.648 60.2148C197.32 60.5117 196.926 60.7578 196.465 60.9531C196.004 61.1406 195.457 61.2344 194.824 61.2344C194.02 61.2344 193.289 61.0742 192.633 60.7539C191.984 60.4258 191.469 59.9766 191.086 59.4062C190.711 58.8281 190.523 58.1719 190.523 57.4375C190.523 56.7734 190.648 56.1836 190.898 55.668C191.148 55.1523 191.516 54.7188 192 54.3672C192.492 54.0078 193.105 53.7383 193.84 53.5586C194.574 53.3711 195.426 53.2773 196.395 53.2773H198.352ZM207.469 43V61H204.082V43H207.469Z" fill="#888888"/>
<path d="M109.219 107.422H100.734V101.07H109.219C110.375 101.07 111.312 100.875 112.031 100.484C112.75 100.094 113.273 99.5547 113.602 98.8672C113.945 98.1641 114.117 97.375 114.117 96.5C114.117 95.5625 113.945 94.6953 113.602 93.8984C113.273 93.1016 112.75 92.4609 112.031 91.9766C111.312 91.4766 110.375 91.2266 109.219 91.2266H103.828V119H95.6016V84.875H109.219C111.953 84.875 114.305 85.375 116.273 86.375C118.258 87.375 119.781 88.75 120.844 90.5C121.906 92.2344 122.438 94.2188 122.438 96.4531C122.438 98.6562 121.906 100.578 120.844 102.219C119.781 103.859 118.258 105.141 116.273 106.062C114.305 106.969 111.953 107.422 109.219 107.422ZM134.461 99.9219V119H126.562V93.6406H133.945L134.461 99.9219ZM141.961 93.4531L141.82 100.789C141.508 100.758 141.086 100.719 140.555 100.672C140.023 100.625 139.578 100.602 139.219 100.602C138.297 100.602 137.5 100.711 136.828 100.93C136.172 101.133 135.625 101.445 135.188 101.867C134.766 102.273 134.453 102.789 134.25 103.414C134.062 104.039 133.977 104.766 133.992 105.594L132.562 104.656C132.562 102.953 132.727 101.406 133.055 100.016C133.398 98.6094 133.883 97.3984 134.508 96.3828C135.133 95.3516 135.891 94.5625 136.781 94.0156C137.672 93.4531 138.672 93.1719 139.781 93.1719C140.172 93.1719 140.555 93.1953 140.93 93.2422C141.32 93.2891 141.664 93.3594 141.961 93.4531ZM142.852 106.578V106.086C142.852 104.227 143.117 102.516 143.648 100.953C144.18 99.375 144.961 98.0078 145.992 96.8516C147.023 95.6953 148.297 94.7969 149.812 94.1562C151.328 93.5 153.078 93.1719 155.062 93.1719C157.062 93.1719 158.82 93.5 160.336 94.1562C161.867 94.7969 163.148 95.6953 164.18 96.8516C165.211 98.0078 165.992 99.375 166.523 100.953C167.055 102.516 167.32 104.227 167.32 106.086V106.578C167.32 108.422 167.055 110.133 166.523 111.711C165.992 113.273 165.211 114.641 164.18 115.812C163.148 116.969 161.875 117.867 160.359 118.508C158.844 119.148 157.094 119.469 155.109 119.469C153.125 119.469 151.367 119.148 149.836 118.508C148.305 117.867 147.023 116.969 145.992 115.812C144.961 114.641 144.18 113.273 143.648 111.711C143.117 110.133 142.852 108.422 142.852 106.578ZM150.75 106.086V106.578C150.75 107.531 150.82 108.422 150.961 109.25C151.102 110.078 151.336 110.805 151.664 111.43C151.992 112.039 152.438 112.516 153 112.859C153.562 113.203 154.266 113.375 155.109 113.375C155.938 113.375 156.625 113.203 157.172 112.859C157.734 112.516 158.18 112.039 158.508 111.43C158.836 110.805 159.07 110.078 159.211 109.25C159.352 108.422 159.422 107.531 159.422 106.578V106.086C159.422 105.164 159.352 104.297 159.211 103.484C159.07 102.656 158.836 101.93 158.508 101.305C158.18 100.664 157.734 100.164 157.172 99.8047C156.609 99.4453 155.906 99.2656 155.062 99.2656C154.234 99.2656 153.539 99.4453 152.977 99.8047C152.43 100.164 151.992 100.664 151.664 101.305C151.336 101.93 151.102 102.656 150.961 103.484C150.82 104.297 150.75 105.164 150.75 106.086ZM184.195 93.6406V99.125H168.914V93.6406H184.195ZM172.125 87.3359H180.023V110.727C180.023 111.398 180.102 111.922 180.258 112.297C180.414 112.656 180.68 112.914 181.055 113.07C181.445 113.211 181.961 113.281 182.602 113.281C183.055 113.281 183.43 113.273 183.727 113.258C184.023 113.227 184.305 113.188 184.57 113.141V118.789C183.898 119.008 183.195 119.172 182.461 119.281C181.727 119.406 180.945 119.469 180.117 119.469C178.43 119.469 176.984 119.203 175.781 118.672C174.594 118.141 173.688 117.305 173.062 116.164C172.438 115.023 172.125 113.539 172.125 111.711V87.3359ZM185.648 106.578V106.086C185.648 104.227 185.914 102.516 186.445 100.953C186.977 99.375 187.758 98.0078 188.789 96.8516C189.82 95.6953 191.094 94.7969 192.609 94.1562C194.125 93.5 195.875 93.1719 197.859 93.1719C199.859 93.1719 201.617 93.5 203.133 94.1562C204.664 94.7969 205.945 95.6953 206.977 96.8516C208.008 98.0078 208.789 99.375 209.32 100.953C209.852 102.516 210.117 104.227 210.117 106.086V106.578C210.117 108.422 209.852 110.133 209.32 111.711C208.789 113.273 208.008 114.641 206.977 115.812C205.945 116.969 204.672 117.867 203.156 118.508C201.641 119.148 199.891 119.469 197.906 119.469C195.922 119.469 194.164 119.148 192.633 118.508C191.102 117.867 189.82 116.969 188.789 115.812C187.758 114.641 186.977 113.273 186.445 111.711C185.914 110.133 185.648 108.422 185.648 106.578ZM193.547 106.086V106.578C193.547 107.531 193.617 108.422 193.758 109.25C193.898 110.078 194.133 110.805 194.461 111.43C194.789 112.039 195.234 112.516 195.797 112.859C196.359 113.203 197.062 113.375 197.906 113.375C198.734 113.375 199.422 113.203 199.969 112.859C200.531 112.516 200.977 112.039 201.305 111.43C201.633 110.805 201.867 110.078 202.008 109.25C202.148 108.422 202.219 107.531 202.219 106.578V106.086C202.219 105.164 202.148 104.297 202.008 103.484C201.867 102.656 201.633 101.93 201.305 101.305C200.977 100.664 200.531 100.164 199.969 99.8047C199.406 99.4453 198.703 99.2656 197.859 99.2656C197.031 99.2656 196.336 99.4453 195.773 99.8047C195.227 100.164 194.789 100.664 194.461 101.305C194.133 101.93 193.898 102.656 193.758 103.484C193.617 104.297 193.547 105.164 193.547 106.086ZM226.992 93.6406V99.125H211.711V93.6406H226.992ZM214.922 87.3359H222.82V110.727C222.82 111.398 222.898 111.922 223.055 112.297C223.211 112.656 223.477 112.914 223.852 113.07C224.242 113.211 224.758 113.281 225.398 113.281C225.852 113.281 226.227 113.273 226.523 113.258C226.82 113.227 227.102 113.188 227.367 113.141V118.789C226.695 119.008 225.992 119.172 225.258 119.281C224.523 119.406 223.742 119.469 222.914 119.469C221.227 119.469 219.781 119.203 218.578 118.672C217.391 118.141 216.484 117.305 215.859 116.164C215.234 115.023 214.922 113.539 214.922 111.711V87.3359ZM237.914 116.023L244.477 93.6406H252.961L242.766 122.773C242.547 123.414 242.258 124.102 241.898 124.836C241.539 125.586 241.047 126.297 240.422 126.969C239.797 127.641 238.992 128.188 238.008 128.609C237.039 129.031 235.836 129.242 234.398 129.242C233.633 129.242 233.07 129.203 232.711 129.125C232.367 129.062 231.836 128.945 231.117 128.773V123.125C231.32 123.125 231.492 123.125 231.633 123.125C231.789 123.125 231.961 123.125 232.148 123.125C232.992 123.125 233.664 123.039 234.164 122.867C234.68 122.695 235.07 122.445 235.336 122.117C235.617 121.789 235.836 121.391 235.992 120.922L237.914 116.023ZM236.25 93.6406L241.242 111.383L242.109 119.75H236.812L227.789 93.6406H236.25ZM262.992 98.5156V128.75H255.094V93.6406H262.453L262.992 98.5156ZM278.555 106.016V106.508C278.555 108.352 278.344 110.062 277.922 111.641C277.5 113.219 276.875 114.594 276.047 115.766C275.219 116.938 274.188 117.852 272.953 118.508C271.734 119.148 270.32 119.469 268.711 119.469C267.195 119.469 265.891 119.133 264.797 118.461C263.703 117.789 262.789 116.859 262.055 115.672C261.32 114.484 260.727 113.125 260.273 111.594C259.82 110.062 259.461 108.445 259.195 106.742V106.109C259.461 104.281 259.82 102.586 260.273 101.023C260.727 99.4453 261.32 98.0703 262.055 96.8984C262.789 95.7266 263.695 94.8125 264.773 94.1562C265.867 93.5 267.172 93.1719 268.688 93.1719C270.297 93.1719 271.711 93.4766 272.93 94.0859C274.164 94.6953 275.195 95.5703 276.023 96.7109C276.867 97.8359 277.5 99.1875 277.922 100.766C278.344 102.344 278.555 104.094 278.555 106.016ZM270.656 106.508V106.016C270.656 105.031 270.586 104.133 270.445 103.32C270.305 102.492 270.078 101.773 269.766 101.164C269.469 100.555 269.07 100.086 268.57 99.7578C268.07 99.4297 267.453 99.2656 266.719 99.2656C265.875 99.2656 265.164 99.3984 264.586 99.6641C264.023 99.9141 263.57 100.305 263.227 100.836C262.898 101.352 262.664 102 262.523 102.781C262.398 103.547 262.344 104.445 262.359 105.477V107.398C262.328 108.586 262.445 109.633 262.711 110.539C262.977 111.43 263.438 112.125 264.094 112.625C264.75 113.125 265.641 113.375 266.766 113.375C267.516 113.375 268.141 113.203 268.641 112.859C269.141 112.5 269.539 112.008 269.836 111.383C270.133 110.742 270.344 110.008 270.469 109.18C270.594 108.352 270.656 107.461 270.656 106.508ZM290.414 93.6406V119H282.492V93.6406H290.414ZM282.023 87.1016C282.023 85.9766 282.43 85.0547 283.242 84.3359C284.055 83.6172 285.109 83.2578 286.406 83.2578C287.703 83.2578 288.758 83.6172 289.57 84.3359C290.383 85.0547 290.789 85.9766 290.789 87.1016C290.789 88.2266 290.383 89.1484 289.57 89.8672C288.758 90.5859 287.703 90.9453 286.406 90.9453C285.109 90.9453 284.055 90.5859 283.242 89.8672C282.43 89.1484 282.023 88.2266 282.023 87.1016ZM303.047 99.0547V119H295.148V93.6406H302.555L303.047 99.0547ZM302.109 105.453L300.258 105.5C300.258 103.562 300.492 101.836 300.961 100.32C301.43 98.7891 302.094 97.4922 302.953 96.4297C303.812 95.3672 304.836 94.5625 306.023 94.0156C307.227 93.4531 308.562 93.1719 310.031 93.1719C311.203 93.1719 312.273 93.3438 313.242 93.6875C314.227 94.0312 315.07 94.5859 315.773 95.3516C316.492 96.1172 317.039 97.1328 317.414 98.3984C317.805 99.6484 318 101.195 318 103.039V119H310.055V103.016C310.055 102 309.914 101.227 309.633 100.695C309.352 100.148 308.945 99.7734 308.414 99.5703C307.883 99.3672 307.234 99.2656 306.469 99.2656C305.656 99.2656 304.969 99.4219 304.406 99.7344C303.844 100.047 303.391 100.484 303.047 101.047C302.719 101.594 302.477 102.242 302.32 102.992C302.18 103.742 302.109 104.562 302.109 105.453ZM338.32 93.6406H345.492V118.016C345.492 120.359 344.953 122.344 343.875 123.969C342.797 125.609 341.289 126.852 339.352 127.695C337.43 128.555 335.18 128.984 332.602 128.984C331.461 128.984 330.297 128.836 329.109 128.539C327.922 128.258 326.812 127.836 325.781 127.273C324.75 126.711 323.883 126.016 323.18 125.188L326.484 120.547C327.125 121.266 327.93 121.875 328.898 122.375C329.867 122.891 331.008 123.148 332.32 123.148C333.461 123.148 334.414 122.945 335.18 122.539C335.961 122.133 336.555 121.539 336.961 120.758C337.367 119.992 337.57 119.062 337.57 117.969V99.6406L338.32 93.6406ZM321.469 106.625V106.133C321.469 104.211 321.703 102.461 322.172 100.883C322.656 99.2891 323.344 97.9219 324.234 96.7812C325.141 95.625 326.234 94.7344 327.516 94.1094C328.797 93.4844 330.242 93.1719 331.852 93.1719C333.586 93.1719 335.008 93.5078 336.117 94.1797C337.242 94.8359 338.141 95.7578 338.812 96.9453C339.5 98.1328 340.031 99.5234 340.406 101.117C340.797 102.695 341.125 104.398 341.391 106.227V106.812C341.125 108.531 340.758 110.156 340.289 111.688C339.836 113.203 339.242 114.547 338.508 115.719C337.773 116.891 336.852 117.812 335.742 118.484C334.648 119.141 333.336 119.469 331.805 119.469C330.211 119.469 328.773 119.148 327.492 118.508C326.227 117.867 325.141 116.969 324.234 115.812C323.344 114.656 322.656 113.297 322.172 111.734C321.703 110.172 321.469 108.469 321.469 106.625ZM329.367 106.133V106.625C329.367 107.578 329.453 108.461 329.625 109.273C329.812 110.086 330.094 110.805 330.469 111.43C330.844 112.039 331.305 112.516 331.852 112.859C332.414 113.203 333.07 113.375 333.82 113.375C334.961 113.375 335.883 113.133 336.586 112.648C337.289 112.164 337.797 111.477 338.109 110.586C338.422 109.695 338.555 108.648 338.508 107.445V105.594C338.539 104.562 338.469 103.656 338.297 102.875C338.125 102.078 337.852 101.414 337.477 100.883C337.117 100.352 336.633 99.9531 336.023 99.6875C335.43 99.4062 334.711 99.2656 333.867 99.2656C333.133 99.2656 332.484 99.4375 331.922 99.7812C331.359 100.125 330.891 100.609 330.516 101.234C330.141 101.844 329.852 102.57 329.648 103.414C329.461 104.242 329.367 105.148 329.367 106.133Z" fill="black"/>
<path d="M1134 0H1348C1356.28 0 1363 6.71573 1363 15V148C1363 156.284 1356.28 163 1348 163H1134V0Z" fill="#6200AF"/>
<path fill-rule="evenodd" clip-rule="evenodd" d="M1202.75 46.5018C1202.75 45.3973 1203.65 44.5018 1204.75 44.5018H1292.25C1293.35 44.5018 1294.25 45.3973 1294.25 46.5018V116.498C1294.25 117.603 1293.35 118.498 1292.25 118.498H1204.75C1203.65 118.498 1202.75 117.603 1202.75 116.498V46.5018ZM1206.75 48.5018V52.9963H1290.25V48.5018H1206.75ZM1290.25 56.9963H1235.19V114.498H1290.25V56.9963ZM1231.19 114.498V56.9963H1206.75V114.498H1231.19Z" fill="white"/>
<path fill-rule="evenodd" clip-rule="evenodd" d="M1209.72 62.3022C1209.72 61.1976 1210.62 60.3022 1211.72 60.3022H1225.72C1226.83 60.3022 1227.72 61.1976 1227.72 62.3022V81.6974C1227.72 82.802 1226.83 83.6974 1225.72 83.6974H1211.72C1210.62 83.6974 1209.72 82.802 1209.72 81.6974V62.3022ZM1213.72 64.3022V79.6974H1223.72V64.3022H1213.72ZM1239.33 63.1982C1239.33 62.0936 1240.22 61.1982 1241.33 61.1982H1284.25C1285.36 61.1982 1286.25 62.0936 1286.25 63.1982V109.407C1286.25 110.511 1285.36 111.407 1284.25 111.407H1241.33C1240.22 111.407 1239.33 110.511 1239.33 109.407V63.1982ZM1243.33 65.1982V107.407H1282.25V65.1982H1243.33ZM1209.56 93.4381C1209.56 92.3336 1210.46 91.4381 1211.56 91.4381H1220.48C1221.59 91.4381 1222.48 92.3336 1222.48 93.4381C1222.48 94.5427 1221.59 95.4381 1220.48 95.4381H1211.56C1210.46 95.4381 1209.56 94.5427 1209.56 93.4381ZM1209.56 100.438C1209.56 99.3335 1210.46 98.4381 1211.56 98.4381H1226.1C1227.21 98.4381 1228.1 99.3335 1228.1 100.438C1228.1 101.543 1227.21 102.438 1226.1 102.438H1211.56C1210.46 102.438 1209.56 101.543 1209.56 100.438ZM1209.56 107.438C1209.56 106.334 1210.46 105.438 1211.56 105.438H1220.48C1221.59 105.438 1222.48 106.334 1222.48 107.438C1222.48 108.543 1221.59 109.438 1220.48 109.438H1211.56C1210.46 109.438 1209.56 108.543 1209.56 107.438Z" fill="white"/>
</svg>
