<svg width="1363" height="297" viewBox="0 0 1363 297" fill="none" xmlns="http://www.w3.org/2000/svg">
<path d="M0 15C0 6.71573 6.71573 0 15 0H37V297H15C6.71573 297 0 290.284 0 282V15Z" fill="#6200AF"/>
<path d="M37 0H1066V297H37V0Z" fill="#F0F0F0"/>
<path d="M97.6934 49.4062H102.158L108.732 68.1973L115.307 49.4062H119.771L110.525 75H106.939L97.6934 49.4062ZM95.2852 49.4062H99.7324L100.541 67.7227V75H95.2852V49.4062ZM117.732 49.4062H122.197V75H116.924V67.7227L117.732 49.4062ZM125.695 65.6836V65.3145C125.695 63.9199 125.895 62.6367 126.293 61.4648C126.691 60.2812 127.271 59.2559 128.033 58.3887C128.795 57.5215 129.732 56.8477 130.846 56.3672C131.959 55.875 133.236 55.6289 134.678 55.6289C136.119 55.6289 137.402 55.875 138.527 56.3672C139.652 56.8477 140.596 57.5215 141.357 58.3887C142.131 59.2559 142.717 60.2812 143.115 61.4648C143.514 62.6367 143.713 63.9199 143.713 65.3145V65.6836C143.713 67.0664 143.514 68.3496 143.115 69.5332C142.717 70.7051 142.131 71.7305 141.357 72.6094C140.596 73.4766 139.658 74.1504 138.545 74.6309C137.432 75.1113 136.154 75.3516 134.713 75.3516C133.271 75.3516 131.988 75.1113 130.863 74.6309C129.75 74.1504 128.807 73.4766 128.033 72.6094C127.271 71.7305 126.691 70.7051 126.293 69.5332C125.895 68.3496 125.695 67.0664 125.695 65.6836ZM130.758 65.3145V65.6836C130.758 66.4805 130.828 67.2246 130.969 67.916C131.109 68.6074 131.332 69.2168 131.637 69.7441C131.953 70.2598 132.363 70.6641 132.867 70.957C133.371 71.25 133.986 71.3965 134.713 71.3965C135.416 71.3965 136.02 71.25 136.523 70.957C137.027 70.6641 137.432 70.2598 137.736 69.7441C138.041 69.2168 138.264 68.6074 138.404 67.916C138.557 67.2246 138.633 66.4805 138.633 65.6836V65.3145C138.633 64.541 138.557 63.8145 138.404 63.1348C138.264 62.4434 138.035 61.834 137.719 61.3066C137.414 60.7676 137.01 60.3457 136.506 60.041C136.002 59.7363 135.393 59.584 134.678 59.584C133.963 59.584 133.354 59.7363 132.85 60.041C132.357 60.3457 131.953 60.7676 131.637 61.3066C131.332 61.834 131.109 62.4434 130.969 63.1348C130.828 63.8145 130.758 64.541 130.758 65.3145ZM151.764 48V75H146.701V48H151.764ZM151.043 64.8223H149.654C149.666 63.498 149.842 62.2793 150.182 61.166C150.521 60.041 151.008 59.0684 151.641 58.248C152.273 57.416 153.029 56.7715 153.908 56.3145C154.799 55.8574 155.783 55.6289 156.861 55.6289C157.799 55.6289 158.648 55.7637 159.41 56.0332C160.184 56.291 160.846 56.7129 161.396 57.2988C161.959 57.873 162.393 58.6289 162.697 59.5664C163.002 60.5039 163.154 61.6406 163.154 62.9766V75H158.057V62.9414C158.057 62.0977 157.934 61.4355 157.688 60.9551C157.453 60.4629 157.107 60.1172 156.65 59.918C156.205 59.707 155.654 59.6016 154.998 59.6016C154.271 59.6016 153.65 59.7363 153.135 60.0059C152.631 60.2754 152.227 60.6504 151.922 61.1309C151.617 61.5996 151.395 62.1504 151.254 62.7832C151.113 63.416 151.043 64.0957 151.043 64.8223ZM177.27 70.7109V62.2383C177.27 61.6289 177.17 61.1074 176.971 60.6738C176.771 60.2285 176.461 59.8828 176.039 59.6367C175.629 59.3906 175.096 59.2676 174.439 59.2676C173.877 59.2676 173.391 59.3672 172.98 59.5664C172.57 59.7539 172.254 60.0293 172.031 60.3926C171.809 60.7441 171.697 61.1602 171.697 61.6406H166.635C166.635 60.832 166.822 60.0645 167.197 59.3379C167.572 58.6113 168.117 57.9727 168.832 57.4219C169.547 56.8594 170.396 56.4199 171.381 56.1035C172.377 55.7871 173.49 55.6289 174.721 55.6289C176.197 55.6289 177.51 55.875 178.658 56.3672C179.807 56.8594 180.709 57.5977 181.365 58.582C182.033 59.5664 182.367 60.7969 182.367 62.2734V70.4121C182.367 71.4551 182.432 72.3105 182.561 72.9785C182.689 73.6348 182.877 74.209 183.123 74.7012V75H178.008C177.762 74.4844 177.574 73.8398 177.445 73.0664C177.328 72.2812 177.27 71.4961 177.27 70.7109ZM177.938 63.416L177.973 66.2812H175.143C174.475 66.2812 173.895 66.3574 173.402 66.5098C172.91 66.6621 172.506 66.8789 172.189 67.1602C171.873 67.4297 171.639 67.7461 171.486 68.1094C171.346 68.4727 171.275 68.8711 171.275 69.3047C171.275 69.7383 171.375 70.1309 171.574 70.4824C171.773 70.8223 172.061 71.0918 172.436 71.291C172.811 71.4785 173.25 71.5723 173.754 71.5723C174.516 71.5723 175.178 71.4199 175.74 71.1152C176.303 70.8105 176.736 70.4355 177.041 69.9902C177.357 69.5449 177.521 69.123 177.533 68.7246L178.869 70.8691C178.682 71.3496 178.424 71.8477 178.096 72.3633C177.779 72.8789 177.375 73.3652 176.883 73.8223C176.391 74.2676 175.799 74.6367 175.107 74.9297C174.416 75.2109 173.596 75.3516 172.646 75.3516C171.439 75.3516 170.344 75.1113 169.359 74.6309C168.387 74.1387 167.613 73.4648 167.039 72.6094C166.477 71.7422 166.195 70.7578 166.195 69.6562C166.195 68.6602 166.383 67.7754 166.758 67.002C167.133 66.2285 167.684 65.5781 168.41 65.0508C169.148 64.5117 170.068 64.1074 171.17 63.8379C172.271 63.5566 173.549 63.416 175.002 63.416H177.938ZM191.332 59.918V75H186.252V55.9805H191.016L191.332 59.918ZM190.629 64.8223H189.223C189.223 63.498 189.381 62.2793 189.697 61.166C190.025 60.041 190.5 59.0684 191.121 58.248C191.754 57.416 192.533 56.7715 193.459 56.3145C194.385 55.8574 195.457 55.6289 196.676 55.6289C197.52 55.6289 198.293 55.7578 198.996 56.0156C199.699 56.2617 200.303 56.6543 200.807 57.1934C201.322 57.7207 201.721 58.4121 202.002 59.2676C202.283 60.1113 202.424 61.125 202.424 62.3086V75H197.361V62.8711C197.361 62.0039 197.244 61.3359 197.01 60.8672C196.775 60.3984 196.441 60.0703 196.008 59.8828C195.586 59.6953 195.076 59.6016 194.479 59.6016C193.822 59.6016 193.248 59.7363 192.756 60.0059C192.275 60.2754 191.877 60.6504 191.561 61.1309C191.244 61.5996 191.01 62.1504 190.857 62.7832C190.705 63.416 190.629 64.0957 190.629 64.8223ZM201.949 64.2422L200.139 64.4707C200.139 63.2285 200.291 62.0742 200.596 61.0078C200.912 59.9414 201.375 59.0039 201.984 58.1953C202.605 57.3867 203.373 56.7598 204.287 56.3145C205.201 55.8574 206.256 55.6289 207.451 55.6289C208.365 55.6289 209.197 55.7637 209.947 56.0332C210.697 56.291 211.336 56.707 211.863 57.2812C212.402 57.8438 212.812 58.582 213.094 59.4961C213.387 60.4102 213.533 61.5293 213.533 62.8535V75H208.453V62.8535C208.453 61.9746 208.336 61.3066 208.102 60.8496C207.879 60.3809 207.551 60.0586 207.117 59.8828C206.695 59.6953 206.191 59.6016 205.605 59.6016C204.996 59.6016 204.463 59.7246 204.006 59.9707C203.549 60.2051 203.168 60.5332 202.863 60.9551C202.559 61.377 202.33 61.8691 202.178 62.4316C202.025 62.9824 201.949 63.5859 201.949 64.2422ZM227.719 70.7109V62.2383C227.719 61.6289 227.619 61.1074 227.42 60.6738C227.221 60.2285 226.91 59.8828 226.488 59.6367C226.078 59.3906 225.545 59.2676 224.889 59.2676C224.326 59.2676 223.84 59.3672 223.43 59.5664C223.02 59.7539 222.703 60.0293 222.48 60.3926C222.258 60.7441 222.146 61.1602 222.146 61.6406H217.084C217.084 60.832 217.271 60.0645 217.646 59.3379C218.021 58.6113 218.566 57.9727 219.281 57.4219C219.996 56.8594 220.846 56.4199 221.83 56.1035C222.826 55.7871 223.939 55.6289 225.17 55.6289C226.646 55.6289 227.959 55.875 229.107 56.3672C230.256 56.8594 231.158 57.5977 231.814 58.582C232.482 59.5664 232.816 60.7969 232.816 62.2734V70.4121C232.816 71.4551 232.881 72.3105 233.01 72.9785C233.139 73.6348 233.326 74.209 233.572 74.7012V75H228.457C228.211 74.4844 228.023 73.8398 227.895 73.0664C227.777 72.2812 227.719 71.4961 227.719 70.7109ZM228.387 63.416L228.422 66.2812H225.592C224.924 66.2812 224.344 66.3574 223.852 66.5098C223.359 66.6621 222.955 66.8789 222.639 67.1602C222.322 67.4297 222.088 67.7461 221.936 68.1094C221.795 68.4727 221.725 68.8711 221.725 69.3047C221.725 69.7383 221.824 70.1309 222.023 70.4824C222.223 70.8223 222.51 71.0918 222.885 71.291C223.26 71.4785 223.699 71.5723 224.203 71.5723C224.965 71.5723 225.627 71.4199 226.189 71.1152C226.752 70.8105 227.186 70.4355 227.49 69.9902C227.807 69.5449 227.971 69.123 227.982 68.7246L229.318 70.8691C229.131 71.3496 228.873 71.8477 228.545 72.3633C228.229 72.8789 227.824 73.3652 227.332 73.8223C226.84 74.2676 226.248 74.6367 225.557 74.9297C224.865 75.2109 224.045 75.3516 223.096 75.3516C221.889 75.3516 220.793 75.1113 219.809 74.6309C218.836 74.1387 218.062 73.4648 217.488 72.6094C216.926 71.7422 216.645 70.7578 216.645 69.6562C216.645 68.6602 216.832 67.7754 217.207 67.002C217.582 66.2285 218.133 65.5781 218.859 65.0508C219.598 64.5117 220.518 64.1074 221.619 63.8379C222.721 63.5566 223.998 63.416 225.451 63.416H228.387ZM247.951 70.8516V48H253.049V75H248.461L247.951 70.8516ZM235.928 65.7188V65.3496C235.928 63.8965 236.092 62.5781 236.42 61.3945C236.748 60.1992 237.229 59.1738 237.861 58.3184C238.494 57.4629 239.273 56.8008 240.199 56.332C241.125 55.8633 242.18 55.6289 243.363 55.6289C244.477 55.6289 245.449 55.8633 246.281 56.332C247.125 56.8008 247.84 57.4688 248.426 58.3359C249.023 59.1914 249.504 60.2051 249.867 61.377C250.23 62.5371 250.494 63.8086 250.658 65.1914V66C250.494 67.3242 250.23 68.5547 249.867 69.6914C249.504 70.8281 249.023 71.8242 248.426 72.6797C247.84 73.5234 247.125 74.1797 246.281 74.6484C245.438 75.1172 244.453 75.3516 243.328 75.3516C242.145 75.3516 241.09 75.1113 240.164 74.6309C239.25 74.1504 238.477 73.4766 237.844 72.6094C237.223 71.7422 236.748 70.7227 236.42 69.5508C236.092 68.3789 235.928 67.1016 235.928 65.7188ZM240.99 65.3496V65.7188C240.99 66.5039 241.049 67.2363 241.166 67.916C241.295 68.5957 241.5 69.1992 241.781 69.7266C242.074 70.2422 242.449 70.6465 242.906 70.9395C243.375 71.2207 243.943 71.3613 244.611 71.3613C245.479 71.3613 246.193 71.168 246.756 70.7812C247.318 70.3828 247.746 69.8379 248.039 69.1465C248.344 68.4551 248.52 67.6582 248.566 66.7559V64.4531C248.531 63.7148 248.426 63.0527 248.25 62.4668C248.086 61.8691 247.84 61.3594 247.512 60.9375C247.195 60.5156 246.797 60.1875 246.316 59.9531C245.848 59.7188 245.291 59.6016 244.646 59.6016C243.99 59.6016 243.428 59.7539 242.959 60.0586C242.49 60.3516 242.109 60.7559 241.816 61.2715C241.535 61.7871 241.324 62.3965 241.184 63.0996C241.055 63.791 240.99 64.541 240.99 65.3496ZM276.305 63.7676H269.73L269.695 60.1465H275.215C276.188 60.1465 276.984 60.0234 277.605 59.7773C278.227 59.5195 278.689 59.1504 278.994 58.6699C279.311 58.1777 279.469 57.5801 279.469 56.877C279.469 56.0801 279.316 55.4355 279.012 54.9434C278.719 54.4512 278.256 54.0938 277.623 53.8711C277.002 53.6484 276.199 53.5371 275.215 53.5371H271.559V75H266.285V49.4062H275.215C276.703 49.4062 278.033 49.5469 279.205 49.8281C280.389 50.1094 281.391 50.5371 282.211 51.1113C283.031 51.6855 283.658 52.4121 284.092 53.291C284.525 54.1582 284.742 55.1895 284.742 56.3848C284.742 57.4395 284.502 58.4121 284.021 59.3027C283.553 60.1934 282.809 60.9199 281.789 61.4824C280.781 62.0449 279.463 62.3555 277.834 62.4141L276.305 63.7676ZM276.076 75H268.289L270.346 70.8867H276.076C277.002 70.8867 277.758 70.7402 278.344 70.4473C278.93 70.1426 279.363 69.7324 279.645 69.2168C279.926 68.7012 280.066 68.1094 280.066 67.4414C280.066 66.6914 279.938 66.041 279.68 65.4902C279.434 64.9395 279.035 64.5176 278.484 64.2246C277.934 63.9199 277.207 63.7676 276.305 63.7676H271.225L271.26 60.1465H277.588L278.801 61.5703C280.359 61.5469 281.613 61.8223 282.562 62.3965C283.523 62.959 284.221 63.6914 284.654 64.5938C285.1 65.4961 285.322 66.4629 285.322 67.4941C285.322 69.1348 284.965 70.5176 284.25 71.6426C283.535 72.7559 282.486 73.5938 281.104 74.1562C279.732 74.7188 278.057 75 276.076 75ZM299.227 70.7109V62.2383C299.227 61.6289 299.127 61.1074 298.928 60.6738C298.729 60.2285 298.418 59.8828 297.996 59.6367C297.586 59.3906 297.053 59.2676 296.396 59.2676C295.834 59.2676 295.348 59.3672 294.938 59.5664C294.527 59.7539 294.211 60.0293 293.988 60.3926C293.766 60.7441 293.654 61.1602 293.654 61.6406H288.592C288.592 60.832 288.779 60.0645 289.154 59.3379C289.529 58.6113 290.074 57.9727 290.789 57.4219C291.504 56.8594 292.354 56.4199 293.338 56.1035C294.334 55.7871 295.447 55.6289 296.678 55.6289C298.154 55.6289 299.467 55.875 300.615 56.3672C301.764 56.8594 302.666 57.5977 303.322 58.582C303.99 59.5664 304.324 60.7969 304.324 62.2734V70.4121C304.324 71.4551 304.389 72.3105 304.518 72.9785C304.646 73.6348 304.834 74.209 305.08 74.7012V75H299.965C299.719 74.4844 299.531 73.8398 299.402 73.0664C299.285 72.2812 299.227 71.4961 299.227 70.7109ZM299.895 63.416L299.93 66.2812H297.1C296.432 66.2812 295.852 66.3574 295.359 66.5098C294.867 66.6621 294.463 66.8789 294.146 67.1602C293.83 67.4297 293.596 67.7461 293.443 68.1094C293.303 68.4727 293.232 68.8711 293.232 69.3047C293.232 69.7383 293.332 70.1309 293.531 70.4824C293.73 70.8223 294.018 71.0918 294.393 71.291C294.768 71.4785 295.207 71.5723 295.711 71.5723C296.473 71.5723 297.135 71.4199 297.697 71.1152C298.26 70.8105 298.693 70.4355 298.998 69.9902C299.314 69.5449 299.479 69.123 299.49 68.7246L300.826 70.8691C300.639 71.3496 300.381 71.8477 300.053 72.3633C299.736 72.8789 299.332 73.3652 298.84 73.8223C298.348 74.2676 297.756 74.6367 297.064 74.9297C296.373 75.2109 295.553 75.3516 294.604 75.3516C293.396 75.3516 292.301 75.1113 291.316 74.6309C290.344 74.1387 289.57 73.4648 288.996 72.6094C288.434 71.7422 288.152 70.7578 288.152 69.6562C288.152 68.6602 288.34 67.7754 288.715 67.002C289.09 66.2285 289.641 65.5781 290.367 65.0508C291.105 64.5117 292.025 64.1074 293.127 63.8379C294.229 63.5566 295.506 63.416 296.959 63.416H299.895ZM313.57 48V75H308.49V48H313.57ZM316.945 65.6836V65.3145C316.945 63.9199 317.145 62.6367 317.543 61.4648C317.941 60.2812 318.521 59.2559 319.283 58.3887C320.045 57.5215 320.982 56.8477 322.096 56.3672C323.209 55.875 324.486 55.6289 325.928 55.6289C327.369 55.6289 328.652 55.875 329.777 56.3672C330.902 56.8477 331.846 57.5215 332.607 58.3887C333.381 59.2559 333.967 60.2812 334.365 61.4648C334.764 62.6367 334.963 63.9199 334.963 65.3145V65.6836C334.963 67.0664 334.764 68.3496 334.365 69.5332C333.967 70.7051 333.381 71.7305 332.607 72.6094C331.846 73.4766 330.908 74.1504 329.795 74.6309C328.682 75.1113 327.404 75.3516 325.963 75.3516C324.521 75.3516 323.238 75.1113 322.113 74.6309C321 74.1504 320.057 73.4766 319.283 72.6094C318.521 71.7305 317.941 70.7051 317.543 69.5332C317.145 68.3496 316.945 67.0664 316.945 65.6836ZM322.008 65.3145V65.6836C322.008 66.4805 322.078 67.2246 322.219 67.916C322.359 68.6074 322.582 69.2168 322.887 69.7441C323.203 70.2598 323.613 70.6641 324.117 70.957C324.621 71.25 325.236 71.3965 325.963 71.3965C326.666 71.3965 327.27 71.25 327.773 70.957C328.277 70.6641 328.682 70.2598 328.986 69.7441C329.291 69.2168 329.514 68.6074 329.654 67.916C329.807 67.2246 329.883 66.4805 329.883 65.6836V65.3145C329.883 64.541 329.807 63.8145 329.654 63.1348C329.514 62.4434 329.285 61.834 328.969 61.3066C328.664 60.7676 328.26 60.3457 327.756 60.041C327.252 59.7363 326.643 59.584 325.928 59.584C325.213 59.584 324.604 59.7363 324.1 60.041C323.607 60.3457 323.203 60.7676 322.887 61.3066C322.582 61.834 322.359 62.4434 322.219 63.1348C322.078 63.8145 322.008 64.541 322.008 65.3145ZM349.324 70.4473V55.9805H354.387V75H349.623L349.324 70.4473ZM349.887 66.5449L351.381 66.5098C351.381 67.7754 351.234 68.9531 350.941 70.043C350.648 71.1211 350.209 72.0586 349.623 72.8555C349.037 73.6406 348.299 74.2559 347.408 74.7012C346.518 75.1348 345.469 75.3516 344.262 75.3516C343.336 75.3516 342.48 75.2227 341.695 74.9648C340.922 74.6953 340.254 74.2793 339.691 73.7168C339.141 73.1426 338.707 72.4102 338.391 71.5195C338.086 70.6172 337.934 69.5332 337.934 68.2676V55.9805H342.996V68.3027C342.996 68.8652 343.061 69.3398 343.189 69.7266C343.33 70.1133 343.523 70.4297 343.77 70.6758C344.016 70.9219 344.303 71.0977 344.631 71.2031C344.971 71.3086 345.346 71.3613 345.756 71.3613C346.799 71.3613 347.619 71.1504 348.217 70.7285C348.826 70.3066 349.254 69.7324 349.5 69.0059C349.758 68.2676 349.887 67.4473 349.887 66.5449ZM373.389 71.0449V75H358.939V71.0449H373.389ZM373.107 58.8984L360.979 75H357.586V71.9941L369.662 55.9805H373.107V58.8984ZM371.314 55.9805V59.9531H357.867V55.9805H371.314ZM386.836 70.7109V62.2383C386.836 61.6289 386.736 61.1074 386.537 60.6738C386.338 60.2285 386.027 59.8828 385.605 59.6367C385.195 59.3906 384.662 59.2676 384.006 59.2676C383.443 59.2676 382.957 59.3672 382.547 59.5664C382.137 59.7539 381.82 60.0293 381.598 60.3926C381.375 60.7441 381.264 61.1602 381.264 61.6406H376.201C376.201 60.832 376.389 60.0645 376.764 59.3379C377.139 58.6113 377.684 57.9727 378.398 57.4219C379.113 56.8594 379.963 56.4199 380.947 56.1035C381.943 55.7871 383.057 55.6289 384.287 55.6289C385.764 55.6289 387.076 55.875 388.225 56.3672C389.373 56.8594 390.275 57.5977 390.932 58.582C391.6 59.5664 391.934 60.7969 391.934 62.2734V70.4121C391.934 71.4551 391.998 72.3105 392.127 72.9785C392.256 73.6348 392.443 74.209 392.689 74.7012V75H387.574C387.328 74.4844 387.141 73.8398 387.012 73.0664C386.895 72.2812 386.836 71.4961 386.836 70.7109ZM387.504 63.416L387.539 66.2812H384.709C384.041 66.2812 383.461 66.3574 382.969 66.5098C382.477 66.6621 382.072 66.8789 381.756 67.1602C381.439 67.4297 381.205 67.7461 381.053 68.1094C380.912 68.4727 380.842 68.8711 380.842 69.3047C380.842 69.7383 380.941 70.1309 381.141 70.4824C381.34 70.8223 381.627 71.0918 382.002 71.291C382.377 71.4785 382.816 71.5723 383.32 71.5723C384.082 71.5723 384.744 71.4199 385.307 71.1152C385.869 70.8105 386.303 70.4355 386.607 69.9902C386.924 69.5449 387.088 69.123 387.1 68.7246L388.436 70.8691C388.248 71.3496 387.99 71.8477 387.662 72.3633C387.346 72.8789 386.941 73.3652 386.449 73.8223C385.957 74.2676 385.365 74.6367 384.674 74.9297C383.982 75.2109 383.162 75.3516 382.213 75.3516C381.006 75.3516 379.91 75.1113 378.926 74.6309C377.953 74.1387 377.18 73.4648 376.605 72.6094C376.043 71.7422 375.762 70.7578 375.762 69.6562C375.762 68.6602 375.949 67.7754 376.324 67.002C376.699 66.2285 377.25 65.5781 377.977 65.0508C378.715 64.5117 379.635 64.1074 380.736 63.8379C381.838 63.5566 383.115 63.416 384.568 63.416H387.504Z" fill="#888888"/>
<path d="M118.676 126.52H128.246C128.118 129.29 127.371 131.733 126.004 133.848C124.637 135.962 122.741 137.612 120.316 138.797C117.91 139.964 115.066 140.547 111.785 140.547C109.124 140.547 106.745 140.1 104.648 139.207C102.57 138.314 100.802 137.029 99.3438 135.352C97.9036 133.674 96.8008 131.642 96.0352 129.254C95.2878 126.866 94.9141 124.177 94.9141 121.188V119.027C94.9141 116.038 95.306 113.349 96.0898 110.961C96.8919 108.555 98.0221 106.513 99.4805 104.836C100.957 103.141 102.725 101.846 104.785 100.953C106.845 100.06 109.133 99.6133 111.648 99.6133C115.112 99.6133 118.038 100.233 120.426 101.473C122.814 102.712 124.664 104.417 125.977 106.586C127.289 108.737 128.064 111.189 128.301 113.941H118.73C118.694 112.447 118.439 111.198 117.965 110.195C117.491 109.174 116.743 108.409 115.723 107.898C114.702 107.388 113.344 107.133 111.648 107.133C110.464 107.133 109.434 107.352 108.559 107.789C107.684 108.227 106.954 108.919 106.371 109.867C105.788 110.815 105.35 112.046 105.059 113.559C104.785 115.053 104.648 116.858 104.648 118.973V121.188C104.648 123.302 104.776 125.107 105.031 126.602C105.286 128.096 105.697 129.318 106.262 130.266C106.827 131.214 107.556 131.915 108.449 132.371C109.361 132.809 110.473 133.027 111.785 133.027C113.243 133.027 114.474 132.799 115.477 132.344C116.479 131.87 117.254 131.159 117.801 130.211C118.348 129.245 118.639 128.014 118.676 126.52ZM141.426 136.527L149.082 110.414H158.98L147.086 144.402C146.831 145.15 146.493 145.952 146.074 146.809C145.655 147.684 145.081 148.513 144.352 149.297C143.622 150.081 142.684 150.719 141.535 151.211C140.405 151.703 139.001 151.949 137.324 151.949C136.431 151.949 135.775 151.904 135.355 151.812C134.954 151.74 134.335 151.603 133.496 151.402V144.812C133.733 144.812 133.934 144.812 134.098 144.812C134.28 144.812 134.48 144.812 134.699 144.812C135.684 144.812 136.467 144.712 137.051 144.512C137.652 144.311 138.108 144.02 138.418 143.637C138.746 143.254 139.001 142.789 139.184 142.242L141.426 136.527ZM139.484 110.414L145.309 131.113L146.32 140.875H140.141L129.613 110.414H139.484ZM161.469 98H170.684V132.727L169.727 140H161.469V98ZM188.84 124.879V125.453C188.84 127.695 188.612 129.737 188.156 131.578C187.701 133.419 186.999 135.014 186.051 136.363C185.103 137.694 183.909 138.724 182.469 139.453C181.029 140.182 179.324 140.547 177.355 140.547C175.569 140.547 174.038 140.164 172.762 139.398C171.486 138.615 170.419 137.539 169.562 136.172C168.706 134.786 168.013 133.191 167.484 131.387C166.956 129.564 166.536 127.613 166.227 125.535V124.852C166.536 122.792 166.956 120.859 167.484 119.055C168.013 117.232 168.706 115.637 169.562 114.27C170.419 112.884 171.477 111.809 172.734 111.043C174.01 110.259 175.533 109.867 177.301 109.867C179.288 109.867 181.001 110.241 182.441 110.988C183.9 111.736 185.103 112.784 186.051 114.133C186.999 115.482 187.701 117.068 188.156 118.891C188.612 120.714 188.84 122.71 188.84 124.879ZM179.625 125.453V124.879C179.625 123.803 179.561 122.792 179.434 121.844C179.306 120.896 179.078 120.057 178.75 119.328C178.422 118.599 177.957 118.025 177.355 117.605C176.754 117.186 175.97 116.977 175.004 116.977C174.02 116.977 173.19 117.141 172.516 117.469C171.859 117.797 171.331 118.271 170.93 118.891C170.547 119.492 170.273 120.24 170.109 121.133C169.945 122.008 169.872 123.001 169.891 124.113V126.273C169.854 127.786 169.991 129.081 170.301 130.156C170.611 131.232 171.148 132.052 171.914 132.617C172.68 133.182 173.728 133.465 175.059 133.465C176.043 133.465 176.836 133.273 177.438 132.891C178.057 132.508 178.522 131.961 178.832 131.25C179.142 130.539 179.352 129.691 179.461 128.707C179.57 127.723 179.625 126.638 179.625 125.453ZM207.27 140.547C204.863 140.547 202.712 140.173 200.816 139.426C198.921 138.66 197.316 137.612 196.004 136.281C194.71 134.951 193.716 133.419 193.023 131.688C192.349 129.956 192.012 128.124 192.012 126.191V125.152C192.012 122.983 192.312 120.978 192.914 119.137C193.516 117.277 194.409 115.655 195.594 114.27C196.779 112.884 198.264 111.809 200.051 111.043C201.837 110.259 203.915 109.867 206.285 109.867C208.382 109.867 210.259 110.204 211.918 110.879C213.577 111.553 214.98 112.52 216.129 113.777C217.296 115.035 218.18 116.557 218.781 118.344C219.401 120.13 219.711 122.135 219.711 124.359V128.105H195.539V122.336H210.715V121.625C210.733 120.641 210.56 119.802 210.195 119.109C209.849 118.417 209.339 117.888 208.664 117.523C207.99 117.159 207.169 116.977 206.203 116.977C205.201 116.977 204.371 117.195 203.715 117.633C203.077 118.07 202.576 118.672 202.211 119.438C201.865 120.185 201.618 121.051 201.473 122.035C201.327 123.02 201.254 124.059 201.254 125.152V126.191C201.254 127.285 201.4 128.279 201.691 129.172C202.001 130.065 202.439 130.831 203.004 131.469C203.587 132.089 204.28 132.572 205.082 132.918C205.902 133.264 206.832 133.438 207.871 133.438C209.129 133.438 210.368 133.201 211.59 132.727C212.811 132.253 213.859 131.469 214.734 130.375L218.918 135.352C218.316 136.208 217.46 137.038 216.348 137.84C215.254 138.642 213.941 139.298 212.41 139.809C210.879 140.301 209.165 140.547 207.27 140.547ZM232.754 117.742V140H223.539V110.414H232.152L232.754 117.742ZM241.504 110.195L241.34 118.754C240.975 118.717 240.483 118.672 239.863 118.617C239.243 118.562 238.724 118.535 238.305 118.535C237.229 118.535 236.299 118.663 235.516 118.918C234.75 119.155 234.112 119.52 233.602 120.012C233.109 120.486 232.745 121.087 232.508 121.816C232.289 122.546 232.189 123.393 232.207 124.359L230.539 123.266C230.539 121.279 230.73 119.474 231.113 117.852C231.514 116.211 232.079 114.798 232.809 113.613C233.538 112.41 234.422 111.49 235.461 110.852C236.5 110.195 237.667 109.867 238.961 109.867C239.417 109.867 239.863 109.895 240.301 109.949C240.757 110.004 241.158 110.086 241.504 110.195ZM261 126.492H251.102V119.082H261C262.349 119.082 263.443 118.854 264.281 118.398C265.12 117.943 265.73 117.314 266.113 116.512C266.514 115.691 266.715 114.771 266.715 113.75C266.715 112.656 266.514 111.645 266.113 110.715C265.73 109.785 265.12 109.038 264.281 108.473C263.443 107.889 262.349 107.598 261 107.598H254.711V140H245.113V100.188H261C264.19 100.188 266.934 100.771 269.23 101.938C271.546 103.104 273.323 104.708 274.562 106.75C275.802 108.773 276.422 111.089 276.422 113.695C276.422 116.266 275.802 118.508 274.562 120.422C273.323 122.336 271.546 123.831 269.23 124.906C266.934 125.964 264.19 126.492 261 126.492ZM296.191 132.562V120.367C296.191 119.529 296.073 118.809 295.836 118.207C295.599 117.605 295.225 117.141 294.715 116.812C294.204 116.466 293.521 116.293 292.664 116.293C291.971 116.293 291.379 116.411 290.887 116.648C290.395 116.885 290.021 117.241 289.766 117.715C289.51 118.189 289.383 118.79 289.383 119.52H280.168C280.168 118.152 280.469 116.885 281.07 115.719C281.69 114.534 282.565 113.504 283.695 112.629C284.844 111.754 286.211 111.079 287.797 110.605C289.401 110.113 291.188 109.867 293.156 109.867C295.508 109.867 297.604 110.259 299.445 111.043C301.305 111.827 302.772 113.003 303.848 114.57C304.923 116.12 305.461 118.07 305.461 120.422V132.535C305.461 134.467 305.57 135.935 305.789 136.938C306.008 137.922 306.318 138.788 306.719 139.535V140H297.477C297.039 139.089 296.711 137.977 296.492 136.664C296.292 135.333 296.191 133.966 296.191 132.562ZM297.312 121.926L297.367 126.848H293.293C292.436 126.848 291.707 126.966 291.105 127.203C290.522 127.44 290.048 127.768 289.684 128.188C289.337 128.589 289.082 129.044 288.918 129.555C288.772 130.065 288.699 130.603 288.699 131.168C288.699 131.715 288.827 132.207 289.082 132.645C289.355 133.064 289.72 133.392 290.176 133.629C290.632 133.866 291.142 133.984 291.707 133.984C292.728 133.984 293.594 133.793 294.305 133.41C295.034 133.009 295.59 132.526 295.973 131.961C296.355 131.396 296.547 130.867 296.547 130.375L298.57 134.148C298.206 134.878 297.786 135.616 297.312 136.363C296.857 137.111 296.283 137.803 295.59 138.441C294.915 139.061 294.086 139.572 293.102 139.973C292.117 140.355 290.923 140.547 289.52 140.547C287.697 140.547 286.02 140.173 284.488 139.426C282.975 138.678 281.763 137.639 280.852 136.309C279.94 134.96 279.484 133.41 279.484 131.66C279.484 130.129 279.758 128.762 280.305 127.559C280.87 126.355 281.717 125.335 282.848 124.496C283.978 123.658 285.418 123.02 287.168 122.582C288.918 122.145 290.978 121.926 293.348 121.926H297.312ZM320.309 98V140H311.066V98H320.309Z" fill="black"/>
<rect x="93" y="178" width="917" height="77" rx="10" fill="#D3D3D3"/>
<rect x="111" y="196" width="91" height="41" rx="3" fill="#424242"/>
<path d="M134.141 210.203H139.177C140.161 210.203 141.017 210.35 141.743 210.643C142.47 210.936 143.029 211.369 143.422 211.943C143.82 212.518 144.02 213.227 144.02 214.07C144.02 214.803 143.905 215.415 143.677 215.907C143.448 216.399 143.129 216.807 142.719 217.129C142.314 217.445 141.843 217.706 141.304 217.911L140.293 218.482H136.065L136.048 216.101H139.177C139.569 216.101 139.895 216.03 140.152 215.89C140.41 215.749 140.604 215.55 140.732 215.292C140.867 215.028 140.935 214.715 140.935 214.352C140.935 213.982 140.867 213.666 140.732 213.402C140.598 213.139 140.398 212.937 140.135 212.796C139.877 212.655 139.558 212.585 139.177 212.585H137.226V223H134.141V210.203ZM141.146 223L138.315 217.34L141.585 217.322L144.45 222.868V223H141.146ZM150.348 223.176C149.574 223.176 148.883 223.056 148.273 222.815C147.664 222.569 147.148 222.232 146.727 221.805C146.311 221.377 145.991 220.885 145.769 220.328C145.552 219.771 145.443 219.183 145.443 218.562V218.228C145.443 217.53 145.54 216.886 145.733 216.294C145.927 215.696 146.214 215.175 146.595 214.729C146.976 214.284 147.453 213.938 148.027 213.692C148.602 213.44 149.27 213.314 150.031 213.314C150.705 213.314 151.309 213.423 151.842 213.64C152.375 213.856 152.826 214.167 153.195 214.571C153.57 214.976 153.854 215.465 154.048 216.039C154.247 216.613 154.347 217.258 154.347 217.973V219.177H146.577V217.322H151.455V217.094C151.461 216.777 151.405 216.508 151.288 216.285C151.177 216.062 151.013 215.893 150.796 215.775C150.579 215.658 150.315 215.6 150.005 215.6C149.683 215.6 149.416 215.67 149.205 215.811C149 215.951 148.839 216.145 148.722 216.391C148.61 216.631 148.531 216.909 148.484 217.226C148.438 217.542 148.414 217.876 148.414 218.228V218.562C148.414 218.913 148.461 219.232 148.555 219.52C148.654 219.807 148.795 220.053 148.977 220.258C149.164 220.457 149.387 220.612 149.645 220.724C149.908 220.835 150.207 220.891 150.541 220.891C150.945 220.891 151.344 220.814 151.736 220.662C152.129 220.51 152.466 220.258 152.747 219.906L154.092 221.506C153.898 221.781 153.623 222.048 153.266 222.306C152.914 222.563 152.492 222.774 152 222.938C151.508 223.097 150.957 223.176 150.348 223.176ZM160.49 220.609V216.689C160.49 216.42 160.452 216.188 160.376 215.995C160.3 215.802 160.18 215.652 160.016 215.547C159.852 215.436 159.632 215.38 159.356 215.38C159.134 215.38 158.943 215.418 158.785 215.494C158.627 215.57 158.507 215.685 158.425 215.837C158.343 215.989 158.302 216.183 158.302 216.417H155.34C155.34 215.978 155.437 215.57 155.63 215.195C155.829 214.814 156.11 214.483 156.474 214.202C156.843 213.921 157.282 213.704 157.792 213.552C158.308 213.394 158.882 213.314 159.515 213.314C160.271 213.314 160.944 213.44 161.536 213.692C162.134 213.944 162.605 214.322 162.951 214.826C163.297 215.324 163.47 215.951 163.47 216.707V220.601C163.47 221.222 163.505 221.693 163.575 222.016C163.646 222.332 163.745 222.61 163.874 222.851V223H160.903C160.763 222.707 160.657 222.35 160.587 221.928C160.522 221.5 160.49 221.061 160.49 220.609ZM160.851 217.19L160.868 218.772H159.559C159.283 218.772 159.049 218.811 158.855 218.887C158.668 218.963 158.516 219.068 158.398 219.203C158.287 219.332 158.205 219.479 158.152 219.643C158.105 219.807 158.082 219.979 158.082 220.161C158.082 220.337 158.123 220.495 158.205 220.636C158.293 220.771 158.41 220.876 158.557 220.952C158.703 221.028 158.867 221.066 159.049 221.066C159.377 221.066 159.655 221.005 159.884 220.882C160.118 220.753 160.297 220.598 160.42 220.416C160.543 220.234 160.604 220.064 160.604 219.906L161.255 221.119C161.138 221.354 161.003 221.591 160.851 221.831C160.704 222.071 160.52 222.294 160.297 222.499C160.08 222.698 159.813 222.862 159.497 222.991C159.181 223.114 158.797 223.176 158.346 223.176C157.76 223.176 157.221 223.056 156.729 222.815C156.242 222.575 155.853 222.241 155.56 221.813C155.267 221.38 155.12 220.882 155.12 220.319C155.12 219.827 155.208 219.388 155.384 219.001C155.565 218.614 155.838 218.286 156.201 218.017C156.564 217.747 157.027 217.542 157.59 217.401C158.152 217.261 158.814 217.19 159.576 217.19H160.851ZM169.13 220.891C169.405 220.891 169.64 220.841 169.833 220.741C170.032 220.636 170.182 220.489 170.281 220.302C170.387 220.108 170.437 219.877 170.431 219.607H173.217C173.223 220.322 173.047 220.949 172.689 221.488C172.338 222.021 171.857 222.438 171.248 222.736C170.645 223.029 169.962 223.176 169.2 223.176C168.456 223.176 167.806 223.056 167.249 222.815C166.692 222.569 166.227 222.229 165.852 221.796C165.482 221.356 165.204 220.844 165.017 220.258C164.835 219.672 164.744 219.036 164.744 218.351V218.148C164.744 217.463 164.835 216.827 165.017 216.241C165.204 215.649 165.482 215.137 165.852 214.703C166.227 214.264 166.689 213.924 167.24 213.684C167.797 213.438 168.444 213.314 169.183 213.314C169.974 213.314 170.671 213.464 171.274 213.763C171.884 214.062 172.361 214.495 172.707 215.063C173.053 215.632 173.223 216.32 173.217 217.129H170.431C170.437 216.842 170.393 216.584 170.299 216.355C170.205 216.127 170.059 215.945 169.859 215.811C169.666 215.67 169.417 215.6 169.112 215.6C168.808 215.6 168.562 215.667 168.374 215.802C168.187 215.937 168.043 216.124 167.943 216.364C167.85 216.599 167.785 216.868 167.75 217.173C167.721 217.478 167.706 217.803 167.706 218.148V218.351C167.706 218.702 167.721 219.033 167.75 219.344C167.785 219.648 167.853 219.918 167.952 220.152C168.052 220.381 168.195 220.562 168.383 220.697C168.57 220.826 168.819 220.891 169.13 220.891ZM179.492 213.49V215.547H173.762V213.49H179.492ZM174.966 211.126H177.928V219.897C177.928 220.149 177.957 220.346 178.016 220.486C178.074 220.621 178.174 220.718 178.314 220.776C178.461 220.829 178.654 220.855 178.895 220.855C179.064 220.855 179.205 220.853 179.316 220.847C179.428 220.835 179.533 220.82 179.633 220.803V222.921C179.381 223.003 179.117 223.064 178.842 223.105C178.566 223.152 178.273 223.176 177.963 223.176C177.33 223.176 176.788 223.076 176.337 222.877C175.892 222.678 175.552 222.364 175.317 221.937C175.083 221.509 174.966 220.952 174.966 220.267V211.126Z" fill="white"/>
<rect x="111" y="196" width="91" height="41" rx="3" stroke="#424242" stroke-width="4"/>
<rect x="222" y="196" width="112" height="41" rx="3" fill="#424242"/>
<path d="M254.19 220.627V223H247.37V220.627H254.19ZM248.469 210.203V223H245.384V210.203H248.469ZM253.312 215.283V217.577H247.37V215.283H253.312ZM254.217 210.203V212.585H247.37V210.203H254.217ZM258.444 209.5V223H255.474V209.5H258.444ZM264.878 223.176C264.104 223.176 263.413 223.056 262.804 222.815C262.194 222.569 261.679 222.232 261.257 221.805C260.841 221.377 260.521 220.885 260.299 220.328C260.082 219.771 259.974 219.183 259.974 218.562V218.228C259.974 217.53 260.07 216.886 260.264 216.294C260.457 215.696 260.744 215.175 261.125 214.729C261.506 214.284 261.983 213.938 262.558 213.692C263.132 213.44 263.8 213.314 264.562 213.314C265.235 213.314 265.839 213.423 266.372 213.64C266.905 213.856 267.356 214.167 267.726 214.571C268.101 214.976 268.385 215.465 268.578 216.039C268.777 216.613 268.877 217.258 268.877 217.973V219.177H261.107V217.322H265.985V217.094C265.991 216.777 265.936 216.508 265.818 216.285C265.707 216.062 265.543 215.893 265.326 215.775C265.109 215.658 264.846 215.6 264.535 215.6C264.213 215.6 263.946 215.67 263.735 215.811C263.53 215.951 263.369 216.145 263.252 216.391C263.141 216.631 263.062 216.909 263.015 217.226C262.968 217.542 262.944 217.876 262.944 218.228V218.562C262.944 218.913 262.991 219.232 263.085 219.52C263.185 219.807 263.325 220.053 263.507 220.258C263.694 220.457 263.917 220.612 264.175 220.724C264.438 220.835 264.737 220.891 265.071 220.891C265.476 220.891 265.874 220.814 266.267 220.662C266.659 220.51 266.996 220.258 267.277 219.906L268.622 221.506C268.429 221.781 268.153 222.048 267.796 222.306C267.444 222.563 267.022 222.774 266.53 222.938C266.038 223.097 265.487 223.176 264.878 223.176ZM274.098 220.891C274.373 220.891 274.607 220.841 274.801 220.741C275 220.636 275.149 220.489 275.249 220.302C275.354 220.108 275.404 219.877 275.398 219.607H278.185C278.19 220.322 278.015 220.949 277.657 221.488C277.306 222.021 276.825 222.438 276.216 222.736C275.612 223.029 274.93 223.176 274.168 223.176C273.424 223.176 272.773 223.056 272.217 222.815C271.66 222.569 271.194 222.229 270.819 221.796C270.45 221.356 270.172 220.844 269.984 220.258C269.803 219.672 269.712 219.036 269.712 218.351V218.148C269.712 217.463 269.803 216.827 269.984 216.241C270.172 215.649 270.45 215.137 270.819 214.703C271.194 214.264 271.657 213.924 272.208 213.684C272.765 213.438 273.412 213.314 274.15 213.314C274.941 213.314 275.639 213.464 276.242 213.763C276.852 214.062 277.329 214.495 277.675 215.063C278.021 215.632 278.19 216.32 278.185 217.129H275.398C275.404 216.842 275.36 216.584 275.267 216.355C275.173 216.127 275.026 215.945 274.827 215.811C274.634 215.67 274.385 215.6 274.08 215.6C273.775 215.6 273.529 215.667 273.342 215.802C273.154 215.937 273.011 216.124 272.911 216.364C272.817 216.599 272.753 216.868 272.718 217.173C272.688 217.478 272.674 217.803 272.674 218.148V218.351C272.674 218.702 272.688 219.033 272.718 219.344C272.753 219.648 272.82 219.918 272.92 220.152C273.02 220.381 273.163 220.562 273.351 220.697C273.538 220.826 273.787 220.891 274.098 220.891ZM284.46 213.49V215.547H278.729V213.49H284.46ZM279.934 211.126H282.896V219.897C282.896 220.149 282.925 220.346 282.983 220.486C283.042 220.621 283.142 220.718 283.282 220.776C283.429 220.829 283.622 220.855 283.862 220.855C284.032 220.855 284.173 220.853 284.284 220.847C284.396 220.835 284.501 220.82 284.601 220.803V222.921C284.349 223.003 284.085 223.064 283.81 223.105C283.534 223.152 283.241 223.176 282.931 223.176C282.298 223.176 281.756 223.076 281.305 222.877C280.859 222.678 280.52 222.364 280.285 221.937C280.051 221.509 279.934 220.952 279.934 220.267V211.126ZM288.626 215.846V223H285.664V213.49H288.433L288.626 215.846ZM291.438 213.42L291.386 216.171C291.269 216.159 291.11 216.145 290.911 216.127C290.712 216.109 290.545 216.101 290.41 216.101C290.064 216.101 289.766 216.142 289.514 216.224C289.268 216.3 289.062 216.417 288.898 216.575C288.74 216.728 288.623 216.921 288.547 217.155C288.477 217.39 288.444 217.662 288.45 217.973L287.914 217.621C287.914 216.982 287.976 216.402 288.099 215.881C288.228 215.354 288.409 214.899 288.644 214.519C288.878 214.132 289.162 213.836 289.496 213.631C289.83 213.42 290.205 213.314 290.621 213.314C290.768 213.314 290.911 213.323 291.052 213.341C291.198 213.358 291.327 213.385 291.438 213.42ZM291.772 218.342V218.157C291.772 217.46 291.872 216.818 292.071 216.232C292.271 215.641 292.563 215.128 292.95 214.694C293.337 214.261 293.814 213.924 294.383 213.684C294.951 213.438 295.607 213.314 296.352 213.314C297.102 213.314 297.761 213.438 298.329 213.684C298.903 213.924 299.384 214.261 299.771 214.694C300.157 215.128 300.45 215.641 300.649 216.232C300.849 216.818 300.948 217.46 300.948 218.157V218.342C300.948 219.033 300.849 219.675 300.649 220.267C300.45 220.853 300.157 221.365 299.771 221.805C299.384 222.238 298.906 222.575 298.338 222.815C297.77 223.056 297.113 223.176 296.369 223.176C295.625 223.176 294.966 223.056 294.392 222.815C293.817 222.575 293.337 222.238 292.95 221.805C292.563 221.365 292.271 220.853 292.071 220.267C291.872 219.675 291.772 219.033 291.772 218.342ZM294.734 218.157V218.342C294.734 218.699 294.761 219.033 294.813 219.344C294.866 219.654 294.954 219.927 295.077 220.161C295.2 220.39 295.367 220.568 295.578 220.697C295.789 220.826 296.053 220.891 296.369 220.891C296.68 220.891 296.938 220.826 297.143 220.697C297.354 220.568 297.521 220.39 297.644 220.161C297.767 219.927 297.854 219.654 297.907 219.344C297.96 219.033 297.986 218.699 297.986 218.342V218.157C297.986 217.812 297.96 217.486 297.907 217.182C297.854 216.871 297.767 216.599 297.644 216.364C297.521 216.124 297.354 215.937 297.143 215.802C296.932 215.667 296.668 215.6 296.352 215.6C296.041 215.6 295.78 215.667 295.569 215.802C295.364 215.937 295.2 216.124 295.077 216.364C294.954 216.599 294.866 216.871 294.813 217.182C294.761 217.486 294.734 217.812 294.734 218.157ZM305.176 215.521V223H302.214V213.49H304.991L305.176 215.521ZM304.824 217.92L304.13 217.938C304.13 217.211 304.218 216.563 304.394 215.995C304.569 215.421 304.818 214.935 305.141 214.536C305.463 214.138 305.847 213.836 306.292 213.631C306.743 213.42 307.244 213.314 307.795 213.314C308.234 213.314 308.636 213.379 308.999 213.508C309.368 213.637 309.685 213.845 309.948 214.132C310.218 214.419 310.423 214.8 310.563 215.274C310.71 215.743 310.783 216.323 310.783 217.015V223H307.804V217.006C307.804 216.625 307.751 216.335 307.646 216.136C307.54 215.931 307.388 215.79 307.188 215.714C306.989 215.638 306.746 215.6 306.459 215.6C306.154 215.6 305.896 215.658 305.686 215.775C305.475 215.893 305.305 216.057 305.176 216.268C305.053 216.473 304.962 216.716 304.903 216.997C304.851 217.278 304.824 217.586 304.824 217.92Z" fill="white"/>
<rect x="222" y="196" width="112" height="41" rx="3" stroke="#424242" stroke-width="4"/>
<rect x="354" y="196" width="108" height="41" rx="3" fill="#424242"/>
<path d="M380.077 210.203V223H376.992V210.203H380.077ZM385.052 215.529V217.902H379.198V215.529H385.052ZM385.553 210.203V212.585H379.198V210.203H385.553ZM391.336 220.609V216.689C391.336 216.42 391.298 216.188 391.222 215.995C391.146 215.802 391.025 215.652 390.861 215.547C390.697 215.436 390.478 215.38 390.202 215.38C389.979 215.38 389.789 215.418 389.631 215.494C389.473 215.57 389.353 215.685 389.271 215.837C389.188 215.989 389.147 216.183 389.147 216.417H386.186C386.186 215.978 386.282 215.57 386.476 215.195C386.675 214.814 386.956 214.483 387.319 214.202C387.688 213.921 388.128 213.704 388.638 213.552C389.153 213.394 389.728 213.314 390.36 213.314C391.116 213.314 391.79 213.44 392.382 213.692C392.979 213.944 393.451 214.322 393.797 214.826C394.143 215.324 394.315 215.951 394.315 216.707V220.601C394.315 221.222 394.351 221.693 394.421 222.016C394.491 222.332 394.591 222.61 394.72 222.851V223H391.749C391.608 222.707 391.503 222.35 391.433 221.928C391.368 221.5 391.336 221.061 391.336 220.609ZM391.696 217.19L391.714 218.772H390.404C390.129 218.772 389.895 218.811 389.701 218.887C389.514 218.963 389.361 219.068 389.244 219.203C389.133 219.332 389.051 219.479 388.998 219.643C388.951 219.807 388.928 219.979 388.928 220.161C388.928 220.337 388.969 220.495 389.051 220.636C389.139 220.771 389.256 220.876 389.402 220.952C389.549 221.028 389.713 221.066 389.895 221.066C390.223 221.066 390.501 221.005 390.729 220.882C390.964 220.753 391.143 220.598 391.266 220.416C391.389 220.234 391.45 220.064 391.45 219.906L392.101 221.119C391.983 221.354 391.849 221.591 391.696 221.831C391.55 222.071 391.365 222.294 391.143 222.499C390.926 222.698 390.659 222.862 390.343 222.991C390.026 223.114 389.643 223.176 389.191 223.176C388.605 223.176 388.066 223.056 387.574 222.815C387.088 222.575 386.698 222.241 386.405 221.813C386.112 221.38 385.966 220.882 385.966 220.319C385.966 219.827 386.054 219.388 386.229 219.001C386.411 218.614 386.684 218.286 387.047 218.017C387.41 217.747 387.873 217.542 388.436 217.401C388.998 217.261 389.66 217.19 390.422 217.19H391.696ZM400.942 220.328C400.942 220.164 400.887 220.023 400.775 219.906C400.67 219.783 400.482 219.672 400.213 219.572C399.943 219.467 399.565 219.361 399.079 219.256C398.616 219.156 398.18 219.024 397.77 218.86C397.365 218.696 397.011 218.497 396.706 218.263C396.401 218.028 396.161 217.75 395.985 217.428C395.815 217.105 395.73 216.736 395.73 216.32C395.73 215.916 395.815 215.535 395.985 215.178C396.161 214.814 396.416 214.495 396.75 214.22C397.09 213.938 397.503 213.719 397.989 213.561C398.476 213.396 399.029 213.314 399.65 213.314C400.506 213.314 401.244 213.446 401.865 213.71C402.486 213.968 402.964 214.331 403.298 214.8C403.638 215.263 403.808 215.799 403.808 216.408H400.846C400.846 216.168 400.805 215.963 400.723 215.793C400.646 215.623 400.521 215.494 400.345 215.406C400.169 215.312 399.935 215.266 399.642 215.266C399.437 215.266 399.249 215.304 399.079 215.38C398.915 215.456 398.783 215.562 398.684 215.696C398.584 215.831 398.534 215.989 398.534 216.171C398.534 216.3 398.563 216.417 398.622 216.522C398.687 216.622 398.783 216.716 398.912 216.804C399.041 216.886 399.205 216.962 399.404 217.032C399.604 217.097 399.844 217.155 400.125 217.208C400.764 217.325 401.361 217.492 401.918 217.709C402.475 217.926 402.926 218.233 403.271 218.632C403.623 219.03 403.799 219.566 403.799 220.24C403.799 220.662 403.702 221.052 403.509 221.409C403.315 221.761 403.037 222.071 402.674 222.341C402.311 222.604 401.874 222.81 401.364 222.956C400.854 223.103 400.28 223.176 399.642 223.176C398.733 223.176 397.966 223.015 397.339 222.692C396.712 222.364 396.237 221.954 395.915 221.462C395.599 220.964 395.44 220.46 395.44 219.95H398.2C398.212 220.243 398.282 220.483 398.411 220.671C398.546 220.858 398.725 220.996 398.947 221.084C399.17 221.172 399.428 221.216 399.721 221.216C399.99 221.216 400.213 221.178 400.389 221.102C400.57 221.025 400.708 220.923 400.802 220.794C400.896 220.659 400.942 220.504 400.942 220.328ZM410.197 213.49V215.547H404.467V213.49H410.197ZM405.671 211.126H408.633V219.897C408.633 220.149 408.662 220.346 408.721 220.486C408.779 220.621 408.879 220.718 409.02 220.776C409.166 220.829 409.359 220.855 409.6 220.855C409.77 220.855 409.91 220.853 410.021 220.847C410.133 220.835 410.238 220.82 410.338 220.803V222.921C410.086 223.003 409.822 223.064 409.547 223.105C409.271 223.152 408.979 223.176 408.668 223.176C408.035 223.176 407.493 223.076 407.042 222.877C406.597 222.678 406.257 222.364 406.022 221.937C405.788 221.509 405.671 220.952 405.671 220.267V211.126ZM416.938 212.893L413.818 223H410.505L415.207 210.203H417.308L416.938 212.893ZM419.522 223L416.394 212.893L415.989 210.203H418.116L422.845 223H419.522ZM419.399 218.228V220.609H412.834V218.228H419.399ZM428.892 218.658H425.71V216.276H428.892C429.325 216.276 429.677 216.203 429.946 216.057C430.216 215.91 430.412 215.708 430.535 215.45C430.664 215.187 430.729 214.891 430.729 214.562C430.729 214.211 430.664 213.886 430.535 213.587C430.412 213.288 430.216 213.048 429.946 212.866C429.677 212.679 429.325 212.585 428.892 212.585H426.87V223H423.785V210.203H428.892C429.917 210.203 430.799 210.391 431.537 210.766C432.281 211.141 432.853 211.656 433.251 212.312C433.649 212.963 433.849 213.707 433.849 214.545C433.849 215.371 433.649 216.092 433.251 216.707C432.853 217.322 432.281 217.803 431.537 218.148C430.799 218.488 429.917 218.658 428.892 218.658ZM438.788 210.203V223H435.712V210.203H438.788Z" fill="white"/>
<rect x="354" y="196" width="108" height="41" rx="3" stroke="#424242" stroke-width="4"/>
<rect x="482" y="196" width="142" height="41" rx="3" fill="#424242"/>
<path d="M510.373 218.658H507.191V216.276H510.373C510.807 216.276 511.158 216.203 511.428 216.057C511.697 215.91 511.894 215.708 512.017 215.45C512.146 215.187 512.21 214.891 512.21 214.562C512.21 214.211 512.146 213.886 512.017 213.587C511.894 213.288 511.697 213.048 511.428 212.866C511.158 212.679 510.807 212.585 510.373 212.585H508.352V223H505.267V210.203H510.373C511.398 210.203 512.28 210.391 513.019 210.766C513.763 211.141 514.334 211.656 514.732 212.312C515.131 212.963 515.33 213.707 515.33 214.545C515.33 215.371 515.131 216.092 514.732 216.707C514.334 217.322 513.763 217.803 513.019 218.148C512.28 218.488 511.398 218.658 510.373 218.658ZM516.358 218.342V218.157C516.358 217.46 516.458 216.818 516.657 216.232C516.856 215.641 517.149 215.128 517.536 214.694C517.923 214.261 518.4 213.924 518.969 213.684C519.537 213.438 520.193 213.314 520.938 213.314C521.688 213.314 522.347 213.438 522.915 213.684C523.489 213.924 523.97 214.261 524.356 214.694C524.743 215.128 525.036 215.641 525.235 216.232C525.435 216.818 525.534 217.46 525.534 218.157V218.342C525.534 219.033 525.435 219.675 525.235 220.267C525.036 220.853 524.743 221.365 524.356 221.805C523.97 222.238 523.492 222.575 522.924 222.815C522.355 223.056 521.699 223.176 520.955 223.176C520.211 223.176 519.552 223.056 518.978 222.815C518.403 222.575 517.923 222.238 517.536 221.805C517.149 221.365 516.856 220.853 516.657 220.267C516.458 219.675 516.358 219.033 516.358 218.342ZM519.32 218.157V218.342C519.32 218.699 519.347 219.033 519.399 219.344C519.452 219.654 519.54 219.927 519.663 220.161C519.786 220.39 519.953 220.568 520.164 220.697C520.375 220.826 520.639 220.891 520.955 220.891C521.266 220.891 521.523 220.826 521.729 220.697C521.939 220.568 522.106 220.39 522.229 220.161C522.353 219.927 522.44 219.654 522.493 219.344C522.546 219.033 522.572 218.699 522.572 218.342V218.157C522.572 217.812 522.546 217.486 522.493 217.182C522.44 216.871 522.353 216.599 522.229 216.364C522.106 216.124 521.939 215.937 521.729 215.802C521.518 215.667 521.254 215.6 520.938 215.6C520.627 215.6 520.366 215.667 520.155 215.802C519.95 215.937 519.786 216.124 519.663 216.364C519.54 216.599 519.452 216.871 519.399 217.182C519.347 217.486 519.32 217.812 519.32 218.157ZM531.836 220.328C531.836 220.164 531.78 220.023 531.669 219.906C531.563 219.783 531.376 219.672 531.106 219.572C530.837 219.467 530.459 219.361 529.973 219.256C529.51 219.156 529.073 219.024 528.663 218.86C528.259 218.696 527.904 218.497 527.6 218.263C527.295 218.028 527.055 217.75 526.879 217.428C526.709 217.105 526.624 216.736 526.624 216.32C526.624 215.916 526.709 215.535 526.879 215.178C527.055 214.814 527.31 214.495 527.644 214.22C527.983 213.938 528.396 213.719 528.883 213.561C529.369 213.396 529.923 213.314 530.544 213.314C531.399 213.314 532.138 213.446 532.759 213.71C533.38 213.968 533.857 214.331 534.191 214.8C534.531 215.263 534.701 215.799 534.701 216.408H531.739C531.739 216.168 531.698 215.963 531.616 215.793C531.54 215.623 531.414 215.494 531.238 215.406C531.062 215.312 530.828 215.266 530.535 215.266C530.33 215.266 530.143 215.304 529.973 215.38C529.809 215.456 529.677 215.562 529.577 215.696C529.478 215.831 529.428 215.989 529.428 216.171C529.428 216.3 529.457 216.417 529.516 216.522C529.58 216.622 529.677 216.716 529.806 216.804C529.935 216.886 530.099 216.962 530.298 217.032C530.497 217.097 530.737 217.155 531.019 217.208C531.657 217.325 532.255 217.492 532.812 217.709C533.368 217.926 533.819 218.233 534.165 218.632C534.517 219.03 534.692 219.566 534.692 220.24C534.692 220.662 534.596 221.052 534.402 221.409C534.209 221.761 533.931 222.071 533.567 222.341C533.204 222.604 532.768 222.81 532.258 222.956C531.748 223.103 531.174 223.176 530.535 223.176C529.627 223.176 528.859 223.015 528.232 222.692C527.605 222.364 527.131 221.954 526.809 221.462C526.492 220.964 526.334 220.46 526.334 219.95H529.094C529.105 220.243 529.176 220.483 529.305 220.671C529.439 220.858 529.618 220.996 529.841 221.084C530.063 221.172 530.321 221.216 530.614 221.216C530.884 221.216 531.106 221.178 531.282 221.102C531.464 221.025 531.602 220.923 531.695 220.794C531.789 220.659 531.836 220.504 531.836 220.328ZM541.091 213.49V215.547H535.36V213.49H541.091ZM536.564 211.126H539.526V219.897C539.526 220.149 539.556 220.346 539.614 220.486C539.673 220.621 539.772 220.718 539.913 220.776C540.06 220.829 540.253 220.855 540.493 220.855C540.663 220.855 540.804 220.853 540.915 220.847C541.026 220.835 541.132 220.82 541.231 220.803V222.921C540.979 223.003 540.716 223.064 540.44 223.105C540.165 223.152 539.872 223.176 539.562 223.176C538.929 223.176 538.387 223.076 537.936 222.877C537.49 222.678 537.15 222.364 536.916 221.937C536.682 221.509 536.564 220.952 536.564 220.267V211.126ZM548.245 213.49H550.935V222.631C550.935 223.51 550.732 224.254 550.328 224.863C549.924 225.479 549.358 225.944 548.632 226.261C547.911 226.583 547.067 226.744 546.101 226.744C545.673 226.744 545.236 226.688 544.791 226.577C544.346 226.472 543.93 226.313 543.543 226.103C543.156 225.892 542.831 225.631 542.567 225.32L543.807 223.58C544.047 223.85 544.349 224.078 544.712 224.266C545.075 224.459 545.503 224.556 545.995 224.556C546.423 224.556 546.78 224.479 547.067 224.327C547.36 224.175 547.583 223.952 547.735 223.659C547.888 223.372 547.964 223.023 547.964 222.613V215.74L548.245 213.49ZM541.926 218.359V218.175C541.926 217.454 542.014 216.798 542.189 216.206C542.371 215.608 542.629 215.096 542.963 214.668C543.303 214.234 543.713 213.9 544.193 213.666C544.674 213.432 545.216 213.314 545.819 213.314C546.47 213.314 547.003 213.44 547.419 213.692C547.841 213.938 548.178 214.284 548.43 214.729C548.688 215.175 548.887 215.696 549.027 216.294C549.174 216.886 549.297 217.524 549.396 218.21V218.43C549.297 219.074 549.159 219.684 548.983 220.258C548.813 220.826 548.591 221.33 548.315 221.77C548.04 222.209 547.694 222.555 547.278 222.807C546.868 223.053 546.376 223.176 545.802 223.176C545.204 223.176 544.665 223.056 544.185 222.815C543.71 222.575 543.303 222.238 542.963 221.805C542.629 221.371 542.371 220.861 542.189 220.275C542.014 219.689 541.926 219.051 541.926 218.359ZM544.888 218.175V218.359C544.888 218.717 544.92 219.048 544.984 219.353C545.055 219.657 545.16 219.927 545.301 220.161C545.441 220.39 545.614 220.568 545.819 220.697C546.03 220.826 546.276 220.891 546.558 220.891C546.985 220.891 547.331 220.8 547.595 220.618C547.858 220.437 548.049 220.179 548.166 219.845C548.283 219.511 548.333 219.118 548.315 218.667V217.973C548.327 217.586 548.301 217.246 548.236 216.953C548.172 216.654 548.069 216.405 547.929 216.206C547.794 216.007 547.612 215.857 547.384 215.758C547.161 215.652 546.892 215.6 546.575 215.6C546.3 215.6 546.057 215.664 545.846 215.793C545.635 215.922 545.459 216.104 545.318 216.338C545.178 216.566 545.069 216.839 544.993 217.155C544.923 217.466 544.888 217.806 544.888 218.175ZM555.628 215.846V223H552.666V213.49H555.435L555.628 215.846ZM558.44 213.42L558.388 216.171C558.271 216.159 558.112 216.145 557.913 216.127C557.714 216.109 557.547 216.101 557.412 216.101C557.066 216.101 556.768 216.142 556.516 216.224C556.27 216.3 556.064 216.417 555.9 216.575C555.742 216.728 555.625 216.921 555.549 217.155C555.479 217.39 555.446 217.662 555.452 217.973L554.916 217.621C554.916 216.982 554.978 216.402 555.101 215.881C555.229 215.354 555.411 214.899 555.646 214.519C555.88 214.132 556.164 213.836 556.498 213.631C556.832 213.42 557.207 213.314 557.623 213.314C557.77 213.314 557.913 213.323 558.054 213.341C558.2 213.358 558.329 213.385 558.44 213.42ZM563.89 223.176C563.116 223.176 562.425 223.056 561.815 222.815C561.206 222.569 560.69 222.232 560.269 221.805C559.853 221.377 559.533 220.885 559.311 220.328C559.094 219.771 558.985 219.183 558.985 218.562V218.228C558.985 217.53 559.082 216.886 559.275 216.294C559.469 215.696 559.756 215.175 560.137 214.729C560.518 214.284 560.995 213.938 561.569 213.692C562.144 213.44 562.812 213.314 563.573 213.314C564.247 213.314 564.851 213.423 565.384 213.64C565.917 213.856 566.368 214.167 566.737 214.571C567.112 214.976 567.396 215.465 567.59 216.039C567.789 216.613 567.889 217.258 567.889 217.973V219.177H560.119V217.322H564.997V217.094C565.003 216.777 564.947 216.508 564.83 216.285C564.719 216.062 564.555 215.893 564.338 215.775C564.121 215.658 563.857 215.6 563.547 215.6C563.225 215.6 562.958 215.67 562.747 215.811C562.542 215.951 562.381 216.145 562.264 216.391C562.152 216.631 562.073 216.909 562.026 217.226C561.979 217.542 561.956 217.876 561.956 218.228V218.562C561.956 218.913 562.003 219.232 562.097 219.52C562.196 219.807 562.337 220.053 562.519 220.258C562.706 220.457 562.929 220.612 563.187 220.724C563.45 220.835 563.749 220.891 564.083 220.891C564.487 220.891 564.886 220.814 565.278 220.662C565.671 220.51 566.008 220.258 566.289 219.906L567.634 221.506C567.44 221.781 567.165 222.048 566.808 222.306C566.456 222.563 566.034 222.774 565.542 222.938C565.05 223.097 564.499 223.176 563.89 223.176ZM575.825 219.599C575.825 219.399 575.796 219.221 575.737 219.062C575.679 218.898 575.57 218.746 575.412 218.605C575.254 218.465 575.025 218.324 574.727 218.184C574.434 218.037 574.047 217.885 573.566 217.727C573.004 217.539 572.462 217.328 571.94 217.094C571.419 216.854 570.953 216.575 570.543 216.259C570.133 215.937 569.808 215.562 569.567 215.134C569.327 214.7 569.207 214.196 569.207 213.622C569.207 213.071 569.33 212.576 569.576 212.137C569.822 211.691 570.165 211.313 570.604 211.003C571.05 210.687 571.571 210.446 572.169 210.282C572.767 210.112 573.42 210.027 574.129 210.027C575.066 210.027 575.893 210.191 576.607 210.52C577.328 210.842 577.891 211.302 578.295 211.899C578.705 212.491 578.91 213.191 578.91 214H575.843C575.843 213.678 575.775 213.394 575.641 213.147C575.512 212.901 575.315 212.708 575.052 212.567C574.788 212.427 574.457 212.356 574.059 212.356C573.672 212.356 573.347 212.415 573.083 212.532C572.819 212.649 572.62 212.808 572.485 213.007C572.351 213.2 572.283 213.414 572.283 213.648C572.283 213.842 572.336 214.018 572.441 214.176C572.553 214.328 572.708 214.472 572.907 214.606C573.112 214.741 573.358 214.87 573.646 214.993C573.938 215.116 574.267 215.236 574.63 215.354C575.31 215.57 575.913 215.813 576.44 216.083C576.974 216.347 577.422 216.648 577.785 216.988C578.154 217.322 578.433 217.703 578.62 218.131C578.813 218.559 578.91 219.042 578.91 219.581C578.91 220.155 578.799 220.665 578.576 221.11C578.354 221.556 578.034 221.934 577.618 222.244C577.202 222.549 576.704 222.78 576.124 222.938C575.544 223.097 574.896 223.176 574.182 223.176C573.525 223.176 572.878 223.094 572.239 222.93C571.606 222.76 571.032 222.502 570.517 222.156C570.001 221.805 569.588 221.356 569.277 220.812C568.973 220.261 568.82 219.607 568.82 218.852H571.914C571.914 219.227 571.964 219.543 572.063 219.801C572.163 220.059 572.31 220.267 572.503 220.425C572.696 220.577 572.934 220.688 573.215 220.759C573.496 220.823 573.818 220.855 574.182 220.855C574.574 220.855 574.891 220.8 575.131 220.688C575.371 220.571 575.547 220.419 575.658 220.231C575.77 220.038 575.825 219.827 575.825 219.599ZM587.638 220.891L591.206 223.721L589.29 225.338L585.783 222.508L587.638 220.891ZM591.355 216.347V216.865C591.355 217.844 591.218 218.723 590.942 219.502C590.673 220.275 590.286 220.938 589.782 221.488C589.284 222.033 588.695 222.452 588.016 222.745C587.336 223.032 586.586 223.176 585.766 223.176C584.939 223.176 584.184 223.032 583.498 222.745C582.818 222.452 582.227 222.033 581.723 221.488C581.225 220.938 580.838 220.275 580.562 219.502C580.293 218.723 580.158 217.844 580.158 216.865V216.347C580.158 215.368 580.293 214.489 580.562 213.71C580.838 212.931 581.222 212.269 581.714 211.724C582.212 211.173 582.801 210.754 583.48 210.467C584.166 210.174 584.922 210.027 585.748 210.027C586.568 210.027 587.318 210.174 587.998 210.467C588.684 210.754 589.275 211.173 589.773 211.724C590.277 212.269 590.667 212.931 590.942 213.71C591.218 214.489 591.355 215.368 591.355 216.347ZM588.218 216.865V216.329C588.218 215.696 588.162 215.14 588.051 214.659C587.945 214.173 587.787 213.766 587.576 213.438C587.365 213.109 587.104 212.863 586.794 212.699C586.489 212.529 586.141 212.444 585.748 212.444C585.338 212.444 584.98 212.529 584.676 212.699C584.371 212.863 584.116 213.109 583.911 213.438C583.706 213.766 583.551 214.173 583.445 214.659C583.346 215.14 583.296 215.696 583.296 216.329V216.865C583.296 217.492 583.346 218.049 583.445 218.535C583.551 219.016 583.706 219.423 583.911 219.757C584.122 220.091 584.38 220.343 584.685 220.513C584.995 220.683 585.355 220.768 585.766 220.768C586.158 220.768 586.507 220.683 586.812 220.513C587.116 220.343 587.371 220.091 587.576 219.757C587.787 219.423 587.945 219.016 588.051 218.535C588.162 218.049 588.218 217.492 588.218 216.865ZM601.384 220.627V223H594.915V220.627H601.384ZM596.014 210.203V223H592.929V210.203H596.014Z" fill="white"/>
<rect x="482" y="196" width="142" height="41" rx="3" stroke="#424242" stroke-width="4"/>
<rect x="644" y="196" width="131" height="41" rx="3" fill="#424242"/>
<path d="M673.359 210.203V223H670.274V210.203H673.359ZM677.209 210.203V212.585H666.513V210.203H677.209ZM680.575 221.884L683.036 213.49H686.218L682.395 224.415C682.312 224.655 682.204 224.913 682.069 225.188C681.935 225.47 681.75 225.736 681.516 225.988C681.281 226.24 680.979 226.445 680.61 226.604C680.247 226.762 679.796 226.841 679.257 226.841C678.97 226.841 678.759 226.826 678.624 226.797C678.495 226.773 678.296 226.729 678.026 226.665V224.547C678.103 224.547 678.167 224.547 678.22 224.547C678.278 224.547 678.343 224.547 678.413 224.547C678.729 224.547 678.981 224.515 679.169 224.45C679.362 224.386 679.509 224.292 679.608 224.169C679.714 224.046 679.796 223.896 679.854 223.721L680.575 221.884ZM679.951 213.49L681.823 220.144L682.148 223.281H680.162L676.778 213.49H679.951ZM689.979 215.318V226.656H687.018V213.49H689.777L689.979 215.318ZM695.815 218.131V218.315C695.815 219.007 695.736 219.648 695.578 220.24C695.42 220.832 695.186 221.348 694.875 221.787C694.564 222.227 694.178 222.569 693.715 222.815C693.258 223.056 692.728 223.176 692.124 223.176C691.556 223.176 691.066 223.05 690.656 222.798C690.246 222.546 689.903 222.197 689.628 221.752C689.353 221.307 689.13 220.797 688.96 220.223C688.79 219.648 688.655 219.042 688.556 218.403V218.166C688.655 217.48 688.79 216.845 688.96 216.259C689.13 215.667 689.353 215.151 689.628 214.712C689.903 214.272 690.243 213.93 690.647 213.684C691.058 213.438 691.547 213.314 692.115 213.314C692.719 213.314 693.249 213.429 693.706 213.657C694.169 213.886 694.556 214.214 694.866 214.642C695.183 215.063 695.42 215.57 695.578 216.162C695.736 216.754 695.815 217.41 695.815 218.131ZM692.854 218.315V218.131C692.854 217.762 692.827 217.425 692.774 217.12C692.722 216.81 692.637 216.54 692.52 216.312C692.408 216.083 692.259 215.907 692.071 215.784C691.884 215.661 691.652 215.6 691.377 215.6C691.061 215.6 690.794 215.649 690.577 215.749C690.366 215.843 690.196 215.989 690.067 216.188C689.944 216.382 689.856 216.625 689.804 216.918C689.757 217.205 689.736 217.542 689.742 217.929V218.649C689.73 219.095 689.774 219.487 689.874 219.827C689.974 220.161 690.146 220.422 690.393 220.609C690.639 220.797 690.973 220.891 691.395 220.891C691.676 220.891 691.91 220.826 692.098 220.697C692.285 220.562 692.435 220.378 692.546 220.144C692.657 219.903 692.736 219.628 692.783 219.317C692.83 219.007 692.854 218.673 692.854 218.315ZM701.739 223.176C700.966 223.176 700.274 223.056 699.665 222.815C699.056 222.569 698.54 222.232 698.118 221.805C697.702 221.377 697.383 220.885 697.16 220.328C696.943 219.771 696.835 219.183 696.835 218.562V218.228C696.835 217.53 696.932 216.886 697.125 216.294C697.318 215.696 697.605 215.175 697.986 214.729C698.367 214.284 698.845 213.938 699.419 213.692C699.993 213.44 700.661 213.314 701.423 213.314C702.097 213.314 702.7 213.423 703.233 213.64C703.767 213.856 704.218 214.167 704.587 214.571C704.962 214.976 705.246 215.465 705.439 216.039C705.639 216.613 705.738 217.258 705.738 217.973V219.177H697.969V217.322H702.847V217.094C702.853 216.777 702.797 216.508 702.68 216.285C702.568 216.062 702.404 215.893 702.188 215.775C701.971 215.658 701.707 215.6 701.396 215.6C701.074 215.6 700.808 215.67 700.597 215.811C700.392 215.951 700.23 216.145 700.113 216.391C700.002 216.631 699.923 216.909 699.876 217.226C699.829 217.542 699.806 217.876 699.806 218.228V218.562C699.806 218.913 699.853 219.232 699.946 219.52C700.046 219.807 700.187 220.053 700.368 220.258C700.556 220.457 700.778 220.612 701.036 220.724C701.3 220.835 701.599 220.891 701.933 220.891C702.337 220.891 702.735 220.814 703.128 220.662C703.521 220.51 703.857 220.258 704.139 219.906L705.483 221.506C705.29 221.781 705.015 222.048 704.657 222.306C704.306 222.563 703.884 222.774 703.392 222.938C702.899 223.097 702.349 223.176 701.739 223.176ZM711.926 220.328C711.926 220.164 711.87 220.023 711.759 219.906C711.653 219.783 711.466 219.672 711.196 219.572C710.927 219.467 710.549 219.361 710.062 219.256C709.6 219.156 709.163 219.024 708.753 218.86C708.349 218.696 707.994 218.497 707.689 218.263C707.385 218.028 707.145 217.75 706.969 217.428C706.799 217.105 706.714 216.736 706.714 216.32C706.714 215.916 706.799 215.535 706.969 215.178C707.145 214.814 707.399 214.495 707.733 214.22C708.073 213.938 708.486 213.719 708.973 213.561C709.459 213.396 710.013 213.314 710.634 213.314C711.489 213.314 712.228 213.446 712.849 213.71C713.47 213.968 713.947 214.331 714.281 214.8C714.621 215.263 714.791 215.799 714.791 216.408H711.829C711.829 216.168 711.788 215.963 711.706 215.793C711.63 215.623 711.504 215.494 711.328 215.406C711.152 215.312 710.918 215.266 710.625 215.266C710.42 215.266 710.232 215.304 710.062 215.38C709.898 215.456 709.767 215.562 709.667 215.696C709.567 215.831 709.518 215.989 709.518 216.171C709.518 216.3 709.547 216.417 709.605 216.522C709.67 216.622 709.767 216.716 709.896 216.804C710.024 216.886 710.188 216.962 710.388 217.032C710.587 217.097 710.827 217.155 711.108 217.208C711.747 217.325 712.345 217.492 712.901 217.709C713.458 217.926 713.909 218.233 714.255 218.632C714.606 219.03 714.782 219.566 714.782 220.24C714.782 220.662 714.686 221.052 714.492 221.409C714.299 221.761 714.021 222.071 713.657 222.341C713.294 222.604 712.857 222.81 712.348 222.956C711.838 223.103 711.264 223.176 710.625 223.176C709.717 223.176 708.949 223.015 708.322 222.692C707.695 222.364 707.221 221.954 706.898 221.462C706.582 220.964 706.424 220.46 706.424 219.95H709.184C709.195 220.243 709.266 220.483 709.395 220.671C709.529 220.858 709.708 220.996 709.931 221.084C710.153 221.172 710.411 221.216 710.704 221.216C710.974 221.216 711.196 221.178 711.372 221.102C711.554 221.025 711.691 220.923 711.785 220.794C711.879 220.659 711.926 220.504 711.926 220.328ZM720.188 220.891C720.463 220.891 720.697 220.841 720.891 220.741C721.09 220.636 721.239 220.489 721.339 220.302C721.444 220.108 721.494 219.877 721.488 219.607H724.274C724.28 220.322 724.104 220.949 723.747 221.488C723.396 222.021 722.915 222.438 722.306 222.736C721.702 223.029 721.02 223.176 720.258 223.176C719.514 223.176 718.863 223.056 718.307 222.815C717.75 222.569 717.284 222.229 716.909 221.796C716.54 221.356 716.262 220.844 716.074 220.258C715.893 219.672 715.802 219.036 715.802 218.351V218.148C715.802 217.463 715.893 216.827 716.074 216.241C716.262 215.649 716.54 215.137 716.909 214.703C717.284 214.264 717.747 213.924 718.298 213.684C718.854 213.438 719.502 213.314 720.24 213.314C721.031 213.314 721.729 213.464 722.332 213.763C722.941 214.062 723.419 214.495 723.765 215.063C724.11 215.632 724.28 216.32 724.274 217.129H721.488C721.494 216.842 721.45 216.584 721.356 216.355C721.263 216.127 721.116 215.945 720.917 215.811C720.724 215.67 720.475 215.6 720.17 215.6C719.865 215.6 719.619 215.667 719.432 215.802C719.244 215.937 719.101 216.124 719.001 216.364C718.907 216.599 718.843 216.868 718.808 217.173C718.778 217.478 718.764 217.803 718.764 218.148V218.351C718.764 218.702 718.778 219.033 718.808 219.344C718.843 219.648 718.91 219.918 719.01 220.152C719.109 220.381 719.253 220.562 719.44 220.697C719.628 220.826 719.877 220.891 720.188 220.891ZM728.528 215.846V223H725.566V213.49H728.335L728.528 215.846ZM731.341 213.42L731.288 216.171C731.171 216.159 731.013 216.145 730.813 216.127C730.614 216.109 730.447 216.101 730.312 216.101C729.967 216.101 729.668 216.142 729.416 216.224C729.17 216.3 728.965 216.417 728.801 216.575C728.643 216.728 728.525 216.921 728.449 217.155C728.379 217.39 728.347 217.662 728.353 217.973L727.816 217.621C727.816 216.982 727.878 216.402 728.001 215.881C728.13 215.354 728.312 214.899 728.546 214.519C728.78 214.132 729.064 213.836 729.398 213.631C729.732 213.42 730.107 213.314 730.523 213.314C730.67 213.314 730.813 213.323 730.954 213.341C731.101 213.358 731.229 213.385 731.341 213.42ZM735.489 213.49V223H732.519V213.49H735.489ZM732.343 211.038C732.343 210.616 732.495 210.271 732.8 210.001C733.104 209.731 733.5 209.597 733.986 209.597C734.473 209.597 734.868 209.731 735.173 210.001C735.478 210.271 735.63 210.616 735.63 211.038C735.63 211.46 735.478 211.806 735.173 212.075C734.868 212.345 734.473 212.479 733.986 212.479C733.5 212.479 733.104 212.345 732.8 212.075C732.495 211.806 732.343 211.46 732.343 211.038ZM740.306 215.318V226.656H737.344V213.49H740.104L740.306 215.318ZM746.142 218.131V218.315C746.142 219.007 746.062 219.648 745.904 220.24C745.746 220.832 745.512 221.348 745.201 221.787C744.891 222.227 744.504 222.569 744.041 222.815C743.584 223.056 743.054 223.176 742.45 223.176C741.882 223.176 741.393 223.05 740.982 222.798C740.572 222.546 740.229 222.197 739.954 221.752C739.679 221.307 739.456 220.797 739.286 220.223C739.116 219.648 738.981 219.042 738.882 218.403V218.166C738.981 217.48 739.116 216.845 739.286 216.259C739.456 215.667 739.679 215.151 739.954 214.712C740.229 214.272 740.569 213.93 740.974 213.684C741.384 213.438 741.873 213.314 742.441 213.314C743.045 213.314 743.575 213.429 744.032 213.657C744.495 213.886 744.882 214.214 745.192 214.642C745.509 215.063 745.746 215.57 745.904 216.162C746.062 216.754 746.142 217.41 746.142 218.131ZM743.18 218.315V218.131C743.18 217.762 743.153 217.425 743.101 217.12C743.048 216.81 742.963 216.54 742.846 216.312C742.734 216.083 742.585 215.907 742.397 215.784C742.21 215.661 741.979 215.6 741.703 215.6C741.387 215.6 741.12 215.649 740.903 215.749C740.692 215.843 740.522 215.989 740.394 216.188C740.271 216.382 740.183 216.625 740.13 216.918C740.083 217.205 740.062 217.542 740.068 217.929V218.649C740.057 219.095 740.101 219.487 740.2 219.827C740.3 220.161 740.473 220.422 740.719 220.609C740.965 220.797 741.299 220.891 741.721 220.891C742.002 220.891 742.236 220.826 742.424 220.697C742.611 220.562 742.761 220.378 742.872 220.144C742.983 219.903 743.062 219.628 743.109 219.317C743.156 219.007 743.18 218.673 743.18 218.315ZM752.47 213.49V215.547H746.739V213.49H752.47ZM747.943 211.126H750.905V219.897C750.905 220.149 750.935 220.346 750.993 220.486C751.052 220.621 751.151 220.718 751.292 220.776C751.438 220.829 751.632 220.855 751.872 220.855C752.042 220.855 752.183 220.853 752.294 220.847C752.405 220.835 752.511 220.82 752.61 220.803V222.921C752.358 223.003 752.095 223.064 751.819 223.105C751.544 223.152 751.251 223.176 750.94 223.176C750.308 223.176 749.766 223.076 749.314 222.877C748.869 222.678 748.529 222.364 748.295 221.937C748.061 221.509 747.943 220.952 747.943 220.267V211.126Z" fill="white"/>
<rect x="644" y="196" width="131" height="41" rx="3" stroke="#424242" stroke-width="4"/>
<path d="M1066 0H1348C1356.28 0 1363 6.71573 1363 15V282C1363 290.284 1356.28 297 1348 297H1066V0Z" fill="white"/>
<g clip-path="url(#clip0_3_61)">
<path d="M1278.95 185.618L1147.02 53.6945L1150.05 50.6619L1281.98 182.586L1278.95 185.618Z" fill="#8C15E9"/>
<path d="M1150.05 185.618L1147.02 182.586L1278.95 50.6619L1281.98 53.6945L1150.05 185.618Z" fill="#8C15E9"/>
<path d="M1284.5 56.2199C1286.74 53.9883 1286.74 50.3679 1284.5 48.1365C1282.27 45.9039 1278.65 45.9039 1276.42 48.1365C1274.19 50.3679 1274.19 53.9883 1276.42 56.2199C1278.65 58.4526 1282.27 58.4526 1284.5 56.2199Z" fill="#8C15E9"/>
<path d="M1152.58 188.143C1154.81 185.912 1154.81 182.291 1152.58 180.06C1150.35 177.827 1146.73 177.827 1144.5 180.06C1142.26 182.291 1142.26 185.912 1144.5 188.143C1146.73 190.376 1150.35 190.376 1152.58 188.143Z" fill="#8C15E9"/>
<path d="M1276.42 188.143C1278.65 190.376 1282.27 190.376 1284.5 188.143C1286.74 185.912 1286.74 182.291 1284.5 180.06C1282.27 177.827 1278.65 177.827 1276.42 180.06C1274.19 182.291 1274.19 185.912 1276.42 188.143Z" fill="#8C15E9"/>
<path d="M1144.5 56.2199C1146.73 58.4526 1150.35 58.4526 1152.58 56.2199C1154.81 53.9883 1154.81 50.3679 1152.58 48.1365C1150.35 45.9039 1146.73 45.9039 1144.5 48.1365C1142.26 50.3679 1142.26 53.9883 1144.5 56.2199Z" fill="#8C15E9"/>
<path d="M1307.78 120.284H1121.22V115.996H1307.78V120.284Z" fill="#8C15E9"/>
<path d="M1216.64 211.423H1212.36V24.8555H1216.64V211.423Z" fill="#8C15E9"/>
<path d="M1220.22 24.8556C1220.22 21.6992 1217.66 19.1398 1214.5 19.1398C1211.34 19.1398 1208.78 21.6992 1208.78 24.8556C1208.78 28.013 1211.34 30.5724 1214.5 30.5724C1217.66 30.5724 1220.22 28.013 1220.22 24.8556Z" fill="#8C15E9"/>
<path d="M1220.22 211.424C1220.22 208.266 1217.66 205.707 1214.5 205.707C1211.34 205.707 1208.78 208.266 1208.78 211.424C1208.78 214.58 1211.34 217.14 1214.5 217.14C1217.66 217.14 1220.22 214.58 1220.22 211.424Z" fill="#8C15E9"/>
<path d="M1307.78 123.857C1310.94 123.857 1313.5 121.298 1313.5 118.14C1313.5 114.983 1310.94 112.423 1307.78 112.423C1304.63 112.423 1302.07 114.983 1302.07 118.14C1302.07 121.298 1304.63 123.857 1307.78 123.857Z" fill="#8C15E9"/>
<path d="M1121.22 123.857C1124.37 123.857 1126.93 121.298 1126.93 118.14C1126.93 114.983 1124.37 112.423 1121.22 112.423C1118.06 112.423 1115.5 114.983 1115.5 118.14C1115.5 121.298 1118.06 123.857 1121.22 123.857Z" fill="#8C15E9"/>
<path d="M1214.51 181.737C1289.35 144.077 1276.8 74.2696 1276.8 74.2696L1214.5 54.544L1152.2 74.2696C1152.2 74.2696 1139.65 144.077 1214.49 181.737" fill="#2E73EA"/>
<path d="M1271.26 118.39C1273.05 118.237 1274.85 118.141 1276.67 118.141H1268.92C1238.25 114.327 1214.5 88.1927 1214.5 56.4974V55.9995C1214.5 90.3195 1186.67 118.141 1152.33 118.141C1186.67 118.141 1214.5 145.963 1214.5 180.281C1214.5 148.586 1238.25 122.451 1268.92 118.638H1276.67C1274.85 118.638 1273.05 118.543 1271.26 118.39Z" fill="#22DDD2"/>
<path d="M1131.98 268.461C1130.16 268.461 1128.47 268.169 1126.9 267.585C1125.35 266.979 1124 266.126 1122.86 265.026C1121.71 263.926 1120.81 262.635 1120.16 261.153C1119.53 259.671 1119.22 258.044 1119.22 256.27C1119.22 254.496 1119.53 252.868 1120.16 251.387C1120.81 249.905 1121.71 248.614 1122.86 247.514C1124.02 246.414 1125.38 245.572 1126.93 244.988C1128.48 244.382 1130.17 244.079 1132.02 244.079C1134.06 244.079 1135.9 244.438 1137.54 245.157C1139.2 245.853 1140.59 246.885 1141.71 248.255L1138.21 251.488C1137.4 250.567 1136.51 249.883 1135.52 249.434C1134.53 248.962 1133.45 248.726 1132.29 248.726C1131.19 248.726 1130.17 248.906 1129.25 249.265C1128.33 249.624 1127.54 250.141 1126.86 250.814C1126.19 251.488 1125.66 252.285 1125.28 253.205C1124.92 254.126 1124.74 255.147 1124.74 256.27C1124.74 257.392 1124.92 258.414 1125.28 259.334C1125.66 260.255 1126.19 261.052 1126.86 261.725C1127.54 262.399 1128.33 262.915 1129.25 263.275C1130.17 263.634 1131.19 263.813 1132.29 263.813C1133.45 263.813 1134.53 263.589 1135.52 263.14C1136.51 262.668 1137.4 261.961 1138.21 261.018L1141.71 264.251C1140.59 265.621 1139.2 266.665 1137.54 267.383C1135.9 268.102 1134.05 268.461 1131.98 268.461ZM1151.06 268.057V258.425L1152.31 261.725L1141.93 244.483H1147.73L1155.67 257.718H1152.34L1160.32 244.483H1165.68L1155.3 261.725L1156.52 258.425V268.057H1151.06ZM1167.76 268.057V244.483H1179.28C1182.24 244.483 1184.47 245.044 1185.95 246.167C1187.45 247.289 1188.2 248.771 1188.2 250.612C1188.2 251.847 1187.9 252.925 1187.29 253.845C1186.69 254.743 1185.86 255.439 1184.8 255.933C1183.75 256.427 1182.54 256.674 1181.17 256.674L1181.81 255.293C1183.29 255.293 1184.6 255.54 1185.75 256.034C1186.89 256.506 1187.78 257.213 1188.41 258.156C1189.06 259.099 1189.38 260.255 1189.38 261.625C1189.38 263.645 1188.59 265.228 1186.99 266.373C1185.4 267.495 1183.05 268.057 1179.95 268.057H1167.76ZM1173.18 263.948H1179.55C1180.96 263.948 1182.03 263.724 1182.75 263.275C1183.49 262.803 1183.86 262.062 1183.86 261.052C1183.86 260.064 1183.49 259.334 1182.75 258.863C1182.03 258.369 1180.96 258.122 1179.55 258.122H1172.78V254.148H1178.61C1179.93 254.148 1180.94 253.924 1181.64 253.475C1182.36 253.003 1182.71 252.296 1182.71 251.353C1182.71 250.433 1182.36 249.748 1181.64 249.299C1180.94 248.827 1179.93 248.592 1178.61 248.592H1173.18V263.948ZM1198.53 253.98H1209.88V258.223H1198.53V253.98ZM1198.93 263.679H1211.77V268.057H1193.51V244.483H1211.33V248.861H1198.93V263.679ZM1216.11 268.057V244.483H1226.31C1228.42 244.483 1230.24 244.831 1231.77 245.527C1233.29 246.201 1234.47 247.177 1235.3 248.457C1236.13 249.737 1236.55 251.263 1236.55 253.037C1236.55 254.788 1236.13 256.304 1235.3 257.583C1234.47 258.841 1233.29 259.806 1231.77 260.48C1230.24 261.153 1228.42 261.49 1226.31 261.49H1219.14L1221.56 259.099V268.057H1216.11ZM1231.09 268.057L1225.2 259.503H1231.03L1236.99 268.057H1231.09ZM1221.56 259.705L1219.14 257.146H1226.01C1227.69 257.146 1228.95 256.786 1229.78 256.068C1230.61 255.327 1231.03 254.317 1231.03 253.037C1231.03 251.735 1230.61 250.725 1229.78 250.006C1228.95 249.288 1227.69 248.929 1226.01 248.929H1219.14L1221.56 246.335V259.705Z" fill="white"/>
<path d="M1131.98 268.461C1130.16 268.461 1128.47 268.169 1126.9 267.585C1125.35 266.979 1124 266.126 1122.86 265.026C1121.71 263.926 1120.81 262.635 1120.16 261.153C1119.53 259.671 1119.22 258.044 1119.22 256.27C1119.22 254.496 1119.53 252.868 1120.16 251.387C1120.81 249.905 1121.71 248.614 1122.86 247.514C1124.02 246.414 1125.38 245.572 1126.93 244.988C1128.48 244.382 1130.17 244.079 1132.02 244.079C1134.06 244.079 1135.9 244.438 1137.54 245.157C1139.2 245.853 1140.59 246.885 1141.71 248.255L1138.21 251.488C1137.4 250.567 1136.51 249.883 1135.52 249.434C1134.53 248.962 1133.45 248.726 1132.29 248.726C1131.19 248.726 1130.17 248.906 1129.25 249.265C1128.33 249.624 1127.54 250.141 1126.86 250.814C1126.19 251.488 1125.66 252.285 1125.28 253.205C1124.92 254.126 1124.74 255.147 1124.74 256.27C1124.74 257.392 1124.92 258.414 1125.28 259.334C1125.66 260.255 1126.19 261.052 1126.86 261.725C1127.54 262.399 1128.33 262.915 1129.25 263.275C1130.17 263.634 1131.19 263.813 1132.29 263.813C1133.45 263.813 1134.53 263.589 1135.52 263.14C1136.51 262.668 1137.4 261.961 1138.21 261.018L1141.71 264.251C1140.59 265.621 1139.2 266.665 1137.54 267.383C1135.9 268.102 1134.05 268.461 1131.98 268.461ZM1151.06 268.057V258.425L1152.31 261.725L1141.93 244.483H1147.73L1155.67 257.718H1152.34L1160.32 244.483H1165.68L1155.3 261.725L1156.52 258.425V268.057H1151.06ZM1167.76 268.057V244.483H1179.28C1182.24 244.483 1184.47 245.044 1185.95 246.167C1187.45 247.289 1188.2 248.771 1188.2 250.612C1188.2 251.847 1187.9 252.925 1187.29 253.845C1186.69 254.743 1185.86 255.439 1184.8 255.933C1183.75 256.427 1182.54 256.674 1181.17 256.674L1181.81 255.293C1183.29 255.293 1184.6 255.54 1185.75 256.034C1186.89 256.506 1187.78 257.213 1188.41 258.156C1189.06 259.099 1189.38 260.255 1189.38 261.625C1189.38 263.645 1188.59 265.228 1186.99 266.373C1185.4 267.495 1183.05 268.057 1179.95 268.057H1167.76ZM1173.18 263.948H1179.55C1180.96 263.948 1182.03 263.724 1182.75 263.275C1183.49 262.803 1183.86 262.062 1183.86 261.052C1183.86 260.064 1183.49 259.334 1182.75 258.863C1182.03 258.369 1180.96 258.122 1179.55 258.122H1172.78V254.148H1178.61C1179.93 254.148 1180.94 253.924 1181.64 253.475C1182.36 253.003 1182.71 252.296 1182.71 251.353C1182.71 250.433 1182.36 249.748 1181.64 249.299C1180.94 248.827 1179.93 248.592 1178.61 248.592H1173.18V263.948ZM1198.53 253.98H1209.88V258.223H1198.53V253.98ZM1198.93 263.679H1211.77V268.057H1193.51V244.483H1211.33V248.861H1198.93V263.679ZM1216.11 268.057V244.483H1226.31C1228.42 244.483 1230.24 244.831 1231.77 245.527C1233.29 246.201 1234.47 247.177 1235.3 248.457C1236.13 249.737 1236.55 251.263 1236.55 253.037C1236.55 254.788 1236.13 256.304 1235.3 257.583C1234.47 258.841 1233.29 259.806 1231.77 260.48C1230.24 261.153 1228.42 261.49 1226.31 261.49H1219.14L1221.56 259.099V268.057H1216.11ZM1231.09 268.057L1225.2 259.503H1231.03L1236.99 268.057H1231.09ZM1221.56 259.705L1219.14 257.146H1226.01C1227.69 257.146 1228.95 256.786 1229.78 256.068C1230.61 255.327 1231.03 254.317 1231.03 253.037C1231.03 251.735 1230.61 250.725 1229.78 250.006C1228.95 249.288 1227.69 248.929 1226.01 248.929H1219.14L1221.56 246.335V259.705Z" fill="#2E73EA"/>
<path d="M1240.87 268.057V244.483H1251.07C1253.18 244.483 1255 244.831 1256.53 245.527C1258.06 246.201 1259.24 247.177 1260.07 248.457C1260.9 249.737 1261.31 251.263 1261.31 253.037C1261.31 254.788 1260.9 256.304 1260.07 257.583C1259.24 258.863 1258.06 259.851 1256.53 260.547C1255 261.22 1253.18 261.557 1251.07 261.557H1243.9L1246.33 259.099V268.057H1240.87ZM1246.33 259.705L1243.9 257.112H1250.77C1252.46 257.112 1253.71 256.753 1254.54 256.034C1255.37 255.316 1255.79 254.317 1255.79 253.037C1255.79 251.735 1255.37 250.725 1254.54 250.006C1253.71 249.288 1252.46 248.929 1250.77 248.929H1243.9L1246.33 246.335V259.705ZM1260.92 268.057L1271.43 244.483H1276.82L1287.36 268.057H1281.64L1273.02 247.244H1275.17L1266.52 268.057H1260.92ZM1266.18 263.005L1267.63 258.863H1279.75L1281.23 263.005H1266.18ZM1289.81 268.057V244.483H1295.26V263.611H1307.08V268.057H1289.81Z" fill="#6200AF"/>
</g>
<defs>
<clipPath id="clip0_3_61">
<rect width="198" height="258.72" fill="white" transform="translate(1115.5 19.14)"/>
</clipPath>
</defs>
</svg>
