<svg width="1363" height="163" viewBox="0 0 1363 163" fill="none" xmlns="http://www.w3.org/2000/svg">
<path d="M0 15C0 6.71573 6.71573 0 15 0H37V163H15C6.71573 163 0 156.284 0 148V15Z" fill="#424242"/>
<rect width="1097" height="163" transform="translate(37)" fill="#F0F0F0"/>
<path d="M101.906 53.9219L94.3945 51.2383V48.0859L104.602 52.375V54.6367L101.906 53.9219ZM94.3945 56.1719L101.918 53.4297L104.602 52.7852V55.0352L94.3945 59.3242V56.1719ZM122.789 55.3398H126.293C126.223 56.4883 125.906 57.5078 125.344 58.3984C124.789 59.2891 124.012 59.9844 123.012 60.4844C122.02 60.9844 120.824 61.2344 119.426 61.2344C118.332 61.2344 117.352 61.0469 116.484 60.6719C115.617 60.2891 114.875 59.7422 114.258 59.0312C113.648 58.3203 113.184 57.4609 112.863 56.4531C112.543 55.4453 112.383 54.3164 112.383 53.0664V51.8828C112.383 50.6328 112.547 49.5039 112.875 48.4961C113.211 47.4805 113.688 46.6172 114.305 45.9062C114.93 45.1953 115.676 44.6484 116.543 44.2656C117.41 43.8828 118.379 43.6914 119.449 43.6914C120.871 43.6914 122.07 43.9492 123.047 44.4648C124.031 44.9805 124.793 45.6914 125.332 46.5977C125.879 47.5039 126.207 48.5352 126.316 49.6914H122.801C122.762 49.0039 122.625 48.4219 122.391 47.9453C122.156 47.4609 121.801 47.0977 121.324 46.8555C120.855 46.6055 120.23 46.4805 119.449 46.4805C118.863 46.4805 118.352 46.5898 117.914 46.8086C117.477 47.0273 117.109 47.3594 116.812 47.8047C116.516 48.25 116.293 48.8125 116.145 49.4922C116.004 50.1641 115.934 50.9531 115.934 51.8594V53.0664C115.934 53.9492 116 54.7266 116.133 55.3984C116.266 56.0625 116.469 56.625 116.742 57.0859C117.023 57.5391 117.383 57.8828 117.82 58.1172C118.266 58.3438 118.801 58.457 119.426 58.457C120.16 58.457 120.766 58.3398 121.242 58.1055C121.719 57.8711 122.082 57.5234 122.332 57.0625C122.59 56.6016 122.742 56.0273 122.789 55.3398ZM132.152 59.5703L135.516 48.3203H139.137L134.039 62.9102C133.93 63.2305 133.781 63.5742 133.594 63.9414C133.414 64.3086 133.168 64.6562 132.855 64.9844C132.551 65.3203 132.164 65.5938 131.695 65.8047C131.234 66.0156 130.668 66.1211 129.996 66.1211C129.676 66.1211 129.414 66.1016 129.211 66.0625C129.008 66.0234 128.766 65.9688 128.484 65.8984V63.4258C128.57 63.4258 128.66 63.4258 128.754 63.4258C128.848 63.4336 128.938 63.4375 129.023 63.4375C129.469 63.4375 129.832 63.3867 130.113 63.2852C130.395 63.1836 130.621 63.0273 130.793 62.8164C130.965 62.6133 131.102 62.3477 131.203 62.0195L132.152 59.5703ZM130.746 48.3203L133.5 57.5078L133.98 61.082L131.684 61.3281L127.125 48.3203H130.746ZM140.484 43H143.859V58.0938L143.52 61H140.484V43ZM151.887 54.5312V54.7773C151.887 55.7227 151.785 56.5898 151.582 57.3789C151.387 58.168 151.082 58.8516 150.668 59.4297C150.254 60 149.738 60.4453 149.121 60.7656C148.512 61.0781 147.793 61.2344 146.965 61.2344C146.191 61.2344 145.52 61.0781 144.949 60.7656C144.387 60.4531 143.914 60.0117 143.531 59.4414C143.148 58.8711 142.84 58.2031 142.605 57.4375C142.371 56.6719 142.195 55.8359 142.078 54.9297V54.3906C142.195 53.4844 142.371 52.6484 142.605 51.8828C142.84 51.1172 143.148 50.4492 143.531 49.8789C143.914 49.3086 144.387 48.8672 144.949 48.5547C145.512 48.2422 146.176 48.0859 146.941 48.0859C147.777 48.0859 148.504 48.2461 149.121 48.5664C149.746 48.8789 150.262 49.3242 150.668 49.9023C151.082 50.4727 151.387 51.1523 151.582 51.9414C151.785 52.7227 151.887 53.5859 151.887 54.5312ZM148.512 54.7773V54.5312C148.512 54.0156 148.473 53.5312 148.395 53.0781C148.324 52.6172 148.199 52.2148 148.02 51.8711C147.84 51.5195 147.594 51.2422 147.281 51.0391C146.977 50.8359 146.582 50.7344 146.098 50.7344C145.637 50.7344 145.246 50.8125 144.926 50.9688C144.605 51.125 144.34 51.3438 144.129 51.625C143.926 51.9062 143.773 52.2422 143.672 52.6328C143.57 53.0156 143.508 53.4375 143.484 53.8984V55.4336C143.508 56.0508 143.609 56.5977 143.789 57.0742C143.977 57.543 144.258 57.9141 144.633 58.1875C145.016 58.4531 145.512 58.5859 146.121 58.5859C146.598 58.5859 146.992 58.4922 147.305 58.3047C147.617 58.1172 147.859 57.8516 148.031 57.5078C148.211 57.1641 148.336 56.7617 148.406 56.3008C148.477 55.832 148.512 55.3242 148.512 54.7773ZM159.82 61.2344C158.836 61.2344 157.953 61.0781 157.172 60.7656C156.391 60.4453 155.727 60.0039 155.18 59.4414C154.641 58.8789 154.227 58.2266 153.938 57.4844C153.648 56.7344 153.504 55.9375 153.504 55.0938V54.625C153.504 53.6641 153.641 52.7852 153.914 51.9883C154.188 51.1914 154.578 50.5 155.086 49.9141C155.602 49.3281 156.227 48.8789 156.961 48.5664C157.695 48.2461 158.523 48.0859 159.445 48.0859C160.344 48.0859 161.141 48.2344 161.836 48.5312C162.531 48.8281 163.113 49.25 163.582 49.7969C164.059 50.3438 164.418 51 164.66 51.7656C164.902 52.5234 165.023 53.3672 165.023 54.2969V55.7031H154.945V53.4531H161.707V53.1953C161.707 52.7266 161.621 52.3086 161.449 51.9414C161.285 51.5664 161.035 51.2695 160.699 51.0508C160.363 50.832 159.934 50.7227 159.41 50.7227C158.965 50.7227 158.582 50.8203 158.262 51.0156C157.941 51.2109 157.68 51.4844 157.477 51.8359C157.281 52.1875 157.133 52.6016 157.031 53.0781C156.938 53.5469 156.891 54.0625 156.891 54.625V55.0938C156.891 55.6016 156.961 56.0703 157.102 56.5C157.25 56.9297 157.457 57.3008 157.723 57.6133C157.996 57.9258 158.324 58.168 158.707 58.3398C159.098 58.5117 159.539 58.5977 160.031 58.5977C160.641 58.5977 161.207 58.4805 161.73 58.2461C162.262 58.0039 162.719 57.6406 163.102 57.1562L164.742 58.9375C164.477 59.3203 164.113 59.6875 163.652 60.0391C163.199 60.3906 162.652 60.6797 162.012 60.9062C161.371 61.125 160.641 61.2344 159.82 61.2344ZM170.32 51.0859V61H166.945V48.3203H170.121L170.32 51.0859ZM174.141 48.2383L174.082 51.3672C173.918 51.3438 173.719 51.3242 173.484 51.3086C173.258 51.2852 173.051 51.2734 172.863 51.2734C172.387 51.2734 171.973 51.3359 171.621 51.4609C171.277 51.5781 170.988 51.7539 170.754 51.9883C170.527 52.2227 170.355 52.5078 170.238 52.8438C170.129 53.1797 170.066 53.5625 170.051 53.9922L169.371 53.7812C169.371 52.9609 169.453 52.207 169.617 51.5195C169.781 50.8242 170.02 50.2188 170.332 49.7031C170.652 49.1875 171.043 48.7891 171.504 48.5078C171.965 48.2266 172.492 48.0859 173.086 48.0859C173.273 48.0859 173.465 48.1016 173.66 48.1328C173.855 48.1562 174.016 48.1914 174.141 48.2383ZM182.59 54.918H178.242V52.1758H182.59C183.262 52.1758 183.809 52.0664 184.23 51.8477C184.652 51.6211 184.961 51.3086 185.156 50.9102C185.352 50.5117 185.449 50.0625 185.449 49.5625C185.449 49.0547 185.352 48.582 185.156 48.1445C184.961 47.707 184.652 47.3555 184.23 47.0898C183.809 46.8242 183.262 46.6914 182.59 46.6914H179.461V61H175.945V43.9375H182.59C183.926 43.9375 185.07 44.1797 186.023 44.6641C186.984 45.1406 187.719 45.8008 188.227 46.6445C188.734 47.4883 188.988 48.4531 188.988 49.5391C188.988 50.6406 188.734 51.5938 188.227 52.3984C187.719 53.2031 186.984 53.8242 186.023 54.2617C185.07 54.6992 183.926 54.918 182.59 54.918ZM197.906 58.1406V52.4922C197.906 52.0859 197.84 51.7383 197.707 51.4492C197.574 51.1523 197.367 50.9219 197.086 50.7578C196.812 50.5938 196.457 50.5117 196.02 50.5117C195.645 50.5117 195.32 50.5781 195.047 50.7109C194.773 50.8359 194.562 51.0195 194.414 51.2617C194.266 51.4961 194.191 51.7734 194.191 52.0938H190.816C190.816 51.5547 190.941 51.043 191.191 50.5586C191.441 50.0742 191.805 49.6484 192.281 49.2812C192.758 48.9062 193.324 48.6133 193.98 48.4023C194.645 48.1914 195.387 48.0859 196.207 48.0859C197.191 48.0859 198.066 48.25 198.832 48.5781C199.598 48.9062 200.199 49.3984 200.637 50.0547C201.082 50.7109 201.305 51.5312 201.305 52.5156V57.9414C201.305 58.6367 201.348 59.207 201.434 59.6523C201.52 60.0898 201.645 60.4727 201.809 60.8008V61H198.398C198.234 60.6562 198.109 60.2266 198.023 59.7109C197.945 59.1875 197.906 58.6641 197.906 58.1406ZM198.352 53.2773L198.375 55.1875H196.488C196.043 55.1875 195.656 55.2383 195.328 55.3398C195 55.4414 194.73 55.5859 194.52 55.7734C194.309 55.9531 194.152 56.1641 194.051 56.4062C193.957 56.6484 193.91 56.9141 193.91 57.2031C193.91 57.4922 193.977 57.7539 194.109 57.9883C194.242 58.2148 194.434 58.3945 194.684 58.5273C194.934 58.6523 195.227 58.7148 195.562 58.7148C196.07 58.7148 196.512 58.6133 196.887 58.4102C197.262 58.207 197.551 57.957 197.754 57.6602C197.965 57.3633 198.074 57.082 198.082 56.8164L198.973 58.2461C198.848 58.5664 198.676 58.8984 198.457 59.2422C198.246 59.5859 197.977 59.9102 197.648 60.2148C197.32 60.5117 196.926 60.7578 196.465 60.9531C196.004 61.1406 195.457 61.2344 194.824 61.2344C194.02 61.2344 193.289 61.0742 192.633 60.7539C191.984 60.4258 191.469 59.9766 191.086 59.4062C190.711 58.8281 190.523 58.1719 190.523 57.4375C190.523 56.7734 190.648 56.1836 190.898 55.668C191.148 55.1523 191.516 54.7188 192 54.3672C192.492 54.0078 193.105 53.7383 193.84 53.5586C194.574 53.3711 195.426 53.2773 196.395 53.2773H198.352ZM207.469 43V61H204.082V43H207.469Z" fill="#888888"/>
<path d="M118.594 98.4219V104.75H101.086V98.4219H118.594ZM103.828 84.875V119H95.6016V84.875H103.828ZM124.125 84.875V119H115.922V84.875H124.125ZM127.992 106.578V106.086C127.992 104.227 128.258 102.516 128.789 100.953C129.32 99.375 130.102 98.0078 131.133 96.8516C132.164 95.6953 133.438 94.7969 134.953 94.1562C136.469 93.5 138.219 93.1719 140.203 93.1719C142.203 93.1719 143.961 93.5 145.477 94.1562C147.008 94.7969 148.289 95.6953 149.32 96.8516C150.352 98.0078 151.133 99.375 151.664 100.953C152.195 102.516 152.461 104.227 152.461 106.086V106.578C152.461 108.422 152.195 110.133 151.664 111.711C151.133 113.273 150.352 114.641 149.32 115.812C148.289 116.969 147.016 117.867 145.5 118.508C143.984 119.148 142.234 119.469 140.25 119.469C138.266 119.469 136.508 119.148 134.977 118.508C133.445 117.867 132.164 116.969 131.133 115.812C130.102 114.641 129.32 113.273 128.789 111.711C128.258 110.133 127.992 108.422 127.992 106.578ZM135.891 106.086V106.578C135.891 107.531 135.961 108.422 136.102 109.25C136.242 110.078 136.477 110.805 136.805 111.43C137.133 112.039 137.578 112.516 138.141 112.859C138.703 113.203 139.406 113.375 140.25 113.375C141.078 113.375 141.766 113.203 142.312 112.859C142.875 112.516 143.32 112.039 143.648 111.43C143.977 110.805 144.211 110.078 144.352 109.25C144.492 108.422 144.562 107.531 144.562 106.578V106.086C144.562 105.164 144.492 104.297 144.352 103.484C144.211 102.656 143.977 101.93 143.648 101.305C143.32 100.664 142.875 100.164 142.312 99.8047C141.75 99.4453 141.047 99.2656 140.203 99.2656C139.375 99.2656 138.68 99.4453 138.117 99.8047C137.57 100.164 137.133 100.664 136.805 101.305C136.477 101.93 136.242 102.656 136.102 103.484C135.961 104.297 135.891 105.164 135.891 106.086ZM163.688 111.453L168.375 93.6406H173.32L171.562 102.57L166.922 119H162.961L163.688 111.453ZM161.836 93.6406L164.742 111.312L165.07 119H160.266L154.266 93.6406H161.836ZM177.492 110.938L180.422 93.6406H187.992L182.039 119H177.234L177.492 110.938ZM173.883 93.6406L178.617 111.406L179.344 119H175.336L170.789 102.617L169.102 93.6406H173.883ZM218.297 84.875V119H210.07V84.875H218.297ZM228.562 84.875V91.2266H200.039V84.875H228.562ZM225.773 106.578V106.086C225.773 104.227 226.039 102.516 226.57 100.953C227.102 99.375 227.883 98.0078 228.914 96.8516C229.945 95.6953 231.219 94.7969 232.734 94.1562C234.25 93.5 236 93.1719 237.984 93.1719C239.984 93.1719 241.742 93.5 243.258 94.1562C244.789 94.7969 246.07 95.6953 247.102 96.8516C248.133 98.0078 248.914 99.375 249.445 100.953C249.977 102.516 250.242 104.227 250.242 106.086V106.578C250.242 108.422 249.977 110.133 249.445 111.711C248.914 113.273 248.133 114.641 247.102 115.812C246.07 116.969 244.797 117.867 243.281 118.508C241.766 119.148 240.016 119.469 238.031 119.469C236.047 119.469 234.289 119.148 232.758 118.508C231.227 117.867 229.945 116.969 228.914 115.812C227.883 114.641 227.102 113.273 226.57 111.711C226.039 110.133 225.773 108.422 225.773 106.578ZM233.672 106.086V106.578C233.672 107.531 233.742 108.422 233.883 109.25C234.023 110.078 234.258 110.805 234.586 111.43C234.914 112.039 235.359 112.516 235.922 112.859C236.484 113.203 237.188 113.375 238.031 113.375C238.859 113.375 239.547 113.203 240.094 112.859C240.656 112.516 241.102 112.039 241.43 111.43C241.758 110.805 241.992 110.078 242.133 109.25C242.273 108.422 242.344 107.531 242.344 106.578V106.086C242.344 105.164 242.273 104.297 242.133 103.484C241.992 102.656 241.758 101.93 241.43 101.305C241.102 100.664 240.656 100.164 240.094 99.8047C239.531 99.4453 238.828 99.2656 237.984 99.2656C237.156 99.2656 236.461 99.4453 235.898 99.8047C235.352 100.164 234.914 100.664 234.586 101.305C234.258 101.93 234.023 102.656 233.883 103.484C233.742 104.297 233.672 105.164 233.672 106.086ZM266.086 84.875H279.516C282.141 84.875 284.422 85.2656 286.359 86.0469C288.297 86.8281 289.789 87.9844 290.836 89.5156C291.898 91.0469 292.43 92.9375 292.43 95.1875C292.43 97.1406 292.125 98.7734 291.516 100.086C290.906 101.398 290.055 102.484 288.961 103.344C287.883 104.188 286.625 104.883 285.188 105.43L282.492 106.953H271.219L271.172 100.602H279.516C280.562 100.602 281.43 100.414 282.117 100.039C282.805 99.6641 283.32 99.1328 283.664 98.4453C284.023 97.7422 284.203 96.9062 284.203 95.9375C284.203 94.9531 284.023 94.1094 283.664 93.4062C283.305 92.7031 282.773 92.1641 282.07 91.7891C281.383 91.4141 280.531 91.2266 279.516 91.2266H274.312V119H266.086V84.875ZM284.766 119L277.219 103.906L285.938 103.859L293.578 118.648V119H284.766ZM311.836 112.836V93.6406H319.758V119H312.352L311.836 112.836ZM312.586 107.68L314.648 107.633C314.648 109.336 314.445 110.914 314.039 112.367C313.633 113.805 313.031 115.055 312.234 116.117C311.453 117.18 310.484 118.008 309.328 118.602C308.188 119.18 306.867 119.469 305.367 119.469C304.117 119.469 302.969 119.297 301.922 118.953C300.891 118.594 300 118.039 299.25 117.289C298.5 116.523 297.914 115.547 297.492 114.359C297.086 113.156 296.883 111.719 296.883 110.047V93.6406H304.781V110.094C304.781 110.656 304.852 111.141 304.992 111.547C305.133 111.953 305.336 112.297 305.602 112.578C305.867 112.844 306.195 113.047 306.586 113.188C306.992 113.312 307.453 113.375 307.969 113.375C309.156 113.375 310.086 113.125 310.758 112.625C311.43 112.125 311.898 111.445 312.164 110.586C312.445 109.727 312.586 108.758 312.586 107.68ZM331.875 99.0547V119H323.977V93.6406H331.383L331.875 99.0547ZM330.938 105.453L329.086 105.5C329.086 103.562 329.32 101.836 329.789 100.32C330.258 98.7891 330.922 97.4922 331.781 96.4297C332.641 95.3672 333.664 94.5625 334.852 94.0156C336.055 93.4531 337.391 93.1719 338.859 93.1719C340.031 93.1719 341.102 93.3438 342.07 93.6875C343.055 94.0312 343.898 94.5859 344.602 95.3516C345.32 96.1172 345.867 97.1328 346.242 98.3984C346.633 99.6484 346.828 101.195 346.828 103.039V119H338.883V103.016C338.883 102 338.742 101.227 338.461 100.695C338.18 100.148 337.773 99.7734 337.242 99.5703C336.711 99.3672 336.062 99.2656 335.297 99.2656C334.484 99.2656 333.797 99.4219 333.234 99.7344C332.672 100.047 332.219 100.484 331.875 101.047C331.547 101.594 331.305 102.242 331.148 102.992C331.008 103.742 330.938 104.562 330.938 105.453ZM363.773 108.195H357.047C357.047 106.82 357.141 105.609 357.328 104.562C357.531 103.5 357.875 102.547 358.359 101.703C358.844 100.859 359.5 100.078 360.328 99.3594C361.062 98.75 361.695 98.1641 362.227 97.6016C362.758 97.0391 363.164 96.4688 363.445 95.8906C363.727 95.3125 363.867 94.6953 363.867 94.0391C363.867 93.2266 363.75 92.5625 363.516 92.0469C363.297 91.5312 362.961 91.1484 362.508 90.8984C362.07 90.6328 361.516 90.5 360.844 90.5C360.297 90.5 359.781 90.6328 359.297 90.8984C358.828 91.1641 358.445 91.5781 358.148 92.1406C357.852 92.6875 357.688 93.4141 357.656 94.3203H349.711C349.758 91.9922 350.273 90.1016 351.258 88.6484C352.258 87.1797 353.586 86.1094 355.242 85.4375C356.914 84.75 358.781 84.4062 360.844 84.4062C363.125 84.4062 365.086 84.7578 366.727 85.4609C368.367 86.1641 369.625 87.2109 370.5 88.6016C371.375 89.9766 371.812 91.6719 371.812 93.6875C371.812 95.0312 371.555 96.2031 371.039 97.2031C370.539 98.1875 369.859 99.1094 369 99.9688C368.156 100.812 367.211 101.719 366.164 102.688C365.258 103.484 364.641 104.297 364.312 105.125C363.984 105.938 363.805 106.961 363.773 108.195ZM356.086 115.32C356.086 114.195 356.492 113.258 357.305 112.508C358.117 111.742 359.172 111.359 360.469 111.359C361.766 111.359 362.82 111.742 363.633 112.508C364.445 113.258 364.852 114.195 364.852 115.32C364.852 116.445 364.445 117.391 363.633 118.156C362.82 118.906 361.766 119.281 360.469 119.281C359.172 119.281 358.117 118.906 357.305 118.156C356.492 117.391 356.086 116.445 356.086 115.32Z" fill="black"/>
<path d="M1134 0H1348C1356.28 0 1363 6.71573 1363 15V148C1363 156.284 1356.28 163 1348 163H1134V0Z" fill="#6200AF"/>
<path d="M1260.62 78.8078C1263.81 78.8078 1266.93 79.7552 1269.59 81.5302C1272.25 83.3052 1274.32 85.8281 1275.54 88.7798C1276.76 91.7315 1277.08 94.9795 1276.46 98.1131C1275.84 101.247 1274.3 104.125 1272.04 106.384C1269.78 108.643 1266.9 110.182 1263.77 110.805C1260.63 111.428 1257.39 111.108 1254.43 109.886C1251.48 108.663 1248.96 106.593 1247.18 103.936C1245.41 101.28 1244.46 98.1565 1244.46 94.9616C1244.46 90.6774 1246.16 86.5686 1249.19 83.5392C1252.22 80.5097 1256.33 78.8078 1260.62 78.8078ZM1260.62 73.4232C1256.36 73.4232 1252.19 74.6864 1248.65 77.0531C1245.11 79.4198 1242.35 82.7836 1240.72 86.7192C1239.09 90.6549 1238.66 94.9855 1239.49 99.1636C1240.32 103.342 1242.37 107.179 1245.39 110.192C1248.4 113.204 1252.24 115.255 1256.41 116.086C1260.59 116.917 1264.92 116.491 1268.86 114.861C1272.79 113.23 1276.16 110.47 1278.52 106.928C1280.89 103.386 1282.15 99.2215 1282.15 94.9616C1282.15 89.2493 1279.88 83.7709 1275.85 79.7317C1271.81 75.6924 1266.33 73.4232 1260.62 73.4232Z" fill="white"/>
<path d="M1274.08 46.4999H1220.23C1218.8 46.4999 1217.43 47.0672 1216.42 48.0771C1215.41 49.0869 1214.85 50.4565 1214.85 51.8845V105.731C1214.85 107.159 1215.41 108.528 1216.42 109.538C1217.43 110.548 1218.8 111.115 1220.23 111.115H1231V105.731H1220.23V68.0383H1279.46V51.8845C1279.46 50.4565 1278.89 49.0869 1277.88 48.0771C1276.87 47.0672 1275.5 46.4999 1274.08 46.4999ZM1220.23 62.6537V51.8845H1274.08V62.6537H1220.23Z" fill="white"/>
<path d="M1255.23 86.8848V103.039L1268.69 94.9617L1255.23 86.8848Z" fill="white"/>
</svg>
